<mxfile host="Electron" agent="Mozilla/5.0 (Windows NT 10.0; Win64; x64) AppleWebKit/537.36 (KHTML, like Gecko) draw.io/24.7.17 Chrome/128.0.6613.36 Electron/32.0.1 Safari/537.36" version="24.7.17">
  <diagram name="Page-1" id="ZJw5_xsEjSZaJuIddDzj">
    <mxGraphModel dx="2590" dy="1518" grid="0" gridSize="10" guides="1" tooltips="1" connect="1" arrows="1" fold="1" page="0" pageScale="1" pageWidth="2336" pageHeight="1654" math="0" shadow="0">
      <root>
        <mxCell id="0" />
        <mxCell id="1" parent="0" />
        <mxCell id="lsgI77zBe2tgthgqGCkg-6" value="" style="shape=stencil(lVrLchs5DPwaXVEkwec5m/xHquLEqnjtlONkN38fcLVUxOZMj32TZfaQIIBGA6OTvvt+//Hb3Sm47y/PT1/v/jl/erk/6V+nEM6P93fP5xf7dNL3J333+en57svz04/HT5e/v33sK/unv59+9if8e8FFKbWDgvt1+cJJiP998eGy/OH8eLO8SJiXe/F5f7l3kuK0PkgMZH0Sl6b1UZzur7fT+vn5SVoh6+358/nr+GJ7fZM2P98sCsQAjZLggsxicqHaxIcZECWTK40qGQBZmieAuuzQJJAdUpDsZqf5sec2oOCtdrcRQPZSZjeHTOMim1tnG8xxxRFAkzofSR29paIjkK8ApTaUhDZo4oAiFQB5WLUNaKJz8Gkd2boJqE7KbEO0/EsEENDoGCQ0AlAp85GieZokXE0S51iKSSoDFPEAKGPPbUCVOodGbFLItTaH15o8jaXmkSOT5SCxoQVpbQYkycSGptJmoy2lEknRZhwBOzRJzIY0aGsALAeVHckcN0drVgkkgQwAVJkj5eKWsTbkLIUBLDRmo3MdTLUH+D/UBqCY75kNFfOheG5DxXpoPMIyzgCqM+Dglgww+6FkURYaBgCjC2VvAyQ/Azi3GiDDDpZx/Frr7DhjqsSO1JAEqqeyxAChIYBxqwEgvI0LacY1pPvOhUzKOCcOjDCxRcSMbdFAnBhXcqvTnNSVS4HuOdihjDq5l0GQo51uWXxnCXNsVLs4UlFWJjN+biz6jIbmDDJ+bmwHK3JzfHd+Zq72EgGgI4D3KkqZjW4HnjbZOgfTH7rdLnIN/WAX7RnAPA23VMY17NXdCjuYNCa3ZKEGoq+HI9shIZM1XqgtXYJHAItWS+GyHImRa2eVOYFusnZPkwH39S2II4xLNSxGkNgwtgYqMwBrCKweYAY12nJ0gEMAK+12JAeOqDTlutRtCKj8Wv0SfcxoKyB5ASQeGxhMBwAdNe21R7oW8hsAo76aUJ70a2VHssr/JscZICzBx0LDjpSXHM2MZ+LCMzy87VrDmqNsB48tx1GOWmz4NUfJvXa9ExcjGMDK4pJyjMos5ZBdG1VABkiLDawz6zssrmb8/XZAxdJuJYW21IuKs6JFr7UtGcTHOb3hjQgILPr86JJuKvVBh4xGK29HVTwkRBhd+V4GRfCDp+LBcrTNTYrJicR4piwy8Son9sRDA6170Ghdh4Y3upJ2BB6rolEVlYlhxOaNNqbNYpA4++FIfYdFG3OB31UkAA5aCEXVd9SkKDaLR22QLnL9oNFSnBgdtXI6Uv61zWLEie5RO7oCDhre66zxtqVmTY0izfSmnTsOJnfloOVQZO8+eGBtU0DB1EcbzNMBMy5nqrAs46BQ50SrqAFAkvUBEHOcw9DoIyaWonYnMFc74KWGwjUVykv1Gps3gzgWrZ0qAaCcjDPyUh8mspIVMUVjo44zUqmz42IZlXuvxkEFiom3KKYJ52iNkTaXpeBwPQbqacvgCAA3wnFvuA7XqtZAMHGiqMi08Gm8x6mXphHw228UlqKoSt995YTBp57OyjfeinCj0yJDQ6ZKIAWcMwfzNKHKWHEUEjyt01HxRY1voxBvArSh/PHmOLKDRrTBRzqS0mXe7wMNvpBQCXhHbQjL/KeORm17NJhGxl+ZkjKrd8jdkT5/fVk2JgTbx8dXNJ6+i1teudrlkKcvU1A3tnvtcuWHSbCc6X+HotDRFHZIvY6G5iJqbTlhFI8s6saYZc9NBZeTi1RkUP705a0yP3vEmSq/mYhky+/9jT9KOFxuH/78/uHz+eHh8vOJ2//j7yXsq8tvLfT9bw==);lineShape=1;strokeColor=default;" vertex="1" parent="1">
          <mxGeometry x="309.37144750111224" y="203.3615761751439" width="58.02409484842747" height="396.75900628821296" as="geometry" />
        </mxCell>
        <mxCell id="lsgI77zBe2tgthgqGCkg-7" value="" style="shape=stencil(nVjbUlsxDPyavGpsy9dnSv+DGULJlBIm0NvfV27Gh0gn3kP7dggr27K00so7vnl9vHvZ74J7fTsdv+5/Hu7fHnf8aRfC4flxfzq8ydeOb3d883A87b+cjt+f789/v9x1ZP/6dvzRV/h1tvPEuRsF9/v8Q2tU4t9fPp/xT4fnC7yjFjQ+U20IzwYfyDHCO6fwpVDOCF+KwudGwc/xnrLX+EINrB+ossZniI+UDD5RDnN8plw1PpID6zeK5vxh3Nh1fwMVvUFqlEHAvMRTRywVCuiG/AjQYhCpIINCnLRBoADuiHmk5DCI4kMCQZCs0FkUy4jjdYNKTl9rTOTr3CAly5sYqIEdJEzctIGjCnzIlap2muWQIHAlUtRU4Ey+AINGXkeaIwXgQxUX9S2xpwQCVxM17UMQr8CRaiU2BhkeqTkK2unAg+HXDTxVzYdeAsGRGo8DDANfxzVcN4g2vYVSiKItUdBH8gwZJyXXmR0cZbRDthSto4xcxxfyeoMMGS34ZBhNETSRVkdiLmQgj85TKWnyMEWUFRIhfZ6Ai+pSTgbe4Yi1cR3veMb4qvF+5MgM39j46zbwpsjDgurdus3CLrXeQDLObRgY1oSRU9MrMjnNVDdiYAyk7YD62IOsa4tPo+rPDEwvlx0iTqMYrQ+oAosBax54TwH7wPpIbSsMBp8Hk6Z409Yo4KhF3UICrlxypbqDuKE2pjGzeAfack+KYPCwsDQr7xZ9O01rb/yNG3hb6FAGXSGmyDHsQNOVUeQvqrzNVkbJuIgzoq6aE2OXjeAU1iR8JCOBOy9Rdf8PA2eInGF9XPcbMSioGNWhFj+6QxkN+8KHhpgmLXl1JEaBy5YKXpbAIsGbI1U4KYhuMcVlS0pFq4F730eBW3TQYlDIoR38ip8NJ58b9fZC0qIu0hWqJpCIZlQCarKM4wLFSFfZOnC8VLWpjtdxkFkEya/1pBAjzKX1LBLziP1Hp50GC3Gfp/SRkocE6hObvqXElEB6r2fCJBQFBn3qNKK2QgL1uVZna15eJ6aTs3m8EF0LikCfzVevER5EWkRXNe2kwkG4DV296EIPbzXbS5XcQgSNdlAoGXaTYIVzqXC8W91odXDgdLZeVIk6WN9R0uuXBqnmx8i+rB9He5zgk87qWmBbELzuO1KfEhIYVgPXNmrBDK/Xl4KZob8mH3pFRq9Ntkm1DQaM6Cz4OJ4YZuc38igPks7w5jlUGjXgy+o5UZRAxvFdPbdCQTjE2QUePT54q8cvFOXE4N/ef7fx8vH+2PxweHo6v1Vf/t8+TstP54dtvv0D);lineShape=1;strokeColor=default;" vertex="1" parent="1">
          <mxGeometry x="257.7936655357437" y="466.5306269079322" width="680.647431497034" height="30.549499090633844" as="geometry" />
        </mxCell>
        <mxCell id="lsgI77zBe2tgthgqGCkg-10" value="" style="shape=stencil(lVnZchs5DPwavaIIEryec/xHquKsVevYKcfZ4+8XsyqOxJ6ZVvxmjwAeOBoN8JQ+/Hz88uPhFMPPt9eXPx/+Pn99ezylj6cYz8+PD6/nN//rlD6d0odvL68Pf7y+/Hr+evn/x5dFcvnr+8tfywr/XPSCaFuUYvj38qF3Cfr/l88X+afz8428SoizfJNE5KPEMMtXMSKfpJVZvoj2Y/ksPc3yJpXIN4l5lk8SE7lvkGazgkouRCFJni3aurRAFIrEPis0CUyhj59XBV8iEh/4iUHBxpd9BffC7OUWpRGruhsa3EElESvFKmX2Q3UrNaLQJeqs4IFHFFKQPDuuFmmVKKjU+dI109BOEa1Uk1QSS2kT3DWKMgXbKAQx4ofk6TAfqTSpzEoVY6n4FyMKDRO6ZIlMoWPwlUQRwAKmdPH4JVayOGwyFHKXwhRMdA6N7OFIzGp5RM6qkEf87iv4enO05kRRwzy8YQcVIzvkDS75Eon4IceRkKtCpeHtJ66g4PnAjpQxNCzxIxUpM1SacoUmOu/g0WUEyJZAmK3kAW8EBDzU4nxpT6nCFCKGhictK6DFEPkcR9ilS5E857RDW2E7tGGToeBVjyGfg0qa7xArrUB1PfGqYNJJaFTbKESaQI7VBkdypkJqnFeDMqOG1mG3fSKgCALqaEvM2jb5oHFU7n2FIml2nJOJQC7tdb/N+VCpVZ2JhBllCo2kHjeYIZ0UB6dSBslALdTz+Hl1GmUNTu2gWkXqY6eOdQZ6pcns1NTm9QO3p4OJgXxg6/eB6TfyzD4d8e6ufAvvO09HeWX+dfkK8ix+NARkC4FW5mWDDvKVObgP/1zlaQB1BF+l5MXlMYUHCBw6zFCeGxSg2uVJ1V8CTvH83MGAKB7Q/PwRA7Ty9SMmQOb236zPyvHe+VnztbVPGATgN+0fRrv6m/4NtO5t4yfci7eGCXYn3jbxzyrMXn4Z6033EpiV4T2EaHcugOv3Owk8y3vCvAsR78g37OmUJ4x33rOD46BGRxVJUb6zhC+DAFwrKusYl2HGnAA2InZfPiFBzrxiK7YdlQJW63jfNjLiiAJBH6Q8gJoNAFwVEoXEpkgUNdNOy4ki5IyuM6EjKtpmZnknCZzslnkH93IiWeB0ugDZzcPvR4QdiIT7jbX5yxQAmJlDH7GSNx0w20hKod3bmg5cMVEyVxJ2i9440TuoFFAodJBQAtLj1Gj59vYSBgnmS7DhY8VotSiB5LO3yBl2MFqhsonOgGGF7xClAsfn08SsowSvkMGLmm2Kpu/JQMMqFhG/VSR+8CvikQqFYTOcMeWV+h+NjGCw5sHC5pXLYAJarUipS9pUQs8QFksemwCVJVPyu0wy5hQtlY4qPF3SHEul81l8xsl0VZrTnsFYTiIfP6YxuF4VjMJMiqPe30x1WQ+VAk6ma6XTk7jhkLXT8F6a9DkfWqDTRO/SYfLQIn3j8KIPrKRx2uAsB0Cg8dGddsy45tBGHKdlNH6rQhspta+QcDbQA41W1XGAVSGO9nyfCSAGOHmiBWjYfJXPfAiMXlvIH335ynDhxn2AI7KluyLnCVisFvJN7BMQLq7dw4E8nOemezhQwKe1TsdLe0+P/AKQ+tf26kAesmZp37j8xkCMI216qaX9JFm5J8/gd+88rGzu3Vfpfbf2ZDn/3qfi+/L+x/Vd+tv56enyrH37O75j+6fLG3j69B8=);lineShape=1;strokeColor=default;" vertex="1" parent="1">
          <mxGeometry x="421.3723196095916" y="162.00775696658445" width="422.6434971986771" height="273.02916610027125" as="geometry" />
        </mxCell>
        <mxCell id="lsgI77zBe2tgthgqGCkg-11" value="" style="shape=stencil(lVnbbhs5DP0avxK6kBL53O3+R4GmG2OzSZGme/n75cDQ2KLGx+hbMtYRRfLwIupUP/14/vL96VTSj4/3tz+f/jl//Xg+1d9OpZxfn5/ezx/+16l+PtVP397en/54f/v5+vXy//cv28rtr7/e/t52+PeCSyRlA5X03/iQLx9+vyx/Ob/eLM/ENi3fPxwuL9T6tLxSqfeXM5X5MEK131/eKMu0vFMHuyu1Op89EQvQNVOf98+VWAHAj6szoJEmADDiWWE3f0H2rNRng/oXA/5yk1ibAZ0K0KFm0lmHmoZWxwCJDKqVKjhSVeoBIKTAzZyphSMp1QwATHX2NDvNgae5RU9zIQF+YKOUZwBTA0pLpjwHjsuEgBq5xArZLRLpLYkMOE466az0JrOBcPPUwDPAHQd0aIU4zQAdEX4M4GH1AXCZKL80d9xMb5fZkA5KOlvJZTZAvp5iPGwygR96iWZ1mR2QrzP12Uous4Gs0RvJTD6XyehIGh3nMhMDgMW83T3KgVk1Uwk69JGcjwFl7LcDPD2DmNY6MukOMDJgJeXx8wD4IROIBxXqs6f9kAmwVdtIKjeADsyqe+rdARVWIAfY7DjXKoF4UF2O5OxCZjXKwUpexJAONtLWDcAANcwjeOaS203Bkcy5FAB9lJh7AJuzhpuhgniwMg6wAzyfI0Al4QhQ4Dhj4pnebgYDjjOhNDvOtUJpxgF9Vtq1goAWdXCtUF6yPorsDuARIccAHUbcAYIlaOTSdkgQ02ajOd0BHlKISxY97TIfAKxEACN6WySfAzoA5JQozSHne6Cg3kRIBPADrVsENOQ5iy3ZtgUGyCIB8ttiK/AYUHg5EgbkRULDgNUPjPKMxl76KvMuYM5kGzdAs2G2RJCO7HlXaY4A1GFtZtUISChGbVSom5BDbeVm9SXkEmZrX6yEeocrEW4A6J64UW2RgLrEoxjVR1pHEQbvKAdKGOz6DsxksPu2pVJvh8SpLLj6xg532bQoYagIrXw1mC1/HaCjybtlE9Khjzv9DcHR/dVrVHREw+lYFm4IrilCORyJR/G+224stR0m/LrUxYK5UcYV/bY/Qdm1UE0RgNpvW6Yt3jIJ4lJeWleD7ffWiYa2TyFbfT/pEYBSmf/cQp/YIFtV4wjLARlJ6MuRBBYt38/mkuI3AlQWHRAKr19SDB1Jlga/UgLpWHm5QhQMqIMIOyDhu1+JVa7j5LrtN0vouAb1pZ/ZbuVojtBjAHWBhbcvfugV3/J5/LwDMrxS9xK51AxPKlIs7Q1PXJsuEgTmpdbifLlVPM/hkat3AJ5ItxKvEGKwY5KlmRZ8f5UlRMUPCcwqMsZuOyDD3lhq1IGx47ZJ4Mwl7tTQQFRjjWPBgGUmxXXMI+/NaEP25oxHrjl2J9WgWauOu+QOaHBWXiV2M5VhX1nz4OYOyDBErw8U+zQeTyrKMngoPJqJey8KoXUoGc5zsvca4VXEMxUC5NgvZR6+P86tQ/6+PsPuR+KEFs+9awzPBvVd2hIek8tjbUc13s0JBxTLhNzxQNUUe9UMS0KKt8ME+ZziG0WC45vlypPgA8XB7uimmsbA+bocET+Nich1OXJTim1Ugj1/iu+MCY7/UuQMvhWl+HLzaDnHs6PZ/C8+2D5c7n9c34a/nV9eLk/Lt7/Ht2T/dHmHrp//Bw==);lineShape=1;strokeColor=default;" vertex="1" parent="1">
          <mxGeometry x="429.3852240294575" y="214.59187090356897" width="427.98970278511456" height="220.51723737296913" as="geometry" />
        </mxCell>
        <mxCell id="lsgI77zBe2tgthgqGCkg-12" value="" style="shape=stencil(lVjZctpAEPwaXqf2Pp4d5z9cZRyoEHBhcv19WlEWMyPRSd6E2N6do6dnVpv48LZ7et1ugnu7nE+ft9/3z5fdJn7YhLA/7rbn/QVPm/i4iQ8vp/P20/n09fg8/359mlZOT19O36Ydfsy44qWVCRXcz/lNcJLb7zcfZ8Bhf7wB5CjNK4AvUvp9QIpSgwZkcf4+IEYp0Z7wZ4tVQGiSsvYBRhJAzBYQnZRKnHaSkgZk8cQHhDXosMY63qwCarJhjU2Cuw9oMMCc0MWTPPQqWYc1ZSnkBO+cOKcQuYtL5AgvXYepeqnEptqkNQVoQTxhX0HmtBPdSSCJAF1d14AsnaQ6OZuI3scW62RyY78rXd8Dtx7YLtUc0Qbl150Qp6PUgyTidJBYFkEiUXWDB9csgCuZrTe8aEkSCRH21wrQ/Kine/brnIEnTABQCpoUtVBmN8k6PjVLJPH0MEg7jHLtJKBQuN7sCYVEFJQI5gToBQEEL8WUWpfCOIFCMEkINGkABM1SSA7rDEib8aE1SqOJR7pyICBMVX1dAAItZh+Hi1dAlE5MQmXGxXrC1GJFeDKI7B/FLzx2zAFxZRFSEiG3WI+ckcq56sItKYi/YJ3hdZfM1HRRmaA1sada5ZrqhiijR4B0J/9bZabRkG5rn1jk26IyCzdpFcDGlzyGlWsSkBYSVMweuVoA7Wl1FO5NGphA5mYVvobBrPU6aFbwSqKChw5gppFcKQAnFJ24XKh+4W/TZTP6BMkDBtWk85ADpQY6v+nLqQ2v7ql8NADMuiSsHifoKEVeD9Wun2YHpi9Oom4jmLU9a1SY2HQaigRiUAxSNVf5bJSKdG/WeybAwdqTJBKHK8Y7LRhcUMH7ZGYvKngVtx29P0LcmeIlydoBTBuJnQCB0xoJTWMpm64WmtcYTxoHeGNSHVG457Q3d0LoAaPpYnqZ0kwApdu0Ta2RXcCqtGoBmRAPNwvTGKZmxwCLTAPApuz/vmr/AwAP7zf7l/3hMH8YuP3ffgnAq/krQnz8BQ==);lineShape=1;strokeColor=default;" vertex="1" parent="1">
          <mxGeometry x="738.4430658325643" y="129.8175830444818" width="25.855964630505696" height="31.505339704977473" as="geometry" />
        </mxCell>
        <mxCell id="lsgI77zBe2tgthgqGCkg-13" value="" style="shape=stencil(lVjLctswDPwaXzEk+AB5Ttv/yEycxtM0ziTp6++7qoeqCdk7yU2WtSKxWCxA7dLN68Pt836n4fXt5fht/+tw9/awS592qoenh/3L4Q1Xu/R5l27ujy/7ry/HH093p9/Pt8uTy9X348/lDb9PuJikxQWl4c/pjpq09O/OlxPg8fB0BlAAwgRIRXK7DkgqqUyAnMQqATTpNgGKSgzXATlLTDOgS+sE0CTMQdcmmq8DSpBaJ4AVMbKlkiTlCdAqpTUXqToBug2iL7OUpM+A1sUKAcTNllQyWUGb5DkPFqWSFbRImFmqQYIRQJTupGHSSR5iF22z+Kr0SAA2lHMmb1MCKCPEAcCdTFbQIHEOGm8gzyNveU4DOGLi7r7egnRSPTWLztq2kZWLz1uVsgm4EkCzsd+V0ipGpN1B4MxQhhQZwLy0UX+ByKJ3Sc4x2mD5cpZD8EHUShG9DZ2t1cO13bNfoSNqIoxWpMwuhjUbM6UmcVYSeDAG2NQnVigkBviuN6XKbS8OTlZApkEjsaV5lirbUhSdaYXtMW0ghjYHDSc2tqUiqc+ATD0GeXCJa4l6fY3D5M4AhfSrWkTNb0mJi6GdRQdAUROWLIyKXAFGWUIrKE58YRjPNYBroR2ZIXMDtlSdNAotUQRtruJs6PcarX1TQErkXXVoc/XKwN0bg4gWv0QnPbRUCckDAgNsJg1EnYiYUEF5w2tkK4SNC6gU0iEAaPMKqNHOWNJNURtNdcl+NIG+Mym5Yr7rooLYTInJxZwLpGFV1/pu3AA6U99HAbZW5ApATZGg0aF0Tpwl6sbWfZMDDSzTy/DgWnulHaX2MfqfnR4CoxXSmOsB00YlgKUe5hUwNHYCwOnBxbBMfCQGHGi2IyLzGQDanAfMiIXIO+UNS5mfscwbE84TkayQNyYA42ENAnn1s30bQ9dlQPJ+v3RFRutawSugjWn/Gktu2IB+mRlr99KoPHG6avNsrmQVB6k51yiRZjqqr+lFjiyG8e+qDD7eR99/QDPLQhhHwncqbzNHQ+ydvt8ximMpM+5N70ES2fEHjugOJ42n2H9rwHGpEIvMI//vtKPq84U7kXTnzZkbz7NjRkTC1AOYx8dLhkqP0B/9QvQOAC7+f5C6Pzw+nr5nnf/vP2Dh1unjV/r8Fw==);lineShape=1;strokeColor=default;" vertex="1" parent="1">
          <mxGeometry x="826.2654401014674" y="335.51525385559285" width="26.177451663820193" height="33.54717157638186" as="geometry" />
        </mxCell>
        <mxCell id="lsgI77zBe2tgthgqGCkg-14" value="" style="shape=stencil(7VjLbhsxDPwaXwmJelHnNP2PAHFqo6kdOE4ff1+qC61X9HrQ5lCgQG8br0YSyeFwsptw97p7eNlu2L2eT8fP22/7x/NuEz5smPeH3fa0P+vTJtxvwt3T8bT9dDq+HR6nv18e2sr29OX4te3wfcIlJg4Nxe7H9AszRffrl48T4Hl/WACyvi4DIDoqfBtQPIU4AJKQByeUQtkNAN0i1dsACeTHGKSSzwCgMeQBUB1FEIN4qnUEMGUUdKVqTog4S5nSGHTNPQ230ioGoGmNoHDZZqlWYpClVEmiBQioQwrEIzW8c+RAEDGTsD0iCQA4kmSjzuk2IKSe9hlQ+i3XAZ6KSVOiBCrHtbN5BgSKIE1cqMoI0BYBJ/g5J3NDBEogBp9t0EmLj05Ivec7IGipAwCIJRPrlTwonO+vZ9noO6yvrxTH9VoXwG4lqx+55yiA/XOlks16B9aLvhazHvWCKpAbicq9X1fXK8kM7RJshHqVH6EK7q/rDSU8d8VZB6j8mAIkqqDCTULHCJQkAgBypWCa04olL4+CpKSooPmzJ+ctQJDk+U6CxZUyoF1kWzYNOoKgQ7aT5NJ764B41QgaNLiSKh6PzBMKgEna6dHMZzieVbOTyVHfYD2nymzbmRncR+cUe7MezRCdnCWZ9RHsL7q/mPs7wAlVc7HKBTtTKI33KT0B61J6mZGLCgfUaWJp7WOfo+sAZakhXcFqwbY1GwAZJLaerekX0McifeQtJg5Kk7pCQ7tGLND8zUaOJ6h+IMDfcYVjK7zHFcK0vscVXpm8/67wH3CFfO0AKpy3bQ6MMaiNRJVTS5dHfreBCtLqg2VfjH0YrQJcJ/OsGkpHuN4opWqxAzly3R4sDQOazn1SzlStUCeLbR6d/gz2V89l/IVadQHtqbJrhltzYaB3NARDo+YvUCs4+++5ApCTVwcTxcbgUHdeB12w98/dICzSilQvOVuH5v7Blf74q8dvAPTh8pHlaf/8PH2jWb63H2X0p+mDTrj/CQ==);lineShape=1;strokeColor=default;" vertex="1" parent="1">
          <mxGeometry x="475.128267029658" y="195.1267403589079" width="7.845465380807809" height="23.36892104188155" as="geometry" />
        </mxCell>
        <mxCell id="lsgI77zBe2tgthgqGCkg-15" value="" style="shape=stencil(lVbLbhsxDPyavQ4kUc9zmv5HgDi1UdcOHLdN/r5cLLS2GHuK3NYyRyKH5JCTPLxtn143U3Bv59Px5+bv7vm8neTbFMLusN2cdmf9muRxkoeX42nz43T8fXhefr8+zZbz16/jn/mG9wXXBFJnVHAfy0lGWw6+L/b73eHavqKlwd6XfnIT4J2DcwNCPJqQJxJaGwAxwbX7gFohZQCkgkpeKA3zf9dBV0R3H5CDBVTljbgUC0ocAEp0ioSmjJJHXi/E3UZ4yJiJ1iCeBIE0xtAKIrEPKGMaWkQiDjkk449DJaWk4RlOtfQYRQjF5sCR+yP8aK9pLyTetQRW+wJPcuw1ozICEkohgGYjVkAmjGoIYlzKNASNofoRoP1KXJLQKVxJDfCZAKSHuAIS7eYZMMZQGyqhVdWhji5p62TyggadxheaskQkKQjayNKsauQFX3uarlqNlqrAewvIpFYrnFiPPMtbp3C1T0gkbf6TP5pmEsAnzVaNDeR+hzyqV9XSZVUBN8pjdV3/7mhXNb1ceg7viaORU+0cz9R07fWr3kzsha8CpNpmzqW3xk1Akj711rGWe5ncJilbBZOGSFqteLixLFRxEilTfcGZKSVU43PqI2kFeMRAASYGbU02mTPEjHJE5lC1GhwRiH1x1p+ASBqnSK/7NWA40shalnn0xyGQ+7VPTFHwLaGua8fFXog/OoONvvtO8G37htQMP5X401Tdo+G/sGXwq/vpf+3147IMv+z2+2WXvv7fLs96tCze8vgP);lineShape=1;strokeColor=default;" vertex="1" parent="1">
          <mxGeometry x="484.2063967593499" y="203.3866573549759" width="15.295901409263024" height="21.221714176942555" as="geometry" />
        </mxCell>
        <mxCell id="lsgI77zBe2tgthgqGCkg-16" value="" style="shape=stencil(lVjbclshDPwav2oAAYLnNP2PzMRpPE3jjOPe/r6iLo6lc7xp3uxj9sBKu5Lwhm9eH+9etpsUXo+H/dftz9398XHDnzYp7Z4ft4fdUT9t+HbDNw/7w/bLYf/9+f70/eVurByfvu1/jDf8OuEkU+8DlcLv05OUKcvfJ59PgKfd8wWgNgoWEBu1dh1QFJAsoFDIEBCDPZJQqhCQowFwodoBh0rFcuBONVwHtEBVLIApAg69ULQ75IQBndiSHnEr1wExBAoWIYkYsO6VejaApqcEmdOfQzMApVXidYBEatUCOkUAqJHEaeON1ioiq9i636KBwA4pZE9CAGsVmwcEEkAiBUri4/pP8uupSxQsQCpFBgKf8p/rK88tV9cHyjZvGrUK1zsl5QrFqu8vdj1TRYRnwM/rIzHQNlOz71d7FuRnfx5uVICI1GvRr08gw5qwuAAIMmem4hgH7OYFBQ1RB5SjUGELyMSgSCpAFknuKGn6szuSxg0YR8s6W0CJsFxE9j4o+gRxCJPiBaCBKIk3gq7v4ESZZPH+CISUKNcFY2i0ln1IMyAcZjjO6wVWR61ELsfazIGRIyWX4gQTwL73q6xRfdd2sTAmqr3NK+g9Y0ZPWAEZaVT1YhvOKC0oQmUK5sKYCRvTdQMtjnCHjwJUdWKtXzTOwMlqg25tUDNs/JpVNx/pmIjyNvqLFbZ0WOFrmBTPPTPMIe7aaJGa3yEDK4geyXpHx6MOjiQyy+E5SmEOTOtiZT9PqfsFuEd4kTiZnWjdPt3LezxB9avOMfaigFUAUPWLk3eajWUd0Ba9NsKuMHawpPW+gOQ9Zg/nB6ogbyX7+wWeIKv4G0+cG65nTXVm1zc43bU6U3R+vxYdkIO26FJadCLQUVuUSe3VgpSqVVd8DlDfGQAb09FaEOnm7zsaVTRdKOnkdmB8pELNchjdGpHOPg/ajgRd8vT6ZP2sg2VC3UrHEfEA1G5lcVFVACrEei9wc2R65wb20ev8fwD0w9u/Bw+7p6fTnw+Xv/t/G/TR6Z8Kvv0D);lineShape=1;strokeColor=default;" vertex="1" parent="1">
          <mxGeometry x="428.22478813075963" y="359.79383028250675" width="27.015602251748987" height="30.338126014223235" as="geometry" />
        </mxCell>
        <mxCell id="lsgI77zBe2tgthgqGCkg-17" value="" style="shape=stencil(lVfLctswDPwaXTEkSILkOU3/IzNxak9dO+M4ffx9oSpUTcjcTm+yjBWAxQIEp/Dwtn963U3s3q6X89fdj8PzdT+FTxPz4bTfXQ5XfZrC4xQeXs6X3ZfL+f30vPx+fZot56dv5+/zF34uOCZfZhC7X8sLX8j5P28+L/bHw+nG3jtyuQcwOTcGcKSUOkAkAfahkITO3lEB9okpJGOP4pFMEjt7piJj+1xJ+u8XinVsX2oLdyVIyANAzeR7RtUDyrjq333NgpBDHuqmBIHmn+Mirxw2RIpUgCzqhiVJ5BPM+oPFBsixFfI+IFDpdVE8FFJZc2yAmigGAHBNCCsgUwKAvMlBafjojvuAQDFbQAGVk0rsLaCCys2sbzx4kIN4yskmLQCQKoVgaU2gcKmQN7QGGJICTEdXRwLEpyHVXq2lEIM6CJP00ijSsroPEGIzBBI5UIfsKPaFK5EiYEnVb8aSAjKQdy6U2IaUI5C333hQ/YLJpw0kfeF0tgmgVSMOph+41X7kIfch1djmyCiHbOQtbRiOWMqmgQqUt9bBDoHaPjGqtDmvbqbnSExx4yKCJFSuudokGHlw7Qy/oYnBnNGWi30HaY9WULm5qU3lPNS39igb9VW4aNwHoNGXiXta9eh26GTnxvoK8BRQqXWV6T1IhHXIqQ269RhNMGn1kPuQYiSPPOgk66URNCswBUQbog+J164d1cH1c8ZncsBD3AwmHygBgG4vJmmf4MbE0lhfAbrhgAbSndZsuZzgEqcrWzQsCSW0Fkd7KvIqx/sAT7VYgKAlzrKq9hntGuS9tU9ASTr3ss24or2earT2aOr5DaPqEQwMt7EPjYGBvdlYNUK0FDu7legbASp1dsdQzaEC/+/F6t/2+vD3FvdyOB6XS+Dt//bWp6+WG2N4/A0=);lineShape=1;strokeColor=default;" vertex="1" parent="1">
          <mxGeometry x="474.9931747644671" y="186.42728906437333" width="21.683491931925573" height="36.65408916105889" as="geometry" />
        </mxCell>
        <mxCell id="lsgI77zBe2tgthgqGCkg-18" value="" style="shape=stencil(lVZBctswDHyNrjskQALkOU3/kZk4taaunXHcNvl9qWqkCnIMVzdK4hLYBRZixw9v+6fXXUfh7XI+fd/97p8v+46/dET9cb8795e26vix44eX03n37Xz6eXwen1+fhp3D6sfp13DC+4irCs0DisLH+IYTMv1983UEHPrjAhBDQAgGIQxJtxEtBBcD0AzS24BSUWyEkiHlNkALghhAZagDaBmzWkCB8m1AUlA1gIUOnyI4IllE0yE5rKNC2AIiuDqsES3pQkjRCYBoOWt0EwpryrlCHcYJQmZ/KuDs5MPTcXPrFYgTgATZZsQ+gxRRbUpNNHUkygUxbAEoI/FVSk7nFQHHK9JOhJrX7hlkFQdQp4yXdfMiFBTLQX0OlVDSVec5M6N95pU/WwSn0lKQbR3umCcTZKM/ZZJ9OQIcEs0/deXP1sCeoQOizWkYYw6A1hkNc9Kp9KeD2BliWwc3gTb9GubTZvMIyCmBTnrPNfM7O6ZJjhnQ2sgBNAbFeiejej3BCHZEEoLjnJTWCvk9lzNUNuwXQU0b8tH2S+ANfFs/atoiaHM+WUHvlKzK2vl3emLzfeQ/AG3x7/rz0h8O4+1p+X19XWqvxqsWP/4B);lineShape=1;strokeColor=default;" vertex="1" parent="1">
          <mxGeometry x="621.5871089915688" y="304.4916252773709" width="4.025855259049877" height="5.528364092400352" as="geometry" />
        </mxCell>
        <mxCell id="lsgI77zBe2tgthgqGCkg-19" value="" style="shape=stencil(lVbZbuMwDPwavxISqfO5x38UaLoxNk2KNN3j75daw20oJRP0zZY5FjmcoTTJ3fv26W0zsXs/HQ8/N7/n59N2kvuJed5vN8f5pE+TPExy93I4bn4cDx/75+X97alFtqfXw6/2hz8LLjF531Ds/i4rmST8X3hc4nfz/jy+UGET7wtldx2QA+VgAKIrHgAS1WwAIZNjACg9IDmq6TqgeCpia/Zwh5qpFgMokXK8DvDOkXMWUYkBTW2LZACVKYEi9LOzOVWcU+Fhh0IeAJSUaHmtlRKgKVZy1Wrji4eLiJD6TugWDOQnaag6UwAAHnlV+WUAEBIr8Ko8gKpZ+xRtqwtUE6f18ycgrL+4XLSQs41QBaNWBwXYorN2DrAUQ8+SmgoVnTJF/x2AJhDcd1JSv0gdikaGSBRkoBUBKuXO1do4kFId9N2kIQAQ+pSa+AooOpFYlpq8kUcjRTtdm4EAIAmxLfqWR6Oj4vst0BgQbXXnIDxoxJF0O8T10LjsoLB6/nxY3gDEAYBoomA7nYUCaNwwltoRBOJzLz094xhwquay+Uhch/OVfJJllD0FEO+I+8lNHohiPN6ghj5tsoZHqqBdYWAH+7I/p5gCuGD42JPjoTz1d9EOR9UrcL3KuZvv2GCSew8r96BXQcda7eILyD/6/jTwUJsxEVs+hSLIX6Xu+u4KOjsuXTmRF29eUfXh6377Mu92y/X4/Ht/H9al5S4tD/8A);lineShape=1;strokeColor=default;" vertex="1" parent="1">
          <mxGeometry x="622.9987217029363" y="327.3926532151271" width="7.056048720257422" height="25.30134328771362" as="geometry" />
        </mxCell>
        <mxCell id="lsgI77zBe2tgthgqGCkg-20" value="" style="shape=stencil(lVbLctswDPwaXTEkCBLkOU3/IzNxak1dO+O4r78vVI0cgZG205tEcYXFYglwSA9vx6fXw8Dh7Xa9fD38HJ9vxyF9GpjH8/FwHW/2NKTHIT28XK6HL9fL9/Pz/P76NO2cnr5dfkx/+DXjaqKkE4rD73klKjX5u/J5BpzG8xrQSIMDSKBS9gGtUfMALRQDBHBxACMZGACEgo9gJKWCHIRKcwD7RY37AGXi6gGVBKiUKwUPiCEsLDcRkih3IRolkHUKlHzWrZDoPiA2KuwBkRRULjIV742al5VtQKDoAVqpApksQvJJm9JIJcuh07VkGIEb5ewBkUICdWDS6ABTLTMotVL0lGyFASWNi3VWEdAJqh/8XXgRevtAmJd8hKIkwN9mtdAVLlEF5lu5+e6NQAp0NXOy51SNEwDU2utqaTHwhrWVzq7NIoDKmYrNl9p0QDlIpSQ9oAJKSUhaT6kASsxLH1olnUHloiyfV7KiVmZnVLysNVIElLYBwK5WJX/iREiBWz84ieMyMXb2s8/YJhaaJ7w0iPt+JgH8ldS3ybrMo90KeH0Emsj0CZ6/tbwG5GTKnk+Aw80aWNZuP2qpeWN/Af+3/tmk44/4qA0Fzz8Tg3ynY9yNf2rAn+9uvNf37sBtwH9fef4NsIf3G9bLeDrNF7T19/5GZkvzbS49/gE=);lineShape=1;strokeColor=default;" vertex="1" parent="1">
          <mxGeometry x="627.199643141977" y="356.39010055905476" width="4.7987741057802396" height="10.090080293050505" as="geometry" />
        </mxCell>
        <mxCell id="lsgI77zBe2tgthgqGCkg-21" value="" style="shape=stencil(hVbLctswDPwaXXcIgs+zm/5HZmLHmrp2xnHb5O8DRpFrUBZyo2muSOwulhx487p/fNkO3r1ezqdf23/j02U/8I/B+/G4357Hi4wGfhh4szudt8/n05/j0/T75bGtbKPfp7/tC28TjpyDcw3m3fs0lQgufM78nBCH8XiDqBmRFCAzojMADr4qQAlIcR2QK0jvUBnM64AUQUEDCpIBCBWFFeCGh7sIDsi6COHBl3WAJyTNq/CQ8zqAaD7ylSYCGTRFVL0+VQRvrSd9oJhQyNAN3qv1wZaNMkpWACHNW5w6kN7BJ8RkyCYidACPaBljuYMNyLIDLY5kqFYSaloUbbEae180Wo2ia+2LbroZNYj3S1kYwwIwSAOa84wjFZ5LvPW20QxZmqsD5DkU7ns1oGovfdugFUkjvskA6YfUdbSdMhQQtRAtx4ykzOBFUAaj6ICiv9+S2Eqxe+uN8zhUfZ4oMhveXtwMwZnG8yAdSNLgyZAsg7QAkpnO4EcE6AKGPIqRSMJQ7iISbPia05xX1w1QLcHEYVoB26Oij4/deuvmFL+wbkwxkBVGYb6Srg6dCVhrfO6uQblUjD6+81rw14vxCyGD/4+N3Xg4TG+V2//7x4lMTQ8bfvgA);lineShape=1;strokeColor=default;" vertex="1" parent="1">
          <mxGeometry x="627.0187439176016" y="381.82184072440157" width="4.161947590109548" height="5.075841436739665" as="geometry" />
        </mxCell>
        <mxCell id="lsgI77zBe2tgthgqGCkg-22" value="" style="shape=stencil(lVZBctswDHyNrjskQALkOU3/kZk4taaunXHcNvl9qWqkCnIMVzdK4hLYBRZixw9v+6fXXUfh7XI+fd/97p8v+46/dET9cb8795e26vix44eX03n37Xz6eXwen1+fhp3D6sfp13DC+4irCs0DisLH+IYTMv1983UEHPrjAhBDQAgGIQxJtxEtBBcD0AzS24BSUWyEkiHlNkALghhAZagDaBmzWkCB8m1AUlA1gIUOnyI4IllE0yE5rKNC2AIiuDqsES3pQkjRCYBoOWt0EwpryrlCHcYJQmZ/KuDs5MPTcXPrFYgTgATZZsQ+gxRRbUpNNHUkygUxbAEoI/FVSk7nFQHHK9JOhJrX7hlkFQdQp4yXdfMiFBTLQX0OlVDSVec5M6N95pU/WwSn0lKQbR3umCcTZKM/ZZJ9OQIcEs0/deXP1sCeoQOizWkYYw6A1hkNc9Kp9KeD2BliWwc3gTb9GubTZvMIyCmBTnrPNfM7O6ZJjhnQ2sgBNAbFeiejej3BCHZEEoLjnJTWCvk9lzNUNuwXQU0b8tH2S+ANfFs/atoiaHM+WUHvlKzK2vl3emLzfeQ/AG3x7/rz0h8O4+1p+X19XWqvxqsWP/4B);lineShape=1;strokeColor=default;" vertex="1" parent="1">
          <mxGeometry x="627.1870842509197" y="394.0916007363628" width="4.025855912223051" height="5.528382093065261" as="geometry" />
        </mxCell>
        <mxCell id="lsgI77zBe2tgthgqGCkg-23" value="" style="shape=stencil(nVbZcsIwDPyavGpsy+czpf/BDKFkSgkT6PX3VZqGYoUodd+C0SY6dleucHXeb051ZdT50rXP9XuzvewrfKiMaY77umsu9FThusLVru3qp659PW6H36dNH9k/vbRv/Rs+Blyy4HWPMurz5wRc+D54HOIPzTGP1zGLN3SSBIDnAGvBOQEQQdsM4A2gngdopUCpDBETGAGRAmCeUzLg/TyA3hfzLyQHQSgiRFA+B1BZAsAjYMgBCbyZB9gAJmWAmz7cRaAGm/gnjJCTDuAxBwSwUtWgWdEWQhQ+AJrVrMHhfLziJUdqsxV6NHbwGk8nUj4IgRFJiwUYDy7PKNDUBPlYDSlPiZgiqcERbVQJICBYLEkp+lFdt0VLinZcPQttJZoF9gWam2wBkRGPiCEMmuQbc89YYF4kS2FUlantqevMAWTxOHKUQn36iRXLFkD6SaxNssloNVr1H23MTDKSfbLUiEvjNcR8agurASHmalvYPY7HLyw3UgLrp7g8/SiTqzTBCN2kcTHOOVBCNnpCIBx37/3p2nGYV4qCF1SGk91PCQr524n/ygJwE2OR4/1kXHI+gd7vCuqNZKWqoJ9E3qJ5Jdr5bBmIfPjHXW0hnh5+L4a75nAY7pW3//OLJB0Nl1BcfwE=);lineShape=1;strokeColor=default;" vertex="1" parent="1">
          <mxGeometry x="626.7360245199491" y="397.8174604856649" width="4.927975374164362" height="22.810162101253354" as="geometry" />
        </mxCell>
        <mxCell id="lsgI77zBe2tgthgqGCkg-24" value="" style="shape=stencil(lVbLctswDPwaXTF8gCRwTtP/yEyc2lPXzjhO2/x9oCpSDcretDdZ1hLAArvgkO9etg/PmyGFl/Pp+H3za/d43g75y5DS7rDdnHZnexry/ZDvno6nzbfT8fXwOP1+fhi/HJ9+HH+OJ/yecDVQDiMqhbfpTQyk+ufN1wmw3x0uAC2RRAdIQkVuA0QoiQNwI+HbgBgCBZ+TRAoAoUK1ekAlATlpJvEATRRB1XZe9ClpJU6AJgP4qlUpAkAtFGvXiIWHq4jCqxBCCqpmpqx9ER9BrwJy7XutEbYuJ0qlbwQ3AIh9DRKoRgDI1HwjGpOgCErF81oVAlgo+hqqsQRSKrKKkKGELIGuBgM0QKtxwr4PNi0Zjeu6aKFWgCAqJR+hZWKkIKXKHqAUMKD4CMKkoA9aSJIfvkAFKMiM5uO8BVDgeFvGnW2YgBh02kiUlagVpFTazPoFoGQwfI3Y06ptts9b4x2yB2RoTCYg7sxVKCNNm0R9BElUPtH0GgBqSOZLvtNF5yOub4hE1QOMhgYaF2dPWXaW+RgIsFpAscFZDfPyWL5nCiAfWzZ+UmOA66fM2S5yhn4xrnA/RbbvgPqtuuT5NMI+aZjnx24RaEgjtdp9jzabdbPjJ8AB4sWgl/5CLyor/hnqvtTZzxezm2V63Sf+91L1DwB7+HuHe9rt99MV8PL//s5nr6b7Yr5/Bw==);lineShape=1;strokeColor=default;" vertex="1" parent="1">
          <mxGeometry x="628.6808999098812" y="423.47199858462295" width="6.8459181371208615" height="12.96830139108738" as="geometry" />
        </mxCell>
        <mxCell id="lsgI77zBe2tgthgqGCkg-25" value="" style="shape=stencil(lVbLbhsxDPyavRIiKYnS2U3/I0DseFHXDhy3Tf4+3Cy0sWgvi9zWskZ8zYw08OZ1//iyHSi8Xs6nX9t/49NlP/CPgWg87rfn8aJfAz8MvNmdztvn8+nP8Wn+/fI47Zy+fp/+Tie8zThBwDKhKLzPK5gA0+fKzxlwGI/XgAIcOwAzhLoOqBUidQDJkIsLyKEDFAYkB5BADKAC5XVAKe28BqgRYnSKFsjSA/QIXgfk1M5bABWqEyERCFqA16UYoBiAADsADlD7SVcGknUAxdbEpa0CJTgABE49ACE5gyOC1EcQJZ8XQUD6CFkn7UTgDFx7gE7aa6vYlDK6bc0BsJ+DrpAnoJtJawRCh60RQrI1eBKt1Ki2AAqIM2klc+wjSITkFI0hQDCSW+h1P4RAZEsm8mwDIRh+ExRP1AjxRhAemZQ6uU9JJZecCClD7W3jqg/32aRt7OmnrWYnhHpp7SehzlQ8CeVW45X3iWM0KtLSW5m6a3ZS+jYgWXNl1ahDjdD01fZrRM/ub6iH2a0Y7e2A1Oi+kj+beiE6RMXQBtT2J/c+RLH699PR43LvSAHEszw1h2r2uxwlm78OxLnakgqzd5elwff3F9tP9TPv6oyWDypjx7wmbzP5hCai+wb87SfP/wH68fXC2o2Hw/xAu/7fvsh0aX7N8cMH);lineShape=1;strokeColor=default;" vertex="1" parent="1">
          <mxGeometry x="631.1248252373477" y="446.7207484679466" width="5.799634088002676" height="11.46712553462703" as="geometry" />
        </mxCell>
        <mxCell id="lsgI77zBe2tgthgqGCkg-26" value="" style="shape=stencil(lVbLctswDPwaXXcIgs9zmv5HZuLUmjh2xnHz+PtC1cg1GAmqbjSNFYAFsETHd2/7h9dd593b5Xx63n30j5d9xz867/vjfnfuL3Lq+L7ju6fTeffrfPp9fBx/vz4MlsPp5fQ+fOFzxNWM6gaUd1/jjQ+g/Pfm5wg49McbADkHpxE5IPllhLjgogDFI/MyoFQU7aFefc4CcoFLGhCR0jIgMThrQAXRMiBk+KoANzzMIpgQNKIWeCNrykisAYxajaxBOumSkY060FTXq71kUJbtXZtyJhSjM65dMNkLyzUY8TCyLnOUlAyGfELUEUU/cTAfEaHqkEJFNDzEAnJbAJkReEtIJYHpW9IGS9LJzfQMtEYDUJG1h5W6SV8WncPQGEbjVY8SvnWeNdAe3MxnMIcnFcRGAezhEdbTxvlMSJqmFQmQ+anNfIrIGIUgB2oUwA7JtxGt6OSsEBsZbBVu3w7DytPAreJRARsE5XacSRrLmB0S91ETBGfphdCnHQRTX5jhtFyIhhv1CmHqycnerm+MyGWDfUqT/t/EY9Q3yyNFG/ItEWULnzL3QX9/pWBVBLsB2B0xv40Yb9R/rC9y+Lf8PPWHw7g73f7fLktyNS5afP8H);lineShape=1;strokeColor=default;" vertex="1" parent="1">
          <mxGeometry x="632.7514607756436" y="464.45185907898167" width="4.0970540346502275" height="8.058934980731692" as="geometry" />
        </mxCell>
        <mxCell id="lsgI77zBe2tgthgqGCkg-27" value="" style="shape=stencil(hVbLctswDPwaXXdIgiCBc5r+R2bi1Jq6dsZxX39fqhq5BiWhN5rmksBiF8JATx/Hl/fDkMLH7Xr5evg5vt6OA30aUhrPx8N1vLXVQM8DPb1drocv18v38+v8+/1lOjmtvl1+TDf8mnGSoWVCpfB73okClr87n2fAaTw/AgTZAnIBx32AClQMoDJCcgCKmgxAIoo6AEZlCxBEcnKoyGoASih5H9AilmABFaXuA0qE2hymrBxac0XSFYD3AUTI3IfEDkspQnKfNDt1iLSkeKe1Qp2kFbKqGztliKF/oGaIk3MsiDaFIigOIDGKFWshV90kSDaHEhCdFzgtHC4AFlRHSqUi2JBYFzVuizWAog0pgRxaNUCslEqBOiFNWraAmiDFK1xAsH6ourSFvSe401JBcHjVlTa0WcoByCokLa68Gym1A+jC9F6po3XcAw/baqqQLonWXJ1KNL1SB+BFLtuV4IWUO6/q0tQ8x7bWQqi+STcATg4RZM/n1owdklZ1azvRub+pm2wVGNnpShnBfn5iRPDsA7b+bIZ1rm89qasALQHulbiP37U/cW+ERo9zPjdFxO68p1FeKSi4zaIwkr0/uYKr1LvmHuD2+WbCzpZui29qJNuA23dLHctsTzxeA/7/iNQW/wast/F0muezx//7gaxtzcMcPf8B);lineShape=1;strokeColor=default;" vertex="1" parent="1">
          <mxGeometry x="632.8032419704207" y="470.80818135654886" width="4.7006389818348" height="10.287967475966525" as="geometry" />
        </mxCell>
        <mxCell id="lsgI77zBe2tgthgqGCkg-28" value="" style="shape=stencil(fZbdcgIhDIWfZm8zQAg/17Z9j85U606tdqz9e/tmZ0c0uJ47xP0I5JwEBl59bp8/1kNwn6fj4W39M76ctgM/DCGM++36OJ50NPDjwKvN4bh+PR6+9i/z74/n6ctp9H74nlb4nbmSKZeJCu5vngmZ6jzzNAO7cX8FVKEsBuBKrgKg9oAE8gkCbLeUhEoEQKSUDZDLeWYRKIl8MEDRmHwfyBrBG6Amyu4+kDxxMoB3jhwgYu7TVAsVkFcWCs4CTBEoF4RctKeOxHIf8IXYpikHikAIf+MNUW94AGSSaoAoFIE3AlOyeWU+p2E5S9yfQZcQILVuQOwZdJNoS9Ls3wA5u2XZTIHECqeJ9kDpSaauRiNVcAY1QhdBzeLBli5WazpkSsBLV25uRaqWRyFawTQzRRIQYirJzq5atkBqLfouwqUxLBepthWb10vrWZY6UOAeyKCCtDV625mm9gmUC4Wc3VLJMMIE1BsA2FW9JraVlQB7n3c9oMKhCLEvIM1zBPZ25/umNQ1tVEC2G+fFCC8g398O2hNQuQlVu752DBfA+q0ptnqO5JFmeuIuo9DY7KjY71UxdJV4EntifPWorW++R/dC4t7V3DlIB5cHx2bc7eb3yvX//QNFp+bHDT/+Aw==);lineShape=1;strokeColor=default;" vertex="1" parent="1">
          <mxGeometry x="354.26795473896004" y="312.2753063550035" width="4.672539772115442" height="4.665236216357698" as="geometry" />
        </mxCell>
        <mxCell id="lsgI77zBe2tgthgqGCkg-29" value="" style="shape=stencil(lVbbchsxCP2afWVAEhJ6TtP/yEyc2lPXzjju7e+Lu7Np0M6eNG+yzEHAObBM+e5l//C8mxK/XC/nr7ufh8frfsqfppQOp/3ucrj6acr3U757Ol92Xy7n76fH+ffzw83ydvp2/nHz8GvGiRDbDZX493zDVPrfi8+z/fFwemOfKvU22DNv22siTsE+UwL+zYh7sBemrNuAvnpA/IUCAEolZuwpaAIAI8kxBaGSAaBTjTUqhQwDugaAdsoCQ+olAFrGVarU4gumpIC3nqlyAPRCpQHiOlnkwbPKoKwewBqgIAdLi9JeAUoCmG5GLfJglRQB6pLia1kL1QoASjnyUJkaYNoBJcq7VEoI4P029E/CIXUqNcrb1YrLahHgDdQQ066lAeAzAzUQj+LzqdNADjepSQQ0qkjejfKQdFvKsNVxaeCBSWwbIMyj+rS898SQRLVF8VtJaIzJZCncVplaHExdqKOmFpKh5YwSAFgjGZhjPO8/jlCmFOexj5IMWmL9CfI6GRDs+hvngAzItpE58xjBOPZJFolrFRLnszXG0wT6l9F/zdSBPVONU0l1qfGG/SDt4hlB/4N9rsSgFVbxOIUKloBVvt7+Hfhf1dMHEpqRK7506Yv/k4NA7x9dqd6398O//e3pcDzO69/b/8d9z6/mXTHf/wE=);lineShape=1;strokeColor=default;" vertex="1" parent="1">
          <mxGeometry x="403.915003043576" y="310.6742521595886" width="18.819025084371788" height="5.192686804645632" as="geometry" />
        </mxCell>
        <mxCell id="lsgI77zBe2tgthgqGCkg-30" value="" style="shape=stencil(rVbZbhsxDPyafSV0S3xO0/8IEKde1LUDx2mbvw/VrbIWtZ6gQN/24IjnDDX5u5f9w/Nucublcj593/2aHy/7yX+ZnJuP+915vsjT5O8nf/d0Ou++nU+vx8fl/fmhWtanH6ef9YTfCy5RzBXkzNvywUby9s+Xr4v9YT5e2dtMofSARAYAxIOP2sPfIzYBwRCnHuAp+duAGMmpkBzZeBuQmLLyYMmAkNhqgMH2oflf7TMIiKVGfQZSU5AxF6r/VNcSADCFvs0uUwYZWCMZmg4RLHGGLlSNYqKAYiqU+5hqXxwAZLKhAxRDHoUUWxU/AJm8AQBHqQ+pcAtyG2AaWa48RJBDKWSLzqEA+pTUzmuALD6Rh0ixb1zMkA0CUMMUpAwMAbkHuEIBeUjEfeNkXBklXRpdVj4E1DfTRnPlGyN739hyxWdkH/VceMgemdQ0CEzB/LSqpL5Jwi0A94PnP9hxE9BzIYqooZxZT2qSyUIesm5azuRwVZUAyGRBxfBaxYSe/xUgEYd+UqvUgkndWCUGz9K4rcQFA7Ef96FUGtFt3Lh1fkFI406vyglkb7g0rK3cToFYnR9gQNI27u0tWXC+G0Q1NgJuJ6zZlgt5oHhmWM8MRXvYncl8cr6yjwYq8BCP7GYH6jPk60XhgboM9XRCTLBzhn5Zhvou86DsE7wS/usl9XN7eVhvxE/z4bBcqK//6xu0fFpu3/7+HQ==);lineShape=1;strokeColor=default;" vertex="1" parent="1">
          <mxGeometry x="458.25468501344517" y="310.61669966598583" width="32.66376560308686" height="5.37135310501651" as="geometry" />
        </mxCell>
        <mxCell id="lsgI77zBe2tgthgqGCkg-31" value="" style="shape=stencil(lVbLctswDPwaXTF8gSDPafofmYlTe+raGcdpm78PWI1cg7Q2yU2isMJjgQWnePeyfXjeTMG9nE/Hn5s/u8fzdorfphB2h+3mtDvr0xTvp3j3dDxtfpyOr4fH+f35oVm2p1/H3+0Pf2dcJeEGCu5tPghMVf6dfJ/t97vDlX1IlGQA1HVArOSjBWRybh3AgYLrPXBcB+RKbHPwhapfB5RMsQNQYmBfqXhj72AGNQ4ZkGRgn8lXY18pJWBfls+X+CtFUKGqLFtA1IwDBFQLSOkjgAsGwJlqAQAhVwwgCwkCJIrWgzAJYsGTs40nyiPo1CJ9H8mlDLcBiULuQyqgSkWrPiSNpk0D4K6sQgG0thRi60GJy8hDWVrzqjUQoGjvD83HaHp0nm1IlTLgrTCFTpKooP8XyjYgjRCUqAbydjo9RdR43LOcFzlY62yx0+x5Gb+12UmdQirJYJy9u+jPhWU9AaQ1F7amqrIVKYZQsTFlFQCkYUzRaqRELGJKQzc8qtqA5waQAQA8iCe2ITXRATmMm+eq0p9cblpptKvG9dkAqEz9fm72IAehZFNoywKIHpPvhpOX5Xg7Ywp22KpbiL/dq4uYLPYlQnlxxB3JDKdtmARV1AAYG+y5wNU5xJOUka/kmzwVwNdQz6hyA1YI91eF6BYGP9cPeuLQ4H/xPvixvT78v3w+7fb7+e56/b2/rOrRfNGN9+8=);lineShape=1;strokeColor=default;" vertex="1" parent="1">
          <mxGeometry x="538.2670203846767" y="307.5351249540927" width="21.879339808761415" height="5.839063661364321" as="geometry" />
        </mxCell>
        <mxCell id="lsgI77zBe2tgthgqGCkg-32" value="" style="shape=stencil(rVZdb9swDPw1fiUoUZ/PXfc/CjRpjGVJkWZb++9L15AaWcm1BvbmOHcyeTySGuTuZffwvBksv5xPx1+bf+PjeTfIj8Ha8bDbnMazPg1yP8jd9njaPJ2Ofw6P8+/nhwk5Pf0+/p1OeJ15kZJMJMtv8wtHkT9e/Jzh+/FwATeZjFvgfbqNF6YQVuCdobQ835nbeG+JW7xQCrfxIVHiBq8fBPFkQ2IaPBMDfbIjzg3eUrAAH4ocNR4miz6QyLcBaQbZAUIuBa0KBQoCSsw1xcJQlSMogn5C2qRDjfI6IZaQCyFZkggIflm2bItRrhOETKurCpdA1plLAJWQYdIpUvAtwZMAKyX927ZJBxJQ6iTFOoUQBTaDihhbgk/EKKSOoP2XV4Vk1cCgcFPS7XwxekTGsi4HBmygrm7aP+D83hiGzCrnRTJgwPTWNpoR7k+36E9DHo3gvj9dLFPq1ifCoj+ldOw3h0xUIyGVqguqtzMlFFI3J1U4GFI3iC90+E+MfjmoEAaYr98+KoQBxe7Xm/rLg7T7/akEB0LqF/QXhO4CMI0xIJJf+ls7KqONXtql4pkMcIbuy7YGOnPQSNIqt/FETxEMeibXju0QiEFD98tQ9VyDd3rjAZbgclptf4H7vMtXFbagNTs9TSit9816UQLwzg56+hq34evml3B9+LzZbsf9fr4YX/6/vAnrq/kWLffv);lineShape=1;strokeColor=default;" vertex="1" parent="1">
          <mxGeometry x="584.6522499406954" y="306.41182938875954" width="27.43947742109981" height="4.776316808418414" as="geometry" />
        </mxCell>
        <mxCell id="lsgI77zBe2tgthgqGCkg-33" value="" style="shape=stencil(lVfLctswDPwaXTEkwOc5Tf8jM3FqT10747ivvy9Ula4AxdvpTZa5IrDcXZKTPLztn153E4e36+X8eff98HzdT/JhYj6c9rvL4apPkzxO8vByvuw+Xc5fT8/L79eneeT89OX8bf7CjwUnjXKcURx+Lm8qdfn94uMy/ng4rcczxWzGM5MAADdKyQAkU0GATMIGkCrVCABC0c6QG8UOAJGkGEAp1AIAhPG9G0mNQoVN/yFxAJpQb/cBSYgtrS1TAE2XQMWW1JgS6EG/F21JVWkF69A6heIBudwHdKZWPEsMZuhlU1KnkgFAxWpXukUqgNbeqbl1SBQBrTOgWkDBM7RR8Q3QKTJsWoIB9EgRzSB+HZRoxJIWwM0CZAj+njQkewAnALixvipJAK0qhOJ6UP0CA1Vl3bLUNEcASzVTtamhXXU8Q7TBpxZNqIebXVbiQyHQwvjeSt4ol7QAJz6ds6OF05KSB2TkuDiidz0DUmseYl73AGKmVx8CSkNHnu4bT6v4AK0xBApOG3nY/N4ULr5VTAL0rU04gMoVRl8itjSpIZCD5u/ZpZ4th4JJARtTI4BuaW6ptSvk0ZwouR46jO8UPWC1NO9viyoO14RulKCmmDdRplkFLFTGHrhaOLSNbqSkfmDQgWaxbbkkasA/mbJN1qwVouwmtu5JGZ5MYtycrgQDko/u2GGwzn/bFnDHSilb7+jmg45K0W+gDANGP+dVRwHUPy+BHR9wPdUfGbCmZXM2xIrTA3Ty4wXUL8kbP0J+pPjNnMcp6/3x1R8k8TY4Xxgsn2kk/r3xzVqsQAf/94Xkn+P14e/t5+VwPC6Xp/X//rakr5abljz+Ag==);lineShape=1;strokeColor=default;" vertex="1" parent="1">
          <mxGeometry x="530.4085650381785" y="633.9829726460102" width="20.67687458247792" height="31.652397388388408" as="geometry" />
        </mxCell>
        <mxCell id="lsgI77zBe2tgthgqGCkg-34" value="" style="shape=stencil(lVbZbttADPwavRLc5R7c5zT5jwBxaiGuHThOj78vVUGquY4myJsOjkRyhrMc5O5t//i6GyK/Xc6nl92v8emyH+TbEON43O/O48WuBrkf5O75dN59P5/ej0/z/evjFDld/Tj9nL7we8YlUp5Akf/MD3IgLf+ePMzxh/F4FR+ZmgdIJE7bACnU1AGCkvA2wBIozQOYMkipCIXka6Dpbiu+CsXg4iPFvB3fAjUfz8SggJYoVV8AxQriC1Xt8g/o+0q562jAgHbTUaUi24DAa4Vri8rShK1fdDVLJgakWREhO0D6hIVCwReRKlWUklD1gMykiAej6WYWEuirat/X1GANWiiLByRIhCZqXtqixOgPidinJEwBFD0BimfaDADMswG0U7dAaVjRKTpApYhqNnl7ZURKCmlj3yOrGMULlT4+Y+F1HRJoR21laInXxTI3R8fbSyjYXxo1z7G5eACGZ4DaqSgunGyVUDzHyQwBAUp/KqSCUzLde1HYcEIPiz0LNpwZ/cEA9SuAYrPmecsRDmc23ftpzmU5iT4EWBM7HkqE0jPTzV4aNS9i2TBuUg+YfBZ5Xu/zphUFNFQKnVYZH4Z5OfquEqpoXejPtsn3QcWRgueg4WPEzMIXoJUEuAVT9LOmATbo5uA0xhSobnXnVRKYAO53BZMtg/zDzX7XIF+2S3VjluBx8NX98fN4u/i/rD6Ph8O8616/75dbezQvxnL/Fw==);lineShape=1;strokeColor=default;" vertex="1" parent="1">
          <mxGeometry x="531.1684432816335" y="645.1210593754797" width="26.031113327346702" height="8.103584531977276" as="geometry" />
        </mxCell>
        <mxCell id="lsgI77zBe2tgthgqGCkg-35" value="" style="shape=stencil(lVbLbttADPwaXYkluc9zmv5HgDi1UdcOHPf196UqrGpurClyk2WOdknOcDjpw9v+6XU3SXi7Xs5fdz8Pz9f9pJ8mkcNpv7scrvY06eOkDy/ny+7L5fz99Lz8fn2aI+enb+cf8xd+LbhEuc0gCb+XF1EpxL9vPi/xx8PpJp4r5eIAWqjyNkAD1egBSqVsA6JQ9FeyT2jbBiShlh3AsorghKzEyQG4UdNtQBHS4AGJFACaUPA5BIqgqi2SlCFeQVFbJvUpK6mA+EosLr71EtyPb6T+PlyIKwS06nuQKYGmGaAOXbac8AnMnqmJEupBoeIByaiNTkhUPS1SJUFdMyL7qmZrcwYApuS1kBrMobZ3AJx0LdQ8INZe6PuAPPYhBhIMSF4LJs8MqjSfoJ4agRogn+UwAFhgH6xK0V/J9I/Uw+/YjcmtlDwxAoUAiTQMVe7q2GJq8uLJcByZFILnHUc8LtrI7HlegAnJYc3wZmoz0kLrA27lkVDGI0kGaptToKoa8QY9G7PQCZGiz9rkGUDWHwZU7jNuBRTKoNNFR28rDM0wx3EAlAiTTnH0ttKogLKa34u/UrVPgCspd79fAQWeMKtlMB/zUzAAyjjpb+h4P2lK3g0b9vPYu7rGGxmBfmR0EmNKQ0sSpeH7oS8Qd+NDr99NCxKgUegNWntc+76xET+I2VgnoD7mAD7eaIi82e7v658KnPBMeTBagfWRTvl1thS8QhIPnhYpg3w/ugT/P94e/m3cL4fjcVnYb/8fN3R7tWz3+vgH);lineShape=1;strokeColor=default;" vertex="1" parent="1">
          <mxGeometry x="531.15341941937" y="629.2913916281941" width="31.97631136673317" height="7.1427832429790215" as="geometry" />
        </mxCell>
        <mxCell id="lsgI77zBe2tgthgqGCkg-36" value="" style="shape=stencil(7VnZbhs5EPwavTZINpvHc47/CBBnLazXDhxnj7/f5iocD2ukCgIs8pQ3WWZp2Fd1dc9J33y5//D57pTCl5fnp9/v/jp/fLk/6dtTSufH+7vn84t/Oum7k7759PR899vz09fHj5e/P38YJ8enP57+HL/w9wVXpdoApfDP5YtcJYb/vnl/Of9wftydj0mCLgAL0goBmPT1CVakZQJokssCKFlKug1IQUJcADWJdgroAOiilQCi6HqlZmIc8M3ECegqldkQpdcVYFKUP6GtgCKFxMEBttrQqxQSBwcEsKGJRepWXSPduyQCiF1MEVAZoM1E2AF6IwA3cXVrDJ4tLL+L1HK4Ewn1yO+IAGVGmMSOfmWBiHn+exe5xmzIkuAJ3ym5LBGMNmnMhogsMAqCZF/D9K5FMvGqR2HN7mKSiAVZbHWRJSmMAtClOdDqifO283zq9Lz/2loK4xeMnf9Guluebml143xYz7uDyXU8IdbjKoHcxkkeuoKXNiuzJqHCeVZk/vhW4DxrOu7sFuA8y2f1EoNwSSDu0S2Yr/6pzJ1lsv+r+1m5WJyP38JbZpO7DkhYkIPvSTvwJwBteWfvJMTZiRNSIktlFVYlrKSSt654HaBYM/4ThWSRRwGY1JT2cXWWAC3iiUi6rKbZhDdaUUksMdzrhk+ggIpGm8eB2OBestWt1iWSOLjcsjVwJc6Gch1QZ//a6anAuDdP6twAdabjVUANB7buNJcG+a821EglXovT6zuJx57QPBHWK1WlDcc7JDDqABCjvQdDk3VAJSTmXT6v2VozVZ1DR6zZWk0y8ZIDgFbd0Ux17sTQhmgSCW28CrSddDYOQKUQqJ5yNyEg0lY+tM3qppao7HRtY0cAIabu7bPilRq7kqLEc0BgT0iSD27thO8dcAwcm0gGAJ5QKc+MK0G6mlRudDrkd2GpkadO3lVQYwDDtjtqlLnVU+MAYDK1H2kjU2Uy0ruglwJza8ee5TWa2HxxpUa3qeYmDaxNy5MpsMg50YCaDLTxDioDQJzZcpMsV73tJUevdNgaOIBNVQNQfgTQ6hUbmMRyJ8Is2bgqHvQOcWhUk5UmesgNNgWUhDzjz2QdwmzWy67xMqNzw0HGWztj45ywLbpViRjtmgxGQ1cbidgwZkN4Quabj4KLDBdxhRS1BlyVuB5nA7c6DYE2blzqHpSr60Amsa5MKJwE8mED5Y6OJJeyojb2IYh1do90XlMj8oWSHmgmKo+D4n4oBlrTYwqGhRL16hjzQGvMQN5cTeLcx3gyHuZcb9IkLQrqjGEvcZDhmB6Nbuhs1voW4jAb5I37QFoPBzNdj+3WQ85EiZsH7db4TDkWE7Ab9hTiyzbQejXzdtvQ5qb0Su5C2K20Plezv1a9P3fVu3rp16r3f1n1ZpT1LvTZ8DMAayBaoVrPAbjMDFRNOq0mGBy4So8Rp9ahMZianBbudixKNEmdbWC39aGLqKlwdpsuJpISFoMLEvr+SeKBV9m6JE5a384HKgsjLg9zp40k4X4480bi0iLjebaySpMadqtGJfdX5Ipc+ML3sMosVPobCnk/zzRtQZ4Y50nJbNm1O2/0/I+95f3+ef/w+kr50/nh4fJGev9/fAXtX11eX+u7fwE=);lineShape=1;strokeColor=default;" vertex="1" parent="1">
          <mxGeometry x="567.6633230454097" y="605.1316941993725" width="57.152716782310335" height="51.95472420342776" as="geometry" />
        </mxCell>
        <mxCell id="lsgI77zBe2tgthgqGCkg-37" value="" style="shape=stencil(7VrLciM3DPwaXVF8kzhvNv+xVeuNVXHsLa/z+vs0ox16CI5alUMqOegmy2yRABoNgDOn+OHb46evD6fgvr29vvz88Pv589vjKf5wCuH8/Pjwen7Dp1P8eIofvry8Pvz0+vLr8+fL318/9ZX90y8vv/Vf+OOCC0586ajg/rx844No+/ubHy+Ap/PzHlCltgmAnwj1OiAmCX4CRCeFAVSimwApSCJHSlFSmgAZ32QCKJLCBChJsieAJmU2uiZxxIYME3UCNC8tEkCwXmpNPDEaJn534gbQJI0Y3QGzDZpFOcDEQau4QG3IM5e0iXME4CWpBVAvga15BqikwgMXLaAxwDBx5INz1IiUJbllC07XVhcjlADg17C4ie0Av8YlEMxqt5AJfmBHQs6bUBfKDaiAn3NURyyPAU7UJESUSmwIMHHeoWaqAiFvqjJUAAmRCCBabmSeQVDGOnsJypMJv32zgYMYehIHn6TMOwSVzABe6mwDrErkSGDaHAY/xPM4Ra1oeLf9wjGTRA23JZHl2Qb5hsJY9xQpJMJF6iwvmdraJMzRSvTs8IQz0d0k+Xh9WNcHQjeQwdv1nmQMIhmcWc/MBTt9MPYy53uVWs36Ropm8FtNfXe/Ei5jvZqMl8BaFy9xXt89xg7kll4n0eoBiw3fYqQmw6VqFAKHZBxqm0t2zRGTRb9UwISGjCkEGjwDyFLZkYrEReWYLMLr2dhQRZksLgWw13XGvNGS7gBKbKiLVxtvpiwxsJ6lDljgrMWFVQ5bLXvhINR2VkURM9aUu62qjPXjhFfWu6UlD4R1bqPYyAOQjpVWW1mRaEy6km2vQcJMzt+2pNqVDZYDZRPy8fvSWHiDVdIbPSOExVRJSp+kG93flTQS9+QmORt7K0mwUjZZG+cBH0i8MP6EeQPoTCWAlq329tpKjqTBmtBtID7FNBPnnL/RSqDFNUGIju+wDKaIOy2Ybskb5EHiWxjxjbzdQmNvpDE2WgR1JMquxawMEC03OnuJtujSuaOmecaNof67HZj6gkyGfbCBFRCMDkZP4SV2pdBGvu/iwAQbAHMHgUizVrOtzV3ggLiNDju6sikQXqqzSPbZgO3Q7PzeU44Yrf4AwOqygv1LjnqWo8UWZhgdGKBZtkZP548+rM9HQstWWcapZWvMtAMDwBS3WLfydU2YVnpHEji41UQaCcTusxC4NUVZQQQ11C0A4qXWjnYggBrtjUIcVh3XLL8l5OBSpUKWk1W+G6MverRougylNwogggUk2rb1ASdYQCQJhBPbIjeGymsjjIkDhtzAem1driAyDdx9ItkGgFsTyTIx3CeS/fp/eyJpRlMzDVhY+tVGWb08g+h5wa6y7/dkJFfu92T/5T1ZsHrbaJPWyWaGweHhY8DCny4XTHzGcLmr9cwENH12LKpcDkEx069kWlgxD/gZgP6CPgdVy6KS+EMZCNpsA3okdl3Z+5U5ixsKIdOg+zPE7w36/RniAvj/PUNMS11oSoW7j02z0Zi6GV0hEjrbUDO9uoAKuOUZImMfdMbYkDPN0XDULbMxZ31K2Z9B8PbaXHZC0NmjWV0uCyutV2pbRxRUJeubLYc+01dSmq0mKD8syjiPab3ijfVtWe8IKdC/mHEcHQorDb2BMR7yvOMZ77fsAGxufPfIDsBqSb8BLxbAKm7ngC42MC+ttBgF79oo+w9fVboNwIf3N6O+nJ+eLi9W7f9v36TCV5e3sOLHvwA=);lineShape=1;strokeColor=default;" vertex="1" parent="1">
          <mxGeometry x="632.0753466763456" y="607.8246963363326" width="28.810348937654453" height="42.62691709136766" as="geometry" />
        </mxCell>
        <mxCell id="lsgI77zBe2tgthgqGCkg-38" value="" style="shape=stencil(lVbLbhsxDPwaXweiKInSOU3/I0Cc2qhrB477+vtyu9A2lHeJ5raRZyI+Zkjt+OHt8PS638Xwdrtevu5/Hp9vhx1/2sV4PB/21+NNv3b8uOOHl8t1/+V6+X5+nv9+fZqQ09e3y4/pP/yaeZWReWLF8Hs+SQwOf08+z4TT8fyOUCpiMgRuyGWbkAlChjCd5G1CFBRLaAmBHQKDoiVUUNomkKDZpCkEBCdrisjNXtGQaJugOYjFFyQnB0apFk/g6gTUK9LxNUFkG7+k1/Ei4OjhxeJLgzjxMEKx+IjmqKKgWhVlQXbiJ0KxPc4J5BEK2kBYZLKuogiq4w3Zk919Dos31msUugSWIjGqV9TYnbV0LaA61mFtg7WOVF92akWbQ82ojq5jRR2EHRG9sqbR/k18q7VRemq14iRNCZxHglfWhshjRMWRUrpLmREdbd/XVEBOxgFk45fWlbWBj1aooi3wBirIdqDkfrI+sZFsPLm5VlN8+gheAxIra5Vh81TKfRYu8zr1Hq5HpDax5g/uBhHdgmHEOx2rFTJsTWTHBI3GhZPd6agLT2zCtfdkHa8CGxYauRLSBVltjym7LZgsZSuqJUrNMUG4WzmatDce9Qq2PlOnNkenmnWzVeLk36CzzW5xFr8PPD52UujDYJ0QuvIXQkT1lFTG4aLvr+JI6cMPtv8g6Me/9+HL8XSan5fvfx/fk3o0v0X58Q8=);lineShape=1;strokeColor=default;" vertex="1" parent="1">
          <mxGeometry x="574.7718325646993" y="632.5366290873997" width="15.822316776802154" height="11.139999357789748" as="geometry" />
        </mxCell>
        <mxCell id="lsgI77zBe2tgthgqGCkg-39" value="" style="shape=stencil(lVfLbttADPwaXwly33tO0/8IEKc26saB4/Tx9+VCWNlcRRP7JkvkmkMOh9yNf3jfPb1tN47fz6fjz+2f/fN5t/HfNs7tX3fb0/6sTxv/uPEPL8fT9sfp+PH6PP1+e2qW7enX8Xc74e/kx5Ryc3L8b3pRApXpzffJ/rB/vbKP5IqxT4XazzV7EeJgHKKnkoBDJl+NQ3DkQUQuUIjGwTsSv+6gn5PF4PQfyrpDEPJsHESTFEGSmLw3DpUSSFKsJMlmlTJAkDKx2KRSlHX77CnzYM8M7CuxszWA8RQ/xqM1BgktidiyzlEF9pU7vLkAFJC94rX2WhDAuZqp8GCP8lPLGI+2EchPrZ2QF7whQPtk869th+KvVK19oQzyIzzjmxPqvkJQbJNJogAorQ7BNplUyghzoWqFQpPkQJOpwyBFyrpUYZVjGh0qKnPqLL4KCWmXOjirXY0YiKixnzdnKVNCIcVeptnB99rf6sBdkW8MKUH5XWL2vS43JlVIgHYtq8ZdPG6kBeN4FrwTyncRO5C7q3MUEKD1Z72p8werxdD9EklQIyzkRUoXzFv1Sygi0CqQFoOyAmJYKHDrTVTmux0WM6HJBQK9GDra/RH0ZptqZcwSarU2Nm0dGldBWttcHrhae3esDv6FA1LhtlksFMyhfbCSdyNotIvobjSQry1wIK26fQ0Y2jYFHLzvEc+KNKP6fIPUdrEOQUUKYNB2GTQvJkg+mUfZ1dosAIMeZxuuCFSNeYGdF84C57kjtvFoi0fAC+mT9TJF8Iokiw24whWPe/6u7NGKpyyKI2CkSNyH2GyfoUbySAmdi/j8oTNVbxLozIXIV+k3sTV7i7dUuFlo/JYQRQUTjDUeb12qZjg/990bv7bXh8sl9WV/OEx33Ovv46VWX00XYv/4Hw==);lineShape=1;strokeColor=default;" vertex="1" parent="1">
          <mxGeometry x="542.9850085728513" y="671.5566793049609" width="92.8437396707759" height="17.04972957164614" as="geometry" />
        </mxCell>
        <mxCell id="lsgI77zBe2tgthgqGCkg-40" value="" style="shape=stencil(rVfZbttADPwavxJ7H89p+h8B4tRG3ThwnB5/31GFlU3WGqNA32SZIy7J4ZC7iQ/vu6e37Sa49/Pp+HX7Y/983m3ip00I+9fd9rQ/42kTHzfx4eV42n45HT9en+ffb0+T5fT07fh9+sLPGeel1gkU3K/5RY4S0583n2f7w/71yr5I0vYpyPRzzd5HCV4BYpKS1wE4Ueka4KQRD9FLTgoQqtS2DsCJY9CAJD2uA5ASnzUgiOskSVFaVADfxRNAjTatvokr64CGoJsG5OHzNqBKMwCUnnjoyJI+UpFIQuhVknbgxDli3yQkY98IL2DftX2iRO1dsiaed7RoADRTgzo+cZvabolw4QWKQBCTC50jNIO/E4QmUkJ7MA/IkulP1IV5QBn0kbIXxwDV5jWjGdiRyuDZAnASWKWLeJ3WlKUzqmYpGhCRt0oB0YjSooNrgKBjCJBJfqSkAehPppMANC17bQjnWpKyiVkci6AO95d2i+w8VXo39oF9v0k1oiqdtX8f3TvsK69xt4PKp3sOuib2lKE7AK3yIEViKepS9JFAO5ojDAHTnFkqEW0kNeukonU8r5od537U8T8BghRdt5xG990ePG3IyQLIdJBgtBWjSHUIwtrwtFkCWYjAYDybUVJ4pbEAmPYvWRxfMZLx0Ci9J/3R7YyoAqEG1iQTQ20UgEXM7FUtSWY7iR0MKH0g9sFWYeoPkqNlalzmM98YvFW8adiRMmOO6dkJzWRMdVJMAJEWGQKqzwOq8+87UwBsfUTi/9ouaqUrnrPx1iCecM6NlXThaKFt4+xIQ9d0en6zBKOPO+kyP8TzSig4H/7t6nLfHg+Xe9LL/nCYr1nX/9t7FV7Nd7L4+Bs=);lineShape=1;strokeColor=default;" vertex="1" parent="1">
          <mxGeometry x="554.1401331005586" y="690.4469491612276" width="68.0713134632474" height="6.212161439401598" as="geometry" />
        </mxCell>
        <mxCell id="lsgI77zBe2tgthgqGCkg-42" value="" style="shape=stencil(lZzZkh3HDUS/hq8dtS/PsvwfihBlMkyTCore/t4oM6rnduLe0+IbNQJ6qqtQyEQCPe/yT398+OX39+9S+OPb1y9/f//vj79++/Au/+VdSh8/f3j/9eM3+9e7/PO7/NNvX76+/9vXL//8/Ov3//79l2W5/vWPL/9aT/jPd790xLicUvjv9x/EcrT6/5/89bv9p4+fL/apXO3b0QbZl3q1n0fC57d5sbef1PzaPh/hup7UjtzIvlztczgSrD8fPV/tyxH6a/ui68n9aLD+cuRwsS/h6Pj8en1+sd8YyX62q30/KtjXo1ztazwCrL/t3TjtyzES2bdrPNRxRNj/foRrPLR4xEn2JV3tzxN5Yd+u62/tqBCf/RhiP44ZXtuPI1z3s4djwv6PfTtO+4TxM45yjc9ejojr6bKedgy4L1PPt8+jwv7b7b6e17D7C+c7j3xd/yhHgvWb/TX+Rz0m3Bdv348O8WD21/0fc2eMP2c/I8bz3NnptE87w7ywL9f8POs+8Vf28vx+RDjfGPd1PR0sIOAXLHwY6kBvEF1Im0OFLbWMH6I60Dtb0vLvkAlk5tHdOySIopyfvDSlIcv61b10AIcSj3IFAjvoSQ5VkXtWzLxlaOo1hwa/wTL/dL+hwi6t1F/UIcNlqJZ9mzokQptwRPcOBMftzD6nQ8H8a3AxszoMcug73z44dAi+ZimyOQdIeT1qTp3M0Xo+cnIOEBq9KmouB1pS3+f64EC0wlDDLylD8I3owrsgcRx55/XTIeMFGlWh0xzopA05onMgbjqMGrglZQK3cFTZJUMHWNJ09N3gJxD8ZIfPE8/h7ZhOh7YX+dyhKgM2RM/0DlUpiZ09UoamwdcHY2LTczCSNIg0dE3Gi7URC+j7yj/QSLqic+guWaaiVGkOUYj2wELHHKRSs/Rc6KTHhsBH6n/jcA0Ng5jILy2Zz0CMyPZ6afkNduPoApnD9QIZrlJ5Oh0/t/orUHh3xYc8jkrncNZ/p0PbeeSVQ3YlJ4GiOQRx4Jp5uiLMiuBO72Ds6Lqtqy7gOz2uV9QKJyqz35jF6VC5Dqg7qZwOGVnlwv3rS6e4a79XDv2aBOJEYF+YeT2H2O9+g4BiZL60AEoc0q7vXzmo/BI4e+cjSvbGamDh03VFnd8gKugymhg6teshcMYwjE7X5xcsVw2b2jWMbIupfE5aD59c6yXvET0Ic6oRq1HVnqheU/0o48VcwNfUnohe1vozIakynJR44OcbGdZrjM83WC3zR+yr5kazh/g0FE66/ghZpc6NR2/2BeLBKp6gzye5r7r4ZDJVk4NYLHdq0Hg4y8rnRaTTayqup1gGFBayM9Krqtatp9HzDRqj2BOHL+koQ+wpgRobGNfnN6Q4eWr8NGT8uWs8s9SR61Yb3+xpf4w6FF0/xVs+r9ObPcWPEYd6fT7jvNdPOxY4azuEuh8D7vu6Ttf1DG43RK3pBlKnOPS+D5RnY9uP+3N4GosSp4l4EbPTH/eFeCX3Cc+azI+1qDb+kCAfDn28/ULExy1OPhCaQYrRzt6nfcH7WFRgWgwL1pMc52t4vkmrsshyelQ6Y/bUPogb/R/siYMGt/+cT4Kmq8hyelA4NfsC8RYU7iK3h4IWfJFVHyeYRMbToOnN7Gl/orbbzD7B+fp2auZ8qPC41kO68lZ3Huwp3rJKJbafmfK/28+CwoetVuKt3rRrffuY9KqkdHglVMILTYfrPuL96lPtCe+ilhfr+RjPQofX+uG8gqsIWSwIWo7Y/pNwGzYbf7CneiE8GQ/gfCLCmcXnxP3RgpYl1R+1T1oeGb7Q/vgCm/GrbDbyiI/YLo9KH+h6ue53R3Qc2szu2Lu3tUqx31B4tb2Y0vzGXufKTfp8CraFzVpcENmL3SmW2EiJUwWayuCelBzWne6e2xe97axhrWGFa7YqO909tx+aDcuGj+fBHHeufygeIZhz0e5aQS001yfiCc3SdBWMM5LPPDTe+LIXV4xkFKOsGJRsnrFXXrIWLyw+FC9q4uxBcV21hGp3cf2ltC/Qc/IcVfeNmH1qcWwPyUM9sW3bByx26tR4C/i+LWi8BRQfWtImS8D72LKeV8Diy4tL3Dvw4tWNvRPHAot7jm3c2Dtx78a+aPzf2DdlMzf2XcWNwOKkG3bh54+o7Cfs7s8rsVfEIo6fkfU+nnTouX3V3mpA/BrNsVVe/3DsZ7/Q82I/6P4nFOveutkP+Zz7HVPxiMTYNQHjmgXUdWq71noQf2g9Tau7uX/hK3sZiDE2SdXp6iMLPS/cTnHyWOxIOVY7UgSOedd4joIxERmxOSgoZZSIp9OAFi+ilx7aPF8iJbe2RQWygybgm25KLzNymIMym4R9AHOQIYacsZA0B7lrS9q9cRDyNHb6e8HuXbFXAtYDc+p9u+ueT1Xr7/rzUzPY3QSA29e7GQPnYKyHBmLn1OirPMq0HK6oVgdqYCuY3KwHTmJMN8TMqr05iAzZI88YnCr06VA5voeWKn3sGcpXDqJMrNYpvbTrFBk8EvqvwVYZ1b3JlU0T05h4g9Yokwzepd3OfQWI7XpwBnmE0PY8P/UZgRJOJ7DMxvPewzUIuGgfHhQbvvQoOzYfHGhk2gLBD9PSBTLeltySiMh0d4Emy27dVeKTdf8nE5P8HcyTmcy2exPPHfzUJy9pzZW6c6DZhzW5+kO71Bx/u5nktjyn8738dUULWpGvl6YStev3OTfT6Jbcp3tp7DhFZVhr3opUhaEtSHOgntya5B7qQHX2mhWv6kCD2WsafaoDtV2z++xpMVPqe0w3+j2wtn2T9h4caJeWGJfUgdJMHNo6XkSTHHxo3DRTk8OHiQXc9GrxTYWr7bNFfUnxcJmVv/5obmaavy5p7rsJ/nrFFaw3X8eczZpHhKYE4+w7z947e/7Iwq1/8Cim25+RMMm78zLkwo8NFJsNuGg8rKnA0wtWxE2/TuoJiWdTgarffS0oQG6ghQqYa1AwylY3vVJ2g/uFvXxt2iKPb7mZas5BbvygVuSDRdv9hj4kMGSdLikdE1DW9lMpSDdd+7Xw14tJGbYhD8WPF+D567/oiubANbACZWo83uOmBRN+IhWejAjzOIQIlrEhJHn7grgdVLA0e6rHgxtv4PHC4BoI5aY9rYIlf5MTlGCuFiJ1AN34UObxKs1vt/byFV/M+OFIVNq03hfjc7jzoiI5ufZ9uRlH0XGRgoruj/81gDt7+8fbnx747eOnT9//csHj/9c/VWA/+v5nDvLP/wM=);lineShape=1;strokeColor=#CC0000;" vertex="1" parent="1">
          <mxGeometry x="505.328775764938" y="555.0459286013886" width="176.7890230098542" height="169.97064926506755" as="geometry" />
        </mxCell>
        <mxCell id="lsgI77zBe2tgthgqGCkg-43" value="" style="shape=stencil(7VnZTlsxEP2avI48Xsb2M6X/gUQoUSkgoNvfd6zIlzuT3FPoQ6VKfQvJHNuznNnYpYvn26vH/S6G55enh8/774frl9td+rCL8XB/u386vOinXbrcpYubh6f9p6eHr/fXx78fr4bk+PTl4ds44ccRx4m4D1QMP4/fxEbx+M3HI+DucL8CxEhFLCBSbADQiYsBcKXK24CkP9sncaACADl5QKYagbxQrVYFYqBBVos4DabRzsqXQCEZ+UC5AvlIgZ18QPJ5/rySD0BeiIOTj+j8St2f35B8p9KcfSqQFz0uOfs3YE9hEmv/TBHoK3GaY8oXEiTP1Oz5lQKIH5WP1l+NEtaXrbwaDNmzUbXvHw4DBBgOswRIabp8C+AZozckCCjRAhZSbAGStalGYUCkUYANCknQC+NJNupqooxvyM7NnboAQKFgb2hCESWWRpKto9M84nyqaxTsk3ojBjdo5IvNvhww+ZlnOl+u6CTgihNy9jLttiHvyNYSVKH55FVlWu28Ao26vaAG6LakP1svCL4hZ89/Db2C2dAsoTUlIBtJ93wTzDeNzGJ10CQrAND5DIBBkul51rwVIAO/dZlJ6406aChn8VZCZh2Bmb0fkA6r2F8QeabCrSuKA8h0zZYSrj8STfYIILM2LQBVCyRvTRHVpaUwU+GWq/mEEBlkmdZm+7QCBECIkeaq1yGA+G55FtgFUGGS0RwhNvqkTJpvAhzlMmyS9EnJOS5SQk8qJ2ljSYVbZnVlXRlUQWLqwSdvBaB6oqGR4gkAkbpQOwEgs/bqk6tyFHlaCeTLdITNlQK687R6BkRrX4y4oihq95Si1YVGhf2kUrRbK2l4o2amn4S3EogRgH1DpoCCdHgvoEaflyp2nLAfel6P2JpisvV0Vcehutt9y1e1pwNpRgt1tjo0zDidE7J1nJIWjZIcPadHagM6jEkkeEBFHVz0SuuTGlK6z6K5Uhr1S9qZe8fhPjezHz9HJ43mZ56N9rpXB2kmL/PgehrAOrjMlzGBBsByWg3dkQ5htkfLzISHvlOltdGsqEtMvnXAi5L/W4a/sGUAVP4ntgwgov9ky2AD+jdbhjqPW+zJ8IISfEBwhRNDWgbNFSfRWkI57ir50AEtI5OfSVKBQTE4aJ+UBNbZQariAWjC0Cwi7kkV8piFmngAWhpw8QtVfZKgG5L3gwLQakXLZjoxK6pRGjnZATKcMDh48qvvUdkcAMu2xJBuY+/hzBpg36lKB9sraPChXuHdq/M3APTD66b+5nB3d1z0r3/3m3396vhfgXT5Cw==);lineShape=1;strokeColor=#CC0000;" vertex="1" parent="1">
          <mxGeometry x="819.147797739015" y="609.0979185693327" width="28.57659220097139" height="41.53621896177083" as="geometry" />
        </mxCell>
        <mxCell id="lsgI77zBe2tgthgqGCkg-44" value="" style="shape=stencil(lVjbbtswDP2avBISSd2eu+4/CjRdg3VNkaa7/P1oBHIi2j5bgTwkjo55Jw+1k7v354e3/Y7D+/l0/L7/dXg8P+/ky4758Pq8Px3O9m0n9zu5ezqe9t9Ox4/Xx8vvt4fp5PTtx/Hn9IbfF1wO1MqE4vDn8iQ2mn7a5+sF8HJ4vQEkJq4jQCnFbYAGSk4CU83bAG5UwwjIpGEbYBrXUQILcQMSKgUnoVBMwIZIzQESFSAhVa9SrBTLNiAXKqNbmUmAhKJdgRlgrwBeqoFEBoAIZQWASjzaoAq91ITqKCEJBQQo3oYcYfLFEHzkSqRYgYhEbRRRTQSyOlNygEYZGFFMwmh1U2pApZyI4wioJLjkgo7JdPXDKkKaD52JQI5l9enXAilwkxV9HK0urXt63a+UeTwfuo7rbqW4TA3QZhrpaECKFEAUzAAeFVLuNbvuokTZdZlKDSSG/R1HCZx7gaxHLZKOiWEyBagklkljNUxxBGG2vAjVA5AN5pOcvQ0B2KCJkgMUqkhC8YGTAAOt1ZePWOBApE2CC5z5LSHAoqLFBgZSSXpvnwGtv2IrDk4lmzARAZKfiQZQUG6WS26u6zzpt7I1VW9DBipZbjYHMEeDpmSppurjEIFbDRAdgCERMJWCm4mNCqIaiy5jTxRVXOjD46ZEC8glm7FtUaIVNFZzYl3WNMrWSEm8SjC9tfOEG6MRN9FMLXu3CpJgnW+UMKUjLlE3pUUhmTGVskuNAsf6pwFTyY9Gm5IB5JLlpowSUvpXu49jI8sCZ675xLUZIz+MU8MNlGJMAzTjK1+byY/0EbPOZcRHeqJXwOjCnUzNKuWu5Dog+3rIFU6gIt3EOQ6t95F1GyqpAwQ4FI2JuFya9gPkVu1U/ia9EdewgeJ2JsHsZ0o+N7IYcvWJvzmVrFMBCQvizRWWQ/D0ylYsBedt/Ljztq+g1h38cFC4a1zN6+dDHxabNCP487gSODl9UNu20q2OcffFYzOti3cQWt9sQVQHiDDCZTE9o8C9pCwWGcuqCnxkKlUX5Ny9tmV0c5sP5hhTexnrwPZuxADKXOo39x8ZLeqtU8G5EPAik216sgck0MCyLhiA7WIIwH55i3gX+/Slz38A7Mv1junp8PJyuaK6/d/fSdmjy32W3P8F);lineShape=1;strokeColor=#CC0000;" vertex="1" parent="1">
          <mxGeometry x="864.4435930845129" y="614.7819348540788" width="25.226641590241343" height="36.21917426256073" as="geometry" />
        </mxCell>
        <mxCell id="lsgI77zBe2tgthgqGCkg-45" value="" style="shape=stencil(lVjbctpADP0aXjW7kvb2nLb/kZmQhmkaMiS9/X3lMg5IhuPyZoyOVjq6rjdy9/Z0/7rdcHp7P+y/bX/tHt6fNvJpw7x7edoedu/2tJHPG7l73B+2Xw/7Hy8Px9+v95Pk9PR9/3PS8PuI007cJhSnP8c3mWr69+LLUf5593ImX5lqdvKVSr0u35hG9/ozJQQY1NkDCiW+DugaLcqDcgGATrk6AMus4iJgZMreBzYVAwCYujdJhBo6wVj1J8iggk1qPmxaMCBFloqpUMDSoJE8oFEDThugeUA1WkHgzCQuHtBpCI6DP6EJ9Q5pFZ9Lrc9nXgaYPp8aPc+hvAwoJJ7WbtmKfGg0/AkTDe06IKdEyXttOgREbnRSb9NYSVeZA3sGGKiCKlX1AEtXYFJrVEcEDMBrbTH7zni4iCgW2R6PQKFT+1siQEAkVEhrpAlVtYzYBqboY0D0oVECgdA86/sAVGJQc9pIQ+SsbyBaC3GInM4d/XLkrB1LBCCWmpL2WwBd4oRYMcn6Rq23OG2s53ELrWMxtFYCZ4BIK04NsziWHE4+a8ccnMbp3dMiW3EBtRxZWqvRmklTPAJ5XZi0RABqNDYFJUWaUCvTtOhMuFlajeab2vHNACvqHEKNR4Qu+vfKEDKW2J+wMua0xnVjGqRgi7M+M7xJK6Pa9tBQQdMygFgaM4n/uW4YIPmCsIWmg2zVxZ44rUwolz5W4fOlDPmgVDxL09qHWOK4C9hiOYDT0mJR2+qqIJdEY6R55YQcV1dbvwtgaTLA17Qt+OjKwUrJR9quEB2tTGU24CP5YGakhctUgfrFPsZznlwRr8HduZNf9jb2owy112iMOQMqPyeSEeQFJNwpNCf5DPSbtWHjNrZAY7HIsER5kAvCsa+YPSg7e7xjmL+ohHkeqif5CqaBlXz2/mZoz63X7XV5ezjd7R93z8/HTwPn/8dvAfbq+B1BPv8F);lineShape=1;strokeColor=#CC0000;" vertex="1" parent="1">
          <mxGeometry x="874.6576092888688" y="592.6682197585903" width="7.106376344613409" height="81.15768518805294" as="geometry" />
        </mxCell>
        <mxCell id="lsgI77zBe2tgthgqGCkg-46" value="" style="shape=stencil(lVbLbuMwDPwaXwlK1POc7f5HgaaNsdmkSNNt+/ela9gbys4EuSnOUCI5M5Q62bztHl+3nee38+n4Z/vRP513nfzqvO8Pu+2pP+uqk4dONs/H0/bldHw/PI2/Xx8H5LD6e/w37PA5xjFlHoI8f40fUiVOP19+j/h9f7jAB6re4EOmUK7jXSRfTIBP5Cs4wFOxGWXy7jo+CRUxeEeBr+NLIMkGz8QIX0l8s7+AfKpQtvtrBzLAa3nR7u9gR2ud6psD6tTjdQp4rnDmIFMBJNdC1ZImCRedKAQrC20DOsFTSjZAyxJAQyG2NEdPGaRUZBEgkIhcyFUb4IgjCAjEztaQIBGZqdouiRYNuqRe9DYlUfEBsQ4B9gQ/N/paStme4MJE5XrAQt6ZIqAhq9LsAZ4isH/x7UDiiZZ1fF7iIxaeNNKmhNymlFoZaYsBA2qd0tg5UQQqUjs3XhtmLBoYqplGFEIRT5jWnDphUEqhtY4O+QyapDMyNV5zVJE5Q8uamvPG1L4vIGnXFwEZ3TuVnCUuJhgg3Cojxcl9qwF68bElTquKHgQESpY4bXQEQ3Lwlq1Bb6MCeNCbo7nOVSwMilYxtwHYD06mKT37gfGF63i6/i6OQHJVeS9qQCMmtBnVGzS0Sqo8nbiK57ZFJcL9tR12ohYdeRjfPJBw/vc+8W7jdfH/Pfnc7/fjc/Ty//b9qZ/Gt6s8fAM=);lineShape=1;strokeColor=#CC0000;" vertex="1" parent="1">
          <mxGeometry x="901.3892683132462" y="621.4526820227779" width="16.50530613437968" height="9.568107150099422" as="geometry" />
        </mxCell>
        <mxCell id="lsgI77zBe2tgthgqGCkg-47" value="" style="shape=stencil(lVbLbhsxDPyavRISJVHUOU3/I0Cc2qhrB47bJn9fbhdKLG53gt72wZHEmSHFKd297B+edxOHl+vl/H33+/B43U/py8R8OO13l8PVnqZ0P6W7p/Nl9+1y/nl6XN6fH+bI+enH+de8wuuCK9R0BnF4Wz5IIG5/v3xd4o+H0008Z6p1AKRGQbYBWSmnARCFWtoGVO6/O4CJK4hX0jE+UCjb8ZqpiYvPcTu+BZI2ZkwJxZe+XI83BgBBTUl4JKjADWKwBMPIUKKYwRaNkkshUgQaNCF1Kn+SBJOMPsqZEjiS1m6zd4BSBDJrJM4joFEBOtfS17vZIfE2QBrV6HMQBDCli2dJQdLCpOx1KAoBcaW0BAAwb47mNjNVoLQI5VE4SwGYr5pxXApYBenLfVRbAeurVX928QEkrOqdyhQAoy2tGh4VVAmV6qhxNBHRBuaiUYG5vwBjG8CZwiRAFNmR2khpEopAg5ZXpcNUQJPXRtFVc6UIyn8GtBUAHElqt3EHFNxgbL00slQTNKqR6BqM0SCgOO1mc/eIES3AGqZrG49kUqIc7OKrI603rfzfCGur1W/B4EzqvWQ5MNhg1cGMpIBy9uY25RU4KXiraqEAWurqZqtWTjh+FLlmOL7EbuP36rfpBZgi+TtE8Pr/O059Hm8PH7Pb0+F4XEa/2/9+1rNPy5yY7v8A);lineShape=1;strokeColor=#CC0000;" vertex="1" parent="1">
          <mxGeometry x="907.9155256538797" y="630.3989965511369" width="12.163611762670143" height="9.295565799689257" as="geometry" />
        </mxCell>
        <mxCell id="lsgI77zBe2tgthgqGCkg-48" value="" style="shape=stencil(lVfbchoxDP2afdXYlq/PafofmQkpTClkCOnl76vtjinS4kPythgdW9LRkeyJH962T6+bKbi38+n4ffNr93zeTvxlCmF32G5Ou7N8Tfw48cPL8bT5djq+H56X369Ps+X89eP4c97h94LzxGUGBfdnWciJSv238nWx3+8OV/aZUlD2qVJLY3sfKOsDEveV24BGLSpArFTaGBAqpaYBiSKPAVwoswKwnBnGgFgoeQ1ginkMSHKCjiEUmKVciLVLQkwENJRMXBXAX7a4CaiRvCbORwpuDGiOotMAR94DQOwhXpimGoF9Ja95c+TQ/lIG3tgzsm8UtH2gCApP7LO2zxQAZ2JfDQWeAqpsJwGalGZqoLTbSgsSQwUsC6BolkUdHlSqADjr0pYsYdaqZo0TrqNqOwxn8oiHQjWtTkAuFasFiSEhlwq5VZYCylLuHeiKh4ZcEoDWs8gTiifboP2lM49iMHqWjoCTZBp36Asj2txKbbguUjT2DnHQyJmAKWG1RdPl7ymhav8vGwylZtScuocfBEjEDfcj45FQhnq8AJJuF+zvidkZMUfc8mrP+ZU2HTrh04BEXpcFV8yDo6RjiA4Wqgy2oKUWYx8Uo9Fp0irzHY1/Gc4GkEKPajT+iy6NhK8w4kDWgBxhluQKYxpS8bCDSYMrOoZS+vi9DZBhr9NaPTk03UJP4gWQKQOXZPRpj1roA/X2AVR0JV3N0wHADJ77ADOeZ0GBSnL2ajsPFhCBdFBNmlyZGBSeUKCrouEO42xLrZdBN7LX8dbQORnZawaKVBUoiZX/JfbLw8fyI0WNrtmr/OcKlb/iN2f41vns2+i+vXz8f4i97Pb75R13/b99uMnS8ujjx78=);lineShape=1;strokeColor=#CC0000;" vertex="1" parent="1">
          <mxGeometry x="939.7786076698221" y="633.1644987744071" width="91.46770160517008" height="8.24666080742395" as="geometry" />
        </mxCell>
        <mxCell id="lsgI77zBe2tgthgqGCkg-49" value="" style="shape=stencil(lVrLchw3DPwaXVl8Ezw7zn+4ynKkiiK5ZDmPvw8YBbPL5rC3dJPX4AwJNBoNcO7Spx8PX77f30X/4+315ff7vx6/vj3cpV/uYnx8frh/fXzTv+7S57v06dvL6/1vry8/n7++//v7l2E5/vrj5c/xhL/f16XmYh+rov/n/19c8//98Ou7/dPj87V9dqWAfa3EPria0J48P4qTiPZC7KvzfrLPzidin1ysYN8ysfdOwmRfnJDnB3FFJvvmQiT21cm8H3GpE/ts/232QXdIDhCik3lD+ktvdAF4NBSXSch0AzXPC7pr5AzdEGP2MdIYqEtnSGgMetnbN5fBvrtIMFRdBMhFC/qpfXFhdlDSJxBM5CXFukvk+QkhlKN5YGMfANLFJZKTGv85JbNijuWkRedIgeAyiW/EFC6Z5nxyfqaUIs4zTnF53k8NFvGNfZ/9WXU/xP/Hbg/75gqJbzHvHfbdknqDtzD7p0UXSEY2jG9TEib713yZ8daOJ+wSGAAn3iB+viBhxshBqzuWa/CGakE8h1BwaY6xdBpjdWqbndSjiwx0C+p6dplEWZNW5jB3pSFy6FwNZceCSnFRFNiwJa3OxEvVOx9xAfNSrQglXZAINbZgxeXqDIzbW0VyVy81QtYKNWCXnpywBUqn4NbgPCsfDQua/lLZgo4FR+FdCJZ0AwUytFMG7gtlt2KAP1+QjXGPBYGeQb2OJCkuEpLRuIIwqsX8tlsgDWmYBW6Aea47yvNCwNeXQl54xo0FM81oSnl2aF0A6k6Zj0mX5Qy58TcsXsrJeGS3IMxbyje2lM0nV3KE0f0AH0jyQOtJV4E385KybWEp2lA0K58zRaU5XWcvhUY1p2jFhwXat5A3NEX/fIYhW1nR1b5g9pK4wERnQJaptKgrFQs2Lo2JhugSqFSTcefFpFnfdLHPrPgsKo+XdMV9x+ez8yrsCzaCkfhTy21Z9s/q+cJfPM+0/tcO/mcibzSyQEaUTxUufbav9oCdPZy32gZ39sBE1WTfuX1D1V9dYo1ysznA5bydKbaGNbCYmtnaA5Oaw3b24P9s3L2zh/xKtO1Vf3rEW2X+ESwdiZ9XUKAmroC78ziYoYMTVRwNz8vtscvkeOjIJ5nOHYb9vJ9iG9zuB7pAKpbHeRHPrMkf/lzyhT1fkB9u5mMqaM/8I6jdK20/Rj6CPjPAbvOrgz8p/yz5WGgPOOwRD4Xvp2G+33j+Ul8az8dlkMk0+0ftlf9BQESaL1pfgB8CzZch2hLYs6HMqI9zvfZUTI/6G8Ce+TML6plDBW71Q//A81WfLPZMz9SITVmgeqA2kyOXeDE905YeTvFG8kUbtoz81pie7C7ACIQr3Ij7CcEifr6goOAIxSTjrs0FBRG6Te7O+4CIEmuMyljHlzGHlYXZpFfbK2xNMm9zZVGVYu88X9AxbJoYgb2hW1N7LKg00MF7zJzRVBJo6ys6UHWitaz3ZcLKi8c4Nbyh0xGo+hWaSs0/Vo51AcB7zJpudNLL1JR2odWGwldjUxrqjPO3MZxiC/SIs5fEW/e+a4yhZ9IkZENHEZtUXY01maqTgljqvC3TxjguAzvKe9Vk4rFAbhElQKN3WglPho6dthJlyYernNpNTuFWrPMRvOYw0IAuoOV/KbfqJsZ9KeKt2CA31iCsbsp02qUFs8AZIr2H0nrQZtoQfjEWlumvVHqbKTj3kUTjVnFIqVWSJVzGa4QLes+DsNyEZEr2ETXqUAXkvAGBWoXWt4A9Wi2Uhj1qJGVhtn+PPUgRimpvs8vDPlPRtla2QCubR47PjV4GeNR4md/JBKTTHHgGLDOBRodEEXtAlSOZJExaenxvCNngGfJr3F0zZsQCNZp8gp+KM5+BKDYlRa0TuH8EL3uUYiLLlwVwSjHs/mkwEKpmNuUan0fgFJZ1UbpfeD7vesPJVEnYVOCY3V+6ENqFLxLkGHSf2xfcj781pQCEej6FXT7f4TfD6+dBnt7NrZ8f8UKflqmGt2vcnb0s52WfXgjevng6NU+CePN86ixY8QJVyWpfcIrAppKrfaTXU+t+IpdBy3kjL8CLPxMl6DVeiX5qsuIh0X7xw5+73bTXPy7f1n17fHp6/zTv+v/xWzz96f07vvT5Xw==);lineShape=1;strokeColor=#CC0000;" vertex="1" parent="1">
          <mxGeometry x="932.9461165787206" y="578.1550181809043" width="150.8361537888254" height="99.8179113567619" as="geometry" />
        </mxCell>
        <mxCell id="lsgI77zBe2tgthgqGCkg-50" value="" style="shape=stencil(7VnLchw3DPyavaJIgs+z4/yHqyxHW1Eklyzn8ffpyRZ3B6Cmt3zLwbfVCBji2WhwTvrh2+Onrw+nFL69vb78/vDX+fPb40l/OaV0fn58eD2/4ddJP570w5eX14ffXl++P3++/P310ya5/frj5c/tDX9f9KLEtiml8M/lwSgyyn9Pfr3IP52fd/JBNBn5XqU0Jh+CkW9VsjL5Wox8rdLisXySZN9fmkQiXySokc9NMrG/S7fx0S6NxCeq1GwVggxyQBxSbERhYyIRSlXCsApxvuJdBU3SrA84UytRGItCl0KCmpGjvCiQE4pK6YtJxIcapNk8b5VIwlqbNPVR6v1YoWXRaBVg5CCVsbQCEqfkhF6kOB9Qe8TpjtJwPgwJRGGkWcs7BVatI0iyeUBDNVJ8vUu0xRerdFIaPU8DdgoMYHpcFDItPuSh2yhFNDlraTgd/QmJmNSGVFetKoEruLBGtGimCsHW0qBRbV2GdaHJIP22yVuDqsTAHbCliu4gZQH54gpPGrEHKQguQByFMRbs+wPFFxSRZifPEtaTj/91bh3JOzgCGDCsqBNKbvmqzN+xNIFKZ42Mznd92blCFXVghMFMSm50ydUoaJRKYhTDMvsz2AbJ2hhz8F0Vxuzt9xWaJOs1pn9hXueFXmQZ7ATUpVVocZ55BJAuESA8jJCglIotVUAmnQrR9wIGS2SYHWYv7hTuwNcI3qTIZufwUwFeVY5frn9gJAN5KGQLGHgSSB7alYBcFco9k4YtvqaUkmyYZxOH0shs/gcPSg2TiKEASs0qVD4WEPVY/Ams46AwqvchMR90BnEXJYqsWUL0eaANlGcxXxUa5TAwaVintwHPwFs9D0MYGB/Gv7v14ebVUeJG8wqDhTVKWFo08oEYlxPYRES1Zue00iihHxyt2sqRoUb3i8yNpRwqrLsh6zighgOBfA/IHEVvae5/h7zE9UO4twT8oAJQyJpUkQcG932Oj+uMG9RpcHoHlQUtRcgnuIPLQ+50oEDBQSWW4sw6bllkwB0i50vV7bhVEmtRYLUFgY0hcjD+uTX83Br+31tDnjV/81fZ2Gn+7inRq6exEMMy+cP78ros/+CijNAXT+hhEWNt2EqSbWPNE2CP+LkjMDomaTqCU6/Q6BqzcWWncIfABF8Veqfvr0Nsh470MqxNrry75qnEpBo8GU6d0ryiy0VSo9dt2w2gw188ISYhTSN7BVasuhQffGBohPc5hNdAr6rRjY7mofgy8QETw117ZtAykritXZbb58qGv2R7QOGrXvUAXNOEtPfTtuwLZa5+B/LJlvYGUcSe7AcOIIQVavZUHgv7oPZ3OxAAIGxRzfNbwlW+Td5wIO/iPzrdFLK/mh+D0nj1FAHy7PpVPZ7uLlner2l/k48DWJclT5ghX0kCAL+LPCPY0d/7I6AsYXESiF3CWAP86Oes+/L4cft29uX89HT59Lb/v//WhkeX73T68V8=);lineShape=1;strokeColor=#CC0000;" vertex="1" parent="1">
          <mxGeometry x="1048.071328382226" y="559.9424174640051" width="89.74894584150434" height="32.964538804578524" as="geometry" />
        </mxCell>
        <mxCell id="lsgI77zBe2tgthgqGCkg-51" value="" style="shape=stencil(lVfbcloxDPwaXjWS5etzmv5HZkIKUwoZQm9/X1HqcCzDdvJ2OGiPLe9qJa/04W3z9LpeBX47HQ9f1z+3z6fNSj+tQtjuN+vj9mRPK31c6cPL4bj+cjx83z9ffr8+nSPPT98OP85f+HXBSSMtZ1Tg3//ekPLfF58v8bvtfhEfEqU0xCeSdj9eA1X3faYq9wExEMsIqBTSfUAKVMYVQiEBKWQD5AGgBsj3ASWQ1gEQC6VwH1CFZMwhVeIIAIWaDoBcKYFTakoyAoptqQBAJgkDoCZSQFyrJCPRTTr1NwHCTMwjIlGugIjWlfAOqFTAnuxQWvMAAVnbChpHgB2TAqpNnC7rTA1kXXRaIVMESZdMKXuAAEDl/vcCwCDpqlR5WgHo29TH05YiAjTKMp0Skqt0k1jwEJH6hPKo7zPToOSaEVc9oADiLAceC6I16Hw1dxtaAApyAbO+7AEN+UyjMBK3qKnbCCuwaU8VGI1ZWWoeAOXKk76tCHFRy8ScYgBP2igoB6agHiCoqANFR3WmDJizY43qAQExV7tJLGsUFXXoG1jWKKggUx9PPqOopdRJfRkWhFVQmXgIqEY/CjAna25LqVvVvT7qjUlgyZ15GGcB63IJbMmYblMfrcBcTXyOuPx+0LflrVTGorZZAFlfin6eiTY8AHnH6HuWzTMFaElj74GLiQn13aC9fyxmMmQCohTGUxIzdKDW5EeH3Jm/GW4O4EY+OPFNg4ltBqTLvQ9cwwNK1g9KJnM0QVNiF55AqrGvfQ1HNZb9qMrwZGof0K7hqN8Yi+xzhfE2Hfl4tB0x440uHvVkKb5jMpyCTbbJfx/NLR+9Hf0/3h6uV7GX7W53uckt//dXN3t1ufbp4x8=);lineShape=1;strokeColor=#CC0000;" vertex="1" parent="1">
          <mxGeometry x="1184.5506531009419" y="571.3603888048494" width="14.758887957241313" height="84.88259783350009" as="geometry" />
        </mxCell>
        <mxCell id="lsgI77zBe2tgthgqGCkg-52" value="" style="shape=stencil(lVfLbhsxDPwaXwm9KZ3T9D8CxGmMpnHgJH38fWdryDFp76C52bsaUSRnRtxNvnl9vHvZblJ4fTvsv29/7e7fHjf5yyal3fPj9rB7w69Nvt3km4f9YfvtsH9/vj/+f7lbVi6/fux/Ljv8PuJakdgXVAp/jk/ikKD/nnw9Ap52z2eAWiSrAaQuOawDSpcQDCA3GWUdkLt0e6SaJUYCiPP1BGiQRAAJSQ8D6CqJ5BBVerFVCmGmdb1MEmyEoTLG+noc2J0oSWpsvStqwxNS1CjF7l+C5E7WA2AzxhaMF3idbBNiF2VdC6K2zSlJJSmDFzV75nVypDKkVpt0lEaaUFU0WeYF6QTQVLItax3SSQ7aPfOwRSR9GKiJBWia8rgOqFJs0lpm3a4DkLSLoJQaY0hulqsQIONeuGBrxykJNxCiWfb1IVoJAB5kOzeyKNHnaN738KSTJLBfsexDzM6OdBLYCQA+pnUAPCgXH0FJI3qRlnwOLGl4Sr2oUmUAiPqiD4xMPUxrP+s04zciNFvWZQsWIfsjKfduHKC526FQ8vXuvXKRHFNQlNo9oDFA8cakmUdQf51ok8wE1H0fFMbEFTecRLMM4mQAdDsHoG6Z5dCnM57Il6ZVrUl02AjwtsE0jb7aHD5sYa1xxVIDWbEjfaR4BqD0/iwAk0txSUMhbNAANSz5oPJM7qwC57MRwNbA7t2LCC1SAeFaHrbTlQMwKTirBGAwgF5oOkzzvA5ofoCDLbAq4VbOvqqRTYh5ThZnF3sgATDsOEljUK4EgCnX5bzMvYTd6NtwA1aktrQww025kQ6htc4b8AQQJV0AV91QGWjKGKYcVfnQjRnYEQ/rSYVa8k0Lc+64vr5IUpcvs+1W/fCW6QTQ2pT6SQdU+6BYsve5TstcW1/s+gi7IW7UTlfrCZAmqdYycDdbrFSYS4ms0KBt5hWf/mD9DwB+fHwfP+yeno6f1+fv/fc0Hh2/xfPtXw==);lineShape=1;strokeColor=#CC0000;" vertex="1" parent="1">
          <mxGeometry x="1171.516882415534" y="569.8309549186126" width="29.46510530644673" height="20.846295964479623" as="geometry" />
        </mxCell>
        <mxCell id="lsgI77zBe2tgthgqGCkg-53" value="" style="shape=stencil(lZfbchoxDIafZm81tiWfrtP0PTITUphSyBB6evtqS7xZC/xnuFsWfWsdfsn2xA9v26fXzRTc2/l0/L75vXs+byf+MoWwO2w3p91ZnyZ+nPjh5XjafDsdfx6eL79fn2bL+enH8df8hT8XzjvyfqaC+/v+hjz/f/H1Yr/fHVb289+9faUUx/YcKNX++5WCHwMi5EoH6AoZrBCFYu+ROJI6BpICoQOiJ8ljIDNF7oCkUbkxUBwV1wE5UBQAJCp9loqnAFyqnnLqgUIOAZFiv0LVGMIY8M6R64OohTIIIhcKfZqqVg6kKSfiagGPChGtNtQlAWrNQtKXumaKCQPGpQT1rS6912kBYiv+KGjTEAo4IFdNazJ1kDvVpwAXADC5aAEBWSqxzYgVUICYZn17GzQqXMlUg61DQCsUYrGV9hhwZoXlzcgl5y1QUFNriAaoJLgOXCxQEKDDuA961bUjMdm86hKogxLVaAEkJm0IiTZNcApI68hV5QruUZumxckRUNkCaFhq0N64FIlRDNdyFcpI3+5WyyH1BWJ/BaApIG1PW48NEPT9QLmSRml6HI4NUzjGYyPYDioVNrXWwYy+OW+ocL5pc9mpGW6LaZmMy1mAKYPxHaPdUWKAQUu0K4hv+r19xNL9o58C7IlBPwRuW9pyxPJttt0+C6gDvTT0DdqCHKW+4bg11MDctFuAwrs6mITPvt5Hq74DlTq73frG384NcR+qowyqu8jxw5xBqEwixhydzsWqGe8GkWq9wzxTiNYZ1L1tPq1CBWWqLRGrRCJN3nlx+dxeHz5uSS+7/f5yyVr/b29V+upyI+PHfw==);lineShape=1;strokeColor=#CC0000;" vertex="1" parent="1">
          <mxGeometry x="1214.9641044126274" y="568.1737861672941" width="26.754450006908883" height="66.45843883576435" as="geometry" />
        </mxCell>
        <mxCell id="lsgI77zBe2tgthgqGCkg-54" value="" style="shape=stencil(7VjLbhsxDPwaXwlKpF7ntP2PAHEao2kcOOnr78utIXfJ2NPmUCCH3taWZsXXDKndyNXT3fXjdpP56fmw/7T9trt5vtvIu03Ou4e77WH3bE8beb+Rq9v9YfvxsP/ycHP8/Xi97FyePu+/Lm/4fsRJJkkLKvOP4z86SPKvfz4cAfe7hxUgF6rFAUqi2gCAaQwHqEK9XgakTtwdoAnpAIBCpTlAF2IEsGUPGEKtA0AmzR5QqIEopUQqHtBIGQCYUjCpwxNslf3+QRUc0Ch5DxIzMQBYUFM8oIMYCY0W92dUF1R6dDihHJCq31+pgiTzDMdpv1IH9lgCgr+ZekH7ObyfqQnan72/vVNVFE+unjaNBNhTqfj9Rf5UcexLVM2BBFmj3oM8SIFFyWrOm2RMZXCC1UTwWSmhEBVSnzNc0ipUSni/gpSVF/ZYDDIAVI6kWTwAWldH9EDajPJ5GncST7PCU5vO60SdFp/qKMETjIbVm2RnosI2nofK68Y9xGR+wZ2eaYBEL9ITFL5QBnE1QApsw/prXrP3ug9Ye6Y+GvTOGA70yOSnaQQ0QB/Tn9A4DaDIpBSLyXxAtWHvSyVGqQEf7H1SYx6QZixBDCZhVVos9uXa0+xcl3zIPkptwOZvUQqNoTUq6ATjvG+dzbQWZ3r0CBAEOHWyFQDywVplAODmaXwQjlEayCRb9k4bRRNonwsgUFTh1GaAQCCTKjTxmNNhAlg6KAK0M5weKEqFJExtWMmsNIL0LQCklYkGR5M6yjTP2lw5DWvptQCrnDDQtwS7aDPZCpMJVr6aotxrn8Jzvu8m6h4geNazxl690zbvFpCHpcsGQIINxUYdCcMPHves8Q8fVptWCnDaDAj9QSsxKG+7J1VvUumT5ecBNebBUjmAD0nnVXAlAmhg+n+x2ryJi9WIDv/zixV4/9u7WIW+07BW2ADt42MXMXQJGLMDnGhZcfw1zhdaZnu/pBTqMyx4IDGTUtBToQ7GNuHY1wwA9TRPqVoBEMtsOV58dM6W5wE6k7rSUzTc2nIEVNhqbVmCYnfsdH2h2Ay1aAH4UtVMgk3ScCFWWHvmdA+f88qUj0th7eGEBi/1lrjq6WPNHBXfq78w/gXAHn5/0Lzd3d8fv4eu1+MHUPvr+PFU3v8E);lineShape=1;strokeColor=#CC0000;" vertex="1" parent="1">
          <mxGeometry x="1207.116079459212" y="559.2183633855302" width="35.4457428916171" height="26.89955568834398" as="geometry" />
        </mxCell>
        <mxCell id="lsgI77zBe2tgthgqGCkg-55" value="" style="shape=stencil(7VnLUhwxDPyavapsy7bsMyH/QRVL2AphKSCvv4+cxcNY3unALQduZKOeseVWq+XZ8cXT7dXDfhfc0/Pj8ev+5+H6+XbHn3YhHO5v94+HZ/1rx5c7vrg5Pu6/PB6/31+f/v1w1SLbX9+OP9oTfp1w3jlyrsGC+/3yE/n694fPJ8Dd4X4FqJVqHOIjBQbxhUoY4guxgPhMaXy+ZyoJAALlMgCCI++3AUUojTsOmSQDgKM6AhgvSZjEjzlylMEbcqYw7iEKMchqKiRjlhJTAptOngqPgEqubANiojjuIetBgzdwpWwApafhPCCSH9MqgSrYdNAV1xGQ+yLPA1Kn8gKoxA4AAnlDVk8pbAN8oTimtTBVkFYl8wsRFkCiAJYkFGSMjxQB9wIJ2x0EUG+OykgkEYqAqo7YxMf+hI14Z+IDMTizSY403sH1ePN8PTG435RsvAf59530S7wjQRTqVbWKR3rHXatW8R7kU4sw2ngHGDqVcYsH+Z/kt60HFKWK6bxfJKadXav4jPqNrUg9Lwfj7fp9P/GNeNM9Gt9A/r0SwhAoQeX1YZK5QgFpSrAdVkuY0ZK0G41vUI3IaEnRFoH2REGqpVscVaW6nufzgNxFagEwOUAjv+RkAegjQN1oYbqRSDXCLt58x5gldQ4eMEP7kzPSW2F/YqEqNq0VLElbpin+5k3AwamNMOegAOS+4iRHCkCbjmy7eHsDqLcY+xZXgIyWlKYsFax4KknZAgTtIVM2BVQpgopTQJjo7dAbEnGygAy6gmbJnHT1UIb14HKwAKQaca4HDFDyJXnPkrh0S7reNAKok4hTWlE9SG9lbzw4BRhtbdTAbzBy38iHRKD07rSmN2Kr6zq3AiDPqQdn6f3PErUmVTA1ou2JryPQFr1tlrCQaQHFYNOK+kMr0Ulb0dh55g0VzmBtD+PBKfki1qX3AViszFTs/VnLxahGxl6erdnW6Rt20TQN86/z/Zad8UYFtIIAmXSAMrqUoL8qXRdXSUrQT8okY0iK8zRPFThPJbsenb/QbUG0vkTNWAFEDVSMnyyQp37ynxmu/2M++piP/uf5qFqNa/M+4EO1g4LEfoOxFT/qlQjkv3fWhBR8wDpNGZtTAp7XpBN49QYEaHcuhnNqQkDjUJIaT6EzJyqasAwqq1OuyOYke4+Vpd8wbrkWP/IiM7xnilMhJGz7U7SVkEJ/xPnK9PaatpkGdOtarVaoJy7g4FSaeboIRsVWpts41Q+kpm0OH6nhK5Rr7Y6GrcrfCLKk7ZdNw4THoFO1H+OXH7bi7f19V6iteOOiHLxP1Hhzyg6yQu1JqCYe6a/Gi41HtakWjouJR3pUxdYyNmh1mliwfKl9MwbNwXv+9n3G7heJlzpQo3YO3sFrvNj9ovlp/r7kqCK5fu8HrDcA9I/X72U3h7u70+e29f/b72v60+nbHF/+AQ==);lineShape=1;strokeColor=#CC0000;" vertex="1" parent="1">
          <mxGeometry x="814.6448520317342" y="655.365224820704" width="52.79520547662287" height="124.72888464639846" as="geometry" />
        </mxCell>
        <mxCell id="lsgI77zBe2tgthgqGCkg-56" value="" style="shape=stencil(lVnZbhsxDPwavxKSqPM5bf8jQNPGaJoEaXr9fakaUqzZ3Sn6ZntJSySHw2NPevPt/vb57hTct9eXpy93P88fX+9P+u4Uwvnx/u7l/GqfTvr+pDefnl7uPr88fX/8ePn+fNsl+6evTz/6P/y66PkiMXSt4H5ffomS8t8fPlzkH86P1/L2uC3yVUog8kGSX+Ttl1qIgpOkq0KRRhSauPWAoFLqsXyRuv6/OgnK5P1qsJrLIpN3eXVolEY8VMbpQz4F8eT+dTyd8k28pw4FB+UoxfGQlVWhSSEW+yxpvVKJUtOxQvB4QmkUFN1Jqw01SiRBU5XkVoUqSryqDfOgeXHE6Jgwbm36bVcheQRSs0sSLyVD0laBICkresmuxFLB4upXrDYnleVOEl/QrZ5gqbqBzavAZWJDfwwKjhJSLePGE0t5MMg+Xzi0oYTh6H0Fj4yR8yC1fYUwsDkVLAeJ0f2EhBwQCPi6DRuSUYIl81JY4W0spuSEqiMhp4LnJziJwMOF8piFqa1XMuKujFidlNVLwYmSjMtJ6uolb4An0LAw4ZUMjgTelqJlPUF5xqWMzKdVHDshiwOFNnhkX8FSdPVSdFzBvN5QoTKFMOrfVPADXfsK5taNAotDbCPlr66UCfhixYwzL1WSorFI3sShcAUFBWsDCPhMIa1x0Dzo+ciGsJYsTSP2R14Kq1s1Dlo4igPU6V4mGVoD9jKmoBxLKaJCJkaniClqNlAspQ0vTcAfJVBsGAdlV8qSAUuFe8niCidUCj6zAZqTjlbm1ji4+iofWAtngdvJOOYlv5fTzAY3aOuaNXiKloIKnkTaEggj3WivYQpQgSxwzK2xoNEGDdacdAX9L4WK3YwNG7RJdEgzIdEqapEGqgyOtj9pTlOzKEYaaZsWGgxksyHar9N+EONUUAq+UjHSNvKxolgDnhDmkLOvkLGVtsLOuLU2yeBWmzNJHKw1h0bXeCmxFs54CWqc8p6vYvtjSZsJvL3b5Kg1OGxqag25Mleao61gIGzya6w13jBZ7xtJqK3TDavVNdFuvT+Gya9Rrtyiz2JZidGG77qe0ObMf5RBUKjN0YFXlLYafRXLo14AipYdUcidYthYXQd97g/IGdcIhmBmhCVMdOhXlnMhIH/bcEkBnjdbAeWbjdlFTrhyfG9s7qMiOcC6ozWnbVJkzLfZgySLGrHYYX4a/bMpzuGuqO+iqDzkjlVQtltymM0WdNZbWWWACS7QCU5xlvGJjohps2x0tCO2lhv8P7ZA+9f3CGlPc8bkoQ3jPZIP2C44/v+zG3+TZ3DulV5BnsHZJyybJs/un6Q5kA9s1zu7pzd5Nub5zRbDj13OkTzku6fp1TfN6/2NkgjFdXloIMcMdyRfYACj1XJ3Oc/t/ccy3z68vQn4dH54uLxIuH6Obw7sp8tbB33/Bw==);lineShape=1;strokeColor=#CC0000;" vertex="1" parent="1">
          <mxGeometry x="787.5778838789213" y="801.4289950181153" width="50.115103894844424" height="59.24325802380736" as="geometry" />
        </mxCell>
        <mxCell id="lsgI77zBe2tgthgqGCkg-57" value="" style="shape=stencil(7VrLbhw3EPyavTZINp9nx/kPA5aiRRTJkOXY/ns3s+BoWdypgY4BfFutWEuyu6v6MXPSD18fPn25OwX39fXl+e+77+fPrw8n/eMUwvnp4e7l/GqfTvrxpB/un1/u/np5/vb0+fL3l099Zf/0z/O//Rd+XHBOUumg4H5evmhFmv/vmz8v6x/PT1frVZyf12fJcX99lhrm9Uma7q/3XmpGQKwEUG7s4NI+IEQJbQbYN4Vc2YurM8CswABVnJsBXiIxUoxS5jvUJr7tA5IXnd1Qs8RAAGUcYAOohEz8prhDaZKIH3KVDIAkmQCKoh+KHz9xG1AkzXfIRQIBVHPcvEMONPiqBcLs6VSlECuZ1cscrSmJdwRQ8Q7mysIAbfx7AGKVSEKjGaMBEKURPlhsulkCoqNH6sE876BZPAm+5jE0jFLMcc3jpU1HWGh0wGzWECQRx3WATgDfhrLt3mG2ks9HgDRz2qtEohoGCGkGGMuZWd34vY3TQ6j2QgmukCijLVbbTB+VQi5Qy9DdjdCSSODVhORpQ/v32JnnqPBBPKOzjvttgCjKyBakzIFqTla2g18ATZTZ1LgzAywDH+wQAgKoYDhps1WDp4FqgBwRENiRHKqkAZQEhmWO5hEQyR16qlmOxKxUtnR5BfAklkqV2tCsjR3J0ltGQGKXrqjDBvAsH5quL5LEkk8HRAQoKTP6kUBhKs2HZlZIDVZtscrHAFCM+URTg8VSAYpaiiZ3qIvSe3Mc2yFg8rFYYSqmo5B6UzGmwqZKdf79yNcXVO04ImtXhWenpUHw3fyvcP6DbN6guh30vr3e7JMXB7ADRaSauTixvJaH/FxlzkrCtJlHV9lmd170xQDMCQaowJxC9cU7hz2AIQorw0wkgWtVlJ8JqcPZbIBVYJgMt4qh0RWJ7WCKlBDAUnpvNsMCYEcqN+7AigwDuAXAigaLvtWsmR3JQgfiu4zCaXeHRVWVAewOYCVrq4lIdis5BLD20ADI0Uzju3t6OZJjd1hkzAC0B2hYKRmAykbDctIA1A8r43jBeovUlZup4TTDAAcqkADQaJ/etW8pAthAxhyRF0LQYKrYRR8BylJ225E4R98JiKOouNZvFhthjCKu6pKDDtQDQOmRep8O4RooISyvQ8lqeZS1rH3WMDNoS3t76+scrJlKq63X+cqV5nVr33QtBJiJ4tIRB9rVWykGnYn1b4kBwlIIVMqe3+3YAPxux/4H7ZgBGgIqm5g2pHTXSTaecIuwWvXO5xkOLh34kCjgML3LHheBAJNr3lFuEvHWL7HUYDIGbFA+wd1mztsFeD/ZRiCP9VsRsTtdBRfw0WfAqZvyyWdYJtCUadbvAZcP6mddeON5ZahLM6a8LVHscHvtybL/2rK2QwAoZKCjUgMA0frAmlUwy8MP3R7p7AFgFKOZPrUyP8OgJDpeDlvynAMpJvrUqg+s50vHNkbYu1SAAXTgclRRLFLm+TxhaGTHs20Yg4INEGm2XRNPf/BFYqlE3KEoJVBuWCaVMoLlNmCphnuVQqyUKvYMZjemScljejbPMCtZ5ITlCSh7KKtVFIpbHd/cBvgFkCinQxyPkTcAj6Xexc9W6n048UMv+AMCaE2CbuitFnuujAW9rS+EoH6UH9v6Rp/te4yjvp5c2C1DA8dzm0Pu9A2Ikx2OkxrvPN1QxKv1TF/cIOLVevaIzmGxY+sZDZZxQZ+C8N8PuL4QhznszN8GcHv28bien18Lrmcsfu/LJMfr7cPbmyv358fHy4sv1//HN13sq8tbMvrxFw==);lineShape=1;strokeColor=#CC0000;" vertex="1" parent="1">
          <mxGeometry x="861.3649420954353" y="724.0021848619876" width="150.13496460724605" height="131.83111956260814" as="geometry" />
        </mxCell>
        <mxCell id="lsgI77zBe2tgthgqGCkg-58" value="&lt;h4&gt;&lt;font style=&quot;font-size: 22px;&quot;&gt;If the Exhange rate of the currency increases than those with USD will have more Domestic&amp;nbsp; money per unit dollar&lt;/font&gt;&lt;/h4&gt;" style="text;html=1;align=center;verticalAlign=middle;whiteSpace=wrap;rounded=0;" vertex="1" parent="1">
          <mxGeometry x="1107" y="701" width="257" height="113" as="geometry" />
        </mxCell>
        <mxCell id="lsgI77zBe2tgthgqGCkg-61" value="" style="shape=stencil(lVbLctswDPwaXTEEXyDOafofmYlTa+LaGcfN4+8LVSUj0CY6vckyViQWu0tO4e51//Cym7x7vZxPz7v3+fGyn8K3yfv5uN+d54s8TeF+CndPp/Pux/n06/i4/n55WCqXp5+nt+ULHysOM2S3oLz7/PsGcvjz4vtaf5iPm3pPwEnVF6Ayro8RfFb13kGmMSBFYK8BDMxjQC4QiwJEhJDGgILgdMspgYtjAMfaYgVkBm+QxATECkABQjYADEmvQK2rEYBJjyHaPRRg1ACGaMyBMyQ9B6HBOwMQwGllLDR4Yw4FSgdgyEbT0mKgHlAMWosDp+cgNHhDGpQhBg0QaRg9yFyL1hI7SAZL5CFqP5QEaMxBAEkDqInlNkCE0GlJeDPUKk0XvYLIm21as5ZGztW0o8F1as0JkmVR7ucgALbUGnqWJBbQWEHk3fmBsMpx5DjUWxLeyJg0OtfnTPGAtqmj5rXYDhKDxc5BHshOstDJVZpAA+CuABJ91qgTFD3qDQ+jOO4csWSVJXCq2tk0YbqaenEsAEPgifqgEZ9b2SenXNCTSxJlxgqhpUQ7tJI5OaQq5woILQ1vH4u9+OQNGSSFunyrjzXabm8IWNvBe/BGA5IZev8oQjKUd2UeFGUZ14Dr+pa0o/10mgC0+AfW9GRAwwbCpv56y6fRsLR8sCbsbctA0seag2hQiXIfwq7eciS2q8Tm+8Z2/vcO+e96efi6sD7Nh8N6393+319w5dV6OQ73vwE=);lineShape=1;strokeColor=#CC0000;" vertex="1" parent="1">
          <mxGeometry x="971.149973821251" y="536.4131645694015" width="27.75232969148517" height="22.254387120161386" as="geometry" />
        </mxCell>
        <mxCell id="lsgI77zBe2tgthgqGCkg-62" value="" style="shape=stencil(lVbZbhsxDPwavxIiqfM5Tf8jQJzaqBsHjtPj78vtQluL6x20b/KaI14zFHf68H54etvvJLxfL+ev+x/H5+thp592IsfXw/5yvNppp487fXg5X/ZfLueP1+f599vTZDmdvp2/Tzf8nHEtUmoTSsKv+QsXKunPl88z4HR8vQHUSHUEiFDJ24Cy8qBCOWwDciLmARCVEggpJSojIEXisg2IsQfQAeazyDZAI5URUCpl3gaIJa0DoOGQhKk6QOlluAvgSuIAjRjkwJGC63QIFEAjGtXkPWTQ6UQtj/YVRiRUZbRPlMD9ofNssReSiOzD2LRaKYF8A+UxHuM6koJQiqM9k8L6pOpJVECLG8WR1qVQAPGwUh4pUXJ3eR9QqAbvQRWyNLoUWqfhlg5kJF0VCiCkiUSuqAnmILlzYAE0UqS01IW40EgpABpNPHU6MJ9Iaa3T7EYICYTEaQUw7YGQmH3SBmiASjZLmo8IDW1dSc2YhKYRKfuaRmAfiJ00GxVQoUAyxmOsaKii/bYb2kXUMp/vZA94bdUe61lseDRwf6bmXhyGs85o7cSfAnxxdJkNy6sZSEHKMfsc1LoClJaqb7K9QUiaZSX+Rdxbq4WM04U7be/bZ8pjygFOL+MYV2cP3z9jhTp7pPvpiY/OvoH6TGNkjEfgMDXNhjEe7ay6b2+zufj6Y3s/e7tM75M6rF5Ytg6AjpmHOHaMBbK6rTkX4Q5iNc2jkjnDSfTfC/A/AOzwd99+OZ5O87p++7/fz+3TvNvr428=);lineShape=1;strokeColor=#CC0000;" vertex="1" parent="1">
          <mxGeometry x="964.565644934853" y="529.5270199013046" width="30.03596380459385" height="33.665282193386965" as="geometry" />
        </mxCell>
        <mxCell id="lsgI77zBe2tgthgqGCkg-63" value="" style="shape=stencil(rVbLbhsxDPyavRKSqAd5TtP/CBCnNurageP08ffldrGuKcXjHnqT1xyJHHJITvzwtn163UwpvJ1Px6+bH7vn83biT1NKu8N2c9qd7TTx48QPL8fT5svp+H54Xn6/Ps2W8+nb8ft8w88FJ1TzDErh1/IhVarhz5fPi/1+d7iyT5Ga9gCttwGsVIsHFGK5DSiZSvQApgYAtVFLHpCI+TZACpXqAEzcgL1Qa84+UAAcaaIgnb2A+7VQ9BQVUnR/6ymNeY3oY4CufFzlQAFDMVwivFAkJABhT1QPKJE0AYBQ9KRWJomQJfFZa0wJRZ1IfSE1paQgzxaDLySJ8AWpxJ1LQooqiSl7ubVEFb0QKXq5VYsKiMFCFJ/qEkgLBHRy4wYzLYGST5wVE5KDmBz8C5HXJvIxwKrZv4A7hpgeen0iUtUY0c4+osrLfali/7Wu8r0EHImxFqSjNK61e0tt4iPgTBlkeQb4lpGNNKRn63keUK0lIFIrtU5tAbvEpJ0W2nrF/wHMWvAumZPlziTx4rlqhP84rIw41IrHcThXC6BpHLh6Rw39RDf7lkHQ/TC0cm+gMnLf6DXC8Zz62ja5BuBPpOyHpzUcASkIVLw/NhYyENsw2WqB28JgXxosicGfLFDLQ7w5UgH+DHxygVNtyBebh6DghnpIDW6EMux3eIO8v3Ha4e+6+rLb75dt9/r/fr21T8tqzI+/AQ==);lineShape=1;strokeColor=#CC0000;" vertex="1" parent="1">
          <mxGeometry x="964.2964982153039" y="539.7035579652372" width="36.23101622065146" height="9.1260275489669" as="geometry" />
        </mxCell>
        <mxCell id="lsgI77zBe2tgthgqGCkg-64" value="" style="shape=stencil(rVbLbhsxDPyavRISqec5Tf8jQJx6UdcOHKePvy+3i7VDrneKAr2tZY0okjNDDfLwtn963Q0c3i7n09fdj/H5sh/k08A8Hve783jRr0EeB3l4OZ13X86n9+Pz/Pv1ado5fX07fZ9O+DnjUqUaJxSHX/NKppj/LHye9x/G44f9uVMoZn8sFNM2oDI1G4A7pbgNaEzVRkiBQgCARqXbFJhy2wb0QBwMoCTqHQCYJBlAzdTqNiCG65UXROtLoe+H6BQtQIM2kHXPPoKuFNAILVMUC6jUBXSuE9vO6SUTiFA0h2a5EXDrJjY1HyKXbUDq1KsFaFoIsKKflqkDgksjyRYgFEGvpVKw5FB+BcAm6R7Q9AhwpZR851oiAVfKkaqtkopKAPtKXFK8AnQFAGr0VWqBGtCcnsfiIxSQ9KQXS40miwrvC0J9iC0gL2XYkly2RnNzki2AK2vXQiNAoeo0mqiiHAIVp4dKjKrEK7Ze2bVlx3mluM6AGhphBWgAoObbnM80qsBnlN7dAQpsnAoor8qKZpBKNDoTiIuk/hMgeLbWSg34kgLYDq2iho4iqICsa2SBSeuYrbasSaDfs3j7FoFvgcjUrYA4wBEUvUL7oo+721czVOcVOD2QuKkOb88UbIsTJVAd7Y69u9IcSX+JfR2FVICfxuQNWCuJHhh9MZ7b/ghEqdcv/nw0mJVtyZ+PBoiUpRq3fBGbU/Tey/D+KXv2C2W0/x+ftX/frx+3N/TLeDjMT/CP//s3ty7N73V5/A0=);lineShape=1;strokeColor=#CC0000;" vertex="1" parent="1">
          <mxGeometry x="973.4592749377498" y="521.5987929641312" width="12.748206041258072" height="41.963386830737235" as="geometry" />
        </mxCell>
        <mxCell id="lsgI77zBe2tgthgqGCkg-65" value="" style="shape=stencil(7VlJctwwDHzNXFEkwfWc5R+uihNPxbFTjrP9PlCmqIjNUcu55ZDbWEaLBNBYddJXX+5uPt+egvvy/PT48fb7+d3z3Ulfn0I4P9zdPp2f7ddJ35z01fvHp9sPT49fH95d/v58s0guvz49flve8OOCiyrFLajgfl6eOKnt94O3F/n788NWPkqOg3wSX4h8kjq+3zuJngCKuDwCspRMAXW8UVDJlQCqxDAA1EliOlfJ45W09Cd7gDICzGzKlDZAG63qpAQKALOmLC1ygB8AOUj6O0DpZ77wSiVI4GZFQJLGHddGKxV7BSNfkzD6oXrxzA9RnI6AIJVcSVXSdEIi1AhFQhp1aJStwWOAlkIj1MIF2FqyBKK091LhSlESMWuRMjLDHN2YzqKggZFb9+UdBoPJeyoPXs6NMtWJcygfSSiYfER5R1zmRMsoXw/0bZM8S5F+iswqPjH715HUFsmNyCuG2RL55P6p0+uFmSJj/l3kCX+KpIT6OvL+KklRngVAEw2T/VmEBXSYEZSld187v1aAipITzEQVQsCCjrnMbDolLlo1E5KiWmYiQZ+0c7gDmqdRkF1vDFZAFM9okSZAFkestIRVHQGlu/46kSJGsp3ACohZXeGEJEpSRXWSR8c17Wy/DrBepaBZAyO3JfNRh2plkSht/3ZjeNorWLjVhn6oicZbc92vmyLoiNIGgAxgdmNVc7HJBGAprwU8wcosy2HmpuYQkNkJSdIMYEpbYztV/kK41CxrOFSa+qH1pLIBKKG3Adpk1sp0aL1wbDzNejwDxKk/YonMlE5wpUCLv5k1OAREZqWEEVd5J2xpy80AZqXQ26cNQJnSXnTK3o4BLIAqmpWy1fW+d9sJk+zdpqbKqFFYEXUYQAZgBcWUxm5+peNeiOoEyIx8carTBmA6ZOw0DppzI1+rCGDNucUDpkqzEqN3wyFpKTEkVXo3tbeLqwm/dxD8UgHop70n3YtqZFPqpt7zBEzQ1p4cBCkMJVbGCnNdwLJoT9gmw+pogeYhUk/U2DPdpttoJDMZd4B+jZd26yLzqMPGl9dbpiIZurhG75QDOqJV2tynhndq68h7HRBxf2MZ2pM8EG3agSvxEqENM435ktVFdbiDWvhNAMuIOJq1rLuKnZjD1tV6U9YMRJyxiqf9zP8Z+v8M/U/P0OvKdUMIWqXWpLCJANZU+WlrWwI1kfkMYmDZgxGdzUgY9Vk8UVp1Wv4VmuC1Tss/3sHEgOv5ukbGHgDnnoOdqmIHc7S11T7Ev3QvPAGONs/aU8lLd9uKHf3R9lwxfR3t5wM2hssXAA6o8zcG7rg0nmBVKzMdfFexA4zwbBSLHs3q+bbE6mwZQ3SJck5vyGKpr4qvy68rqvWAHoF78rB5XsvinjxkPUcX4SYP8zOftxd9M8izpGoG9fh+thAz+YrvZ3uY6DBb8O7RGBHRno5RLsz3Z02IyRe0PxshLSwDvj8yRitWQT5L/fXH0UN5+/HnS+z78/395UPu9v/45dYeXb766ptf);lineShape=1;strokeColor=#CC0000;" vertex="1" parent="1">
          <mxGeometry x="559.1882137034286" y="712.409331550507" width="62.70349980008307" height="211.27896480363268" as="geometry" />
        </mxCell>
        <mxCell id="lsgI77zBe2tgthgqGCkg-69" value="" style="shape=stencil(7VjLbhsxDPwaXwmJFPU4p+l/BIhTG3XjwHH6+PvSdWWvuN4pciyQ23pXI/ExHNJayd3r5uFlveLwejzsv65/bB+Pm5V8WjFvnzfrw/ZoTyu5X8nd0/6w/nLYvz0/nn+/PJxWnp6+7b+fdvh5xjFTbScUh19/31DlPy8+n9fvts+T9ZKJZVgfM9WwDNBAUgaAMIW6DMiJYh4AqZKCE0qmFgZAFmLgQzUf6gAoSgJMakJpdLomqghQqYwmtUipAECjPJrUEhUAiCFQcEcolYaPSCPAMhehE5lHQIE22ecQR4BtgU5IPnNmJCMfmNIMUDJItTk9sm8SuCVy1OyPaMAmo0JMM5sSAERv08lrBQRvpNXHVYHXpc64YZkDiSiWuZHgxo0CTLIiDc6HQAXUnMkAjyaZV0g3xEpyJFPOPW63AYnSmIesvWyXAK5Ir9KzpH3BncCQGlJJZoAAqJEiiY6A2Bl/G5B6miaACBJnWuryYAAB1FD7zB5QQR5Uel4nTqMaVfUdwvS7oZaivkQt0yhxBmCXh0wJOS2kLqyFFNO7jW00V9hSUunaOwFUwCXLtKdGg0KWzKTiT0AiYGx1IpAvb5ZKtIqPEqK3VVx2TtsWgK2nmnZhTV0Ll0xKo1QalwTVdJkBuBN+KazsTIqkoB6SUJ5VXESZLl5bDcCIrWEmM7H3+iV6h+ydRlKp1qizDyuayd4NKMEDbKxDY2JVP8Rdx7qPEetjxPrvRywDqEu1QIIXi9KsIpAMmLzraJKdyaiP1v6vZ6LfgrRP/UxmWpWRfs9k4Nozbhep9qhf2Nd6Td0EBM8MhdPMTAJS5+7S8tEagfUfvPEM9YX9/BmhMTZFqVsO/3j7gTv05nu7xvzEEyiCuMfohwUsEjH5RNn+oEXF4ptg6PVze/2sHVhXBvbwpctPgo9y9c6LlX+vt4frLc7Tdrc7XwJNv/tbH3t1vjGS+98=);lineShape=1;strokeColor=#CC0000;" vertex="1" parent="1">
          <mxGeometry x="577.5437463118055" y="1050.2411384116676" width="20.844771078275244" height="56.889034275251824" as="geometry" />
        </mxCell>
        <mxCell id="lsgI77zBe2tgthgqGCkg-70" value="" style="shape=stencil(7VjLbhsxDPwaXwm9RZ3T9D8CxGmMunbgJH38fbl15Zhce9Qt0PbS29qrWfExQ5FaxZvnx7un9Sq455fD/uP6y+b+5XEV361C2Owe14fNizyt4u0q3jzsD+sPh/3r7v74++luWjk9fdp/nr7w9YgLjlKZUMF9+/lPpNB+/PP+CNhudhoQswLESt5BQGoKkJgyBjRtUilUKwB4SlUBaiPPEMAawLWH4Roga5O4EUfoQwkK0AI5sIMXi6MGJHIBACTq2qSWqYCw+kRsTJKwegAIFHSUWqUAwtqopCXrKzleYlCimpd4HKjyopB2a89zlq+vnylhQApHTqd4wDpZ7zStA2UQHxGaV+szUwLxF53p/KZADPyV+Oj8BqYIvu/J6/VvnL24PlLS8Sk9AJc/n6lpQju4XvhW9PdTd+iyOUxN51ckhDScHWUNEA8SIFyROqRLY2yw0lWpQ9qFHMgDStQTI08xjRRBeZ8oqUlUY/fqsugrsc4y5667y4DWDTgBmAKSpZsJoQl18RbFACK2iS21pRRFYJO8dqb6MgbEWXFpsHiJi0H7cBaHa6kzepMtEsp16uw8c8IDJzh0H8/C5ICE2JOrNhGo5LGjqskhcSiAfrJD1iZJGBpQBMfeGpzxNSOn5bXhq5AJOX1qb06A0E+uy6n2VLwFIKflHJublLBITXchXjksiDbrkCJInFCtaR8kcejwFACb01xOH7QDExtR48QJN3nWv1RwPktYgxF16y3QtcTZstF63K5RYy7RivSQZz0YU0E7BGqzSsaoaiwFyBlkAPIJBiaVZCUqfQwqfblQMQOAh41VqraQyVGM9BCzJZ8c9hFoWloF0ztM3QQgn/QiVSdu0PxME4MZxHB3NbVvOg+D9m0aYrSABv2hANqiBvRfzVWoZ/0rc5XZ4f9cNZ6r4Nzzp+cqM2cMrgucnQMG9xHettCDCw9vx4bBjYrvte0Xr2w8Va2ZKSNIZJTN3Nbg96OdAERDGcQzW3996b3uFT5nzR+Z/NDgJmzR8ReJooZNBOndIkCyffDAInEwLnLZs22cBzGVFEUDwEkTVps+eMSK37gpHAHk4e1i8mGz3R7vNc/f24tM+et4CRpvvwM=);lineShape=1;strokeColor=#CC0000;" vertex="1" parent="1">
          <mxGeometry x="562.7466402240846" y="1028.406227674431" width="32.31369703014837" height="35.675256082070064" as="geometry" />
        </mxCell>
        <mxCell id="lsgI77zBe2tgthgqGCkg-71" value="" style="shape=stencil(rVfLbttADPwaXYnlcp/nNP2PAHFqo64dOG6b/H2puitrKWmKAr1JWo5EDjkkNcjD2/7pdTd493a9nL/ufh6er/tBPg3eH0773eVw1atBHgd5eDlfdl8u5++n59v969NoOV59O/8Y3/B+w3EmySPKu48/T4j97wefb/bHw2lmL558b58oybZ9KCSuf3+gHLYBSdpxA/jYXFwFZD0uHUAS5bINKEKldgB1sjIA6HEfQ3KUgEvVU+AOkJkqYKkqJ71LhckDl2om37OkTvq4DWDnyPVB1EQFIGqlbACZigOAQkF6QKEEEqEOiO8BteVyHSAUqwUUxKuj2NM042E915lCXnwiAYCmji0gAAUVTzFamjII4l4K80SA8iuOSh+1Ml2RS0yhl1CNVLGEXLQARiypSE3mAkUUtJZzsgBGmmOSJQBJKKwABAlCSYwWUFC5liawGUuoWY6lZvKQWgFvAeqiNEKFLtkYVLVI1JnYdIGK8xAW5V2bQrYSFxeKg8VXViRaAUtafMsvRMCSljcXyxJ0iVc0jVgaJWoAU0f/P4CsHvdBK29oaCnAaFqjSqA0dPCasZh17iGXfONkmqMMR3tSxfVdI2r3BoBY7DYjpbW29fVkWhWmbSNTBl8QzbTZZzIsPk7k+xhYhxJolUpSP0Vxk3GLZaY1zg1zkwJp2tgwN0uDhzuDa73kbs6g32n2zXRuyt5gxuRqin09t5TYmKPq1EqIxpxR6yWXjDnaK5jtSqj2qGyEkn0/3O90slRjn0DX/de9/+/2enH/yXg5HI+3f5T5uf0p0Ue3Hxp5/AU=);lineShape=1;strokeColor=#CC0000;" vertex="1" parent="1">
          <mxGeometry x="615.5101522711402" y="1036.7986340582013" width="22.610667181100197" height="73.42047572535941" as="geometry" />
        </mxCell>
        <mxCell id="lsgI77zBe2tgthgqGCkg-72" value="" style="shape=stencil(7VjLbhsxDPwaXwlJpF7nNP2PAHFqo6kdOE4ff19uDa1Nej1tbgXa23rNkSiSM+RqxXevm4eX9SqF1+Nh/3n9bft43Kz4wyql7W6zPmyP+rTi+xXfPe0P60+H/dvu8fT75WGynJ6+7L9OK3w/4XqlnCZUCj9Ob2Ij5l9vPp4Az9vdBaB2kmgAXKm124BSKXYDyIk43Abo37EZQI3UwQ7C1KoBtEYBAXSHYAA9UMm3AdypOQBTKQBQSMQCCiUBgETJ5qG38WYRkCqxDWvvlEFYk+5gExdDoAAQsVKIfovSASBRqP4QGQAqleajVEFY5SpvQhyBQ5RdFiIxKIxAMftCiqAu5vjN9kIVBYiiDWhTD4H/lZL1p2idgqKYuGsd4kYCHOJMbHeIgSpigjLLAioJyljyRxBqwCGpo4jnE8AMZ6ZkSy7B9XOjLm79gtSLqVteZspY7YqlZRt6uWyvylJsAuJQs+WSCF5O4288akOpZkAfArsMyCRsQ5pGkJcBgZqNkSY5gx6S82gxMyBTBQDpY71LAChTEQp85RI4gyq8BH9o1AdV4WPyYU2oJagDjmqZCnJJmWJLVUujI24W6q4PQvKLUt3KkToEepTM/p65UxE341WaqaPGX728K7lRoWqGrD9zxJbtCxW7/txDb3HT+a/iiDKm3EyOm9qfkEfdn0AVPACBnwDtPQCNabVnEFx1SrVii0IlDU0J/+ww5dj/f5j6y4ep4lNWBcYzFmLbOLXRZVTY4hunKqwgrtUrgSxjSF8+gviYljEN3FK87hW1oXkzjGFuLmvqyF7GODrs8XyqH49RnD0iTeNRwWf7iOyb/8YJsON0pbHvUAwo0/OomHPHEbS+irO1L9if7tfvVJGohCvSqGwgLdUdfIvKkAXvviD4A4A+nO8jnrbPz6frjMv//f2FvjrdffD9Tw==);lineShape=1;strokeColor=#CC0000;" vertex="1" parent="1">
          <mxGeometry x="609.3574487507876" y="1039.373626953687" width="15.993519194705318" height="24.914776287787067" as="geometry" />
        </mxCell>
        <mxCell id="lsgI77zBe2tgthgqGCkg-73" value="" style="shape=stencil(rZbbUhsxDIafZm//kS1btq8pvAczBLJDmjAh0PL2eLt1iLxZtZ3pnbPRZ+ssDXzzur1/2QyeXk/Hw/Pmx/hw2g78bfB+3G83x/FUTwPfDnzzeDhuno6Ht/3D/PvlfpKcTt8P79MNP2fOE0KcKE8fv7+A3K8Pd7P8btxfyAdCcUreRQQDiBmBFMCEmNeBREiigMDIsg7kakJQQIzwhkoloxQFZI9oAI4IpI3IYhKlIGq3FoKQASRI1kAABwMIiNqIegVHA6gKeA0UsKFSNdHpQFz44TrhIGXxRDJivbQ6IVhAtTr0brICkTzE9YFIxQSoSw5Bsl5gEPfZJNYLEayBVOCMyKWMpJMpiemlqkDRXqp+K94AqtelB8SoueKQdTJVqxIbQGxFfway2WhqkbI2umaXt1QqyF0counWCdBG52K/kPteWbiVyJrRqctWaVdcB87N9wxkM1tr4CT1FWdGmptPLoBkADVMhXuVvBHpmgihUym2VrVWQK4z+lyD/weQAN/VQ0I0jI6ErLN1GmPG0AoOpIEgyIZKXiA6DhzgLJUg2gTvEI0wMLxWyBWIIV9v0xPOpXbDVXkCd/eH1mlX5LsJ6hyS0cMW9+fW01bUD7pri1nKC+9wW2vWnK9rwF6SctuImjiZA6F6oqsYe8x+efov5RdNgtrYvZ6b/7gT/lm+Hr4W0Mdxt5v318v/+4W1fpqXXb79BA==);lineShape=1;strokeColor=#CC0000;" vertex="1" parent="1">
          <mxGeometry x="619.2886265101401" y="1021.1675665557673" width="22.976818317469487" height="25.282857705728606" as="geometry" />
        </mxCell>
        <mxCell id="lsgI77zBe2tgthgqGCkg-74" value="" style="shape=stencil(rVfbbtswDP2avBKSKEric9f9R4GmS7CsKdLs9vejYciz6OQUA/aW2DwWechDUjt+eD88ve13KbxfL+ev+5/H5+thx592KR1fD/vL8Wq/dvy444eX82X/5XL+/vo8/397miynX9/OP6Yv/JpxKZLyhErh9/ykEs8PPs/2p+Pryj5WqmGwj4W0AUCmNB6QCuUIAOaRDgAWKhkAAjUZADlTKBCQxxMkEicIkDwASuq03Y0hjgDFMSjVMqZBOtE3AROJYwy1UQO0Gol5dKklisClXCiOtDYhlvsAaZ31BdAogRhK87XUjCVAq4UYxzyopRIkzjyW4AECSkMzVfEuNXCCll45K4AClrT6TE8uKQA0r1CNVCoAWC2NmVamgCQaAgVHU6aCaLIj2ggolFDU2j1YABXWt73WOgKsvkFtmAPieFUS5JJsgl5EeBvAlMUDMgKkTdAN0xopsGcJnhC8qC0q1I0NkMa2YZlmVEyh19oCSLDPWAwyCsKeZJSH5CU3RQUak24myqRRpCChtukzDWuUo3cJTUXLqzQfdMIa9Y0p9U/cA6gr70wRNSb1I8hoqCgG7YWwKr6E8tCIN+UtWNNhIyBG5S2bWtJeLP8HYAPCzaxVM7w9g+omaoUzqFQquqEJKEjKjUQwAGTuiV2lmoEgOPYRtao+BTHYluiG1gdjMXJ3YAHYOoFGe1+PVttJAvbc5bWsP7UvRDftNxPO0iLg+9Ynx0KSCv0J3n8JUM+xF/6ysya4+iQ/cNkYBuIUiiP/xlgADckGk1vruc+i2/6n3qMXhyihrZ690Gz7xPY6JiD2iO5dM9y+EKDI4ma7DRSB7ONG9rhNRCM0Onu0C0f1UzDg/T94+wg3BXst7hoGh6y9DiOfDLdUs3d7cKaGv+8EXGA9/Os99WN7+/H3UvxyPJ3mO/X6vb9E26P5As6PfwA=);lineShape=1;strokeColor=#CC0000;" vertex="1" parent="1">
          <mxGeometry x="141.62946151508163" y="793.7792434783676" width="57.02229048052427" height="55.7007823459516" as="geometry" />
        </mxCell>
        <mxCell id="lsgI77zBe2tgthgqGCkg-75" value="" style="shape=stencil(lVbbbtswDP0avxKUSF343HX/UaDpYixLijTd5e/HzJBnyg6DvDkOjySeC62Bnj72L++7IeLH5Xz6vvs1vl72A30ZYhyP+915vOjTQM8DPb2dzrtv59Pn8XX6/f5yrbw+/Tj9vK7we8IJRLmCIv6ZXsQCgv/efJ3qD+NxUR8j1GoAQSDLbQBlqMECElC+DUgCmC0gQHYAlQG7HYDZqa/9BgjotCwRMFmOoJJTnyCxqVeGvPoKQR6hVAQKGgAFkOQChAyAEwSHIj1StS2k0nTfBmRIlqOsS0QHQEBWtJJdQJUmagPU0HTZBsw2WwI8HwVIuDqSAygV4rrp4gBSk2lBqzg6FG4HWAgXHZZ0B7TxJHWvYz5tMa3yXBxai7QDLNzt9FwjFCu0pseTLffmvpNObMddpN8zHgNbSjOII7KUtty8fgb0siNA1qg6UovTQcC5w1llbeqhLRJB8eKpTdgBkBOwNzGUpWKzwG2q3ZTBAipCuKNbfQSg2eoGgC6RHQBLP5N0hni0qhO6HnT0sxOeQG2KzoB5zxtS9zosxN+OW8+SjmZyetCh16WT3XgSROw5ip5ZV5zGNgQ367FPm/ooOpSuoqBGTc63EPtvZ8rueNFPgOWHa5v6257oTcfBTT8DWQsRu/ep1bQjdC336H3tfr0+/L8cvo2Hw3S3XP7fXyb11XQRpee/);lineShape=1;strokeColor=#CC0000;" vertex="1" parent="1">
          <mxGeometry x="144.88695462545593" y="814.1081934675512" width="27.75938899431302" height="8.572834705896964" as="geometry" />
        </mxCell>
        <mxCell id="lsgI77zBe2tgthgqGCkg-76" value="" style="shape=stencil(lVbZbttADPwavRK75J7PafofAeLURl07cJy2+ftQFaSYVDVB3nRwltdwloPcvewfnncDh5fr5fxz9+fweN0P8m1gPpz2u8vhqk+D3A9y93S+7H5czq+nx+n9+WG0HJ9+nX+PJ/ydcIVqHUEc3qYPgUL49+H7ZH48nG7MY/f2Qly37UWoFmPfKMq2fWrUrH1MFPo2oDBxsIBGDABVKFQPqHkb0CLlaAGVctsGdKHkAIVKBIBMmX1IDVSpV++BM0UUkp7XbNsy7HNf9TlV2OgYFuLMiBKooJg6ZTEAbU0DjdAkki1TyySg1V3J3Q2gYzLp72Zz0CADCompFA+oCQC0Js5DgSG1hQlL0loGBFByJlvWSpUBoPiRK4k6YN8IsNzIkRICaEjWg7S5bptJWwBX6p+U1VZJdSyhkWOqTjY0K+Qh+T6oCsCh1vMsW1nJgjxoX7OtUsQ56ABZQGLqgBr/mdFcsG50L9+lY+1bdU7ls6EkKolVph6xh0zJAersc0uOxQl+wJfc1xGapNih00IEMBKVvb6OeQEPJXqGK4URO/QmdYXVqcrAgyw3+QIoUDh0FxArry1RBSGVVURCEXQuzcy54RKSDfFNUOVD1yjP2r7YK1fR/MwtvRHKCOyDjyfjW3o1nSnPFduyd4Kh9uC2Ukm0DdatocB82Z6vGtnB+bwaAih4Mq8HS7qwmkvtPjbVDsn2pcX2U3N9+Nihnw7H47SC3/73O7d+mvZ1uX8H);lineShape=1;strokeColor=#CC0000;" vertex="1" parent="1">
          <mxGeometry x="137.17582219241308" y="792.7366262106657" width="42.961726480685755" height="6.817430004018012" as="geometry" />
        </mxCell>
        <mxCell id="lsgI77zBe2tgthgqGCkg-77" value="" style="shape=stencil(7VlJbttAEHyNro3Zl7Pj/MOA5ViIYxuys/0+xShDs5tUOQESwIfcKIrFmd6quoe7ePF0e/W43wX39Hx8+Lj/erh+vt3Fd7sQDve3++PhGVe7eLmLFzcPx/2H48Pn++vT78er6cnp6tPDl+kN3044nySnCRXc99Od5CW5n3fenwB3h/sloEmvGtAlhfOAEKR0BchVUieALD0qQEnSKgE0KUUBKtYkNkQv1StAS+IiAQSp2obuJZMtAdANIIr3FNB0HHqSymwIEpwGFAlsBS/eAKrkTNzapWgv9dnR24AqLWgAUoMFLm8AOsulKFV7yTsnjrgp+OHFxRLMr75L8xbAcgMF4bt1EwWUYeMicpW4CQBnVsgSiZt8tm5C9lUS6gmgS64hvUioJ4DeEkouMBsQ6qaL2kluf2JDatKYW7ONQ0S6MgAKTNNGdOKZl9JgxgFAPiYGiDa/8QpHahR/GxuqOFaioErtJF4NEeWVtcmDFDafB7Vn/XyXSPaTQdTaQ8jdX7z2m4DJYr4jbywo4skKsdtqS1EC45hmqRtrRsb1TaJO7TxL3rbRfux4BjRK3SVK15mKO0x+arLUXSoFoNxNHKqTSAgA6mRoss65uw1AXHXfUDMHtBXFFMrcE7EbQBvNzTmAcWtzrwGCXgF+YwIHo5vOVjQannBSX/FqyzwOcSjBDIBakPTuzgriBCA13ebcXGwpERvwPtNowOhA3NpW2Qq3FlIPLVoxQeBYxQHQV6lBAcmyBpKPqQ+MzmaFPJLlnFuNNlTuJXSc0RRQHMlyLjV6s4BOJBdtiF1hpudzJRpWJcoUFAVkpo1apbNu7KW9mxGdDgN91bU2TyUIRiQDiFJYBSHUplnKVNXBlb5aALVhHi4WNcqmh9bHBhYr1L8JmAJbrVtZhwjB6UYgkC2kgnKxbIzsiwQAHS96S6XTdEXzEnTJlUx7BzQvhlzRtDJyrVbYU6E78lWi6VkrDXQoY7CdAYHPlathOiTK3hEspCULXmA0M42JBuCoTq/DgBHKkTCgI2vaS3hFY4NoH+9bjAKO22B0GsMG7fm8rZ/CZ4dpXDfM5ynzxfm8YDmS/fMjByaK20cO/Jzl/5HD7o0cOWgWeAtHDsU0rnmcLJ4bpou2AR0WPUFAw6TjUBo9eGwrtve0hcuWZXKkqeSsqqc8NPLM82ZiSokOcatWCQrpiYOcbfeSH4m47VDxWqCT49Vs/YlZPJH9IGF0vzod4LDDg1Hpi+fZaUYd/LkQ28b6YVsDk4rQZtVyCwCJ9RfBRgAeYjPxugYQAsbA28f7/ATqte8BuHj5mnBzuLs7fYxY/m+/PuDW6ctFvPwB);lineShape=1;strokeColor=#CC0000;" vertex="1" parent="1">
          <mxGeometry x="188.3569878612143" y="768.8708403868741" width="40.65133402550211" height="53.30542455404514" as="geometry" />
        </mxCell>
        <mxCell id="lsgI77zBe2tgthgqGCkg-78" value="" style="shape=stencil(lVjbUlsxDPyavGps+f5M2/9ghlAypYQBevv77mnGh2P5ZJm+heCNLe1KWvsQbl4fbp+PB3Wvby/nb8dfp7u3h0P4dFA9PT0cX05v+HQInw/h5v78cvz6cv7xdHf5+/l2Wbl8+n7+ufzC7wvOR/FlQan7c/lGxdd/X3y5rH88PW3XJyl1WF+kJbK+inPDeuxY8nWAOokjACdqDBDExQEQvNRCAEniGEJ00gIBFEl+ACQnjgStTUIeAVUSySpOrCMLOYtrBICctJEGlUyyFKKEMAJAnCOALH6MoUapkQadxh1qk8Ky5CwPNVPi/MR01X7IXQAiLDbmSogOXcrr+ijqr693VtsF35Dfr5INyzg/WY/iyWPAGcVDSNNshZeLFEJaSBJMOaN4iFJjlGRyij2JUlMQHZNanVQSQ/YSDcuJtqQlxPFItUpkssiSdAC00JncBzTJ3u6gBFCD5DoFrQQQ+783ac2kFpCTYABKgwYgjTxkxECkgSPFsZ4XZtiRVJxpk1mUEFeqtDEG9FXWMQAwaY2tT4trxOkYQ8Q8IkcCTaaJxUxnA4KOE8AxHmIPcQUkOhtqmWJIfR7tAya1AlBJiTYvOdkY2DBBufixRCNvMwA0c6RGOyUAdZxvkEYgWVoqeGwCyfMYvK2HpFIY05CaOVLoA+wacW4CsPEDaRjiAGBphfhME1i6LdvB2d6KoAOruNZb7yatrBmXacaB6cqace3ublOiVN6YsWPQEJ8SeVffk7iRd2A7TD4ABZTZDtl6VgAiA1Sp0w6FzAeo1U1tJjB5a/+9TZYY0y1MWQIPrGvsAliJYuyOWYJaWW9tzfq9vLbnfb/kJkeWuRXAFvY6o/Q+A4COZ1o8JWMOJnQyrWzItWSZQyNh2qhrga12Jn1kZ8x9ZpO4axbLVHWrvZPsu75qo4ZcIqk59CFTEc2JJ1HDiNo0ZXopg9WdiXBkB5jpZKiufcjsyw9ZMncsdHSSVu+sEYX6HLPr3Tmv8l71e+22ruMIQj0ksgFuHKHYE7Hmqt7yVrj/QVa9AbRuA69e181FlN8HAPATb8wlKu404w4FY5QdKUgwjYkbJp3NBgYrU0az2oP/yaR+oD1jBaLvatwHrNJcn020u+t9gLdH0g/sjL0pQo1sg9zv2ivPkgkJqRv594cr1oeT9YdKKU72uYRnM/VMvC9nzzfZCs71i/6Vd4xol1PDY42qo3ee1sf8ZjlvWnlaz7qit43a0VuhV/vo4agOfLBPGJ42IKxv5kWSN+n/fSH9cD0+vD/H3p8eHy+vudv/2+dbfHV5+g2f/wI=);lineShape=1;strokeColor=#CC0000;" vertex="1" parent="1">
          <mxGeometry x="242.8077674314959" y="765.9428475754296" width="48.012340013442554" height="88.04288068573474" as="geometry" />
        </mxCell>
        <mxCell id="lsgI77zBe2tgthgqGCkg-79" value="" style="shape=stencil(7VnLUhsxEPwaX6ekkTSSziT5D6qA4ArBFJDX32c2jtar0W6DDyly4Gaw2tK8enqkXbh4ur18uN6xe3p+PHy5/rG/er7dhQ875v397fXj/lk/7cLHXbi4OTxef348fLu/Ov79cDmtnD59PXyffuHnEecdRT+h2P36+x9y+c8/Ph3X3+3vF+v161i79YVK2V4fHFXz+4VcAoD56wbgTBHsEJli7gAhN5vWAUKuNyFmygEACtV+h1TIu21A8nYHUQAwOnFzYgPkTAxsSJFcDyiJGNiQEkXXAaonFgAQKn3gaqKCjBbi3ks1U4oQ4Hsv1dL8tmVDThYgDL1Uey/VigMXqLIFJARgkmgBGdmgXncWUEEcYiXpveSdIwfOpOm6sgUCaKgHqwWVXGpuXwACCHWM7fcWkauoRqNlAQVEZEOgLDb7CvBr8CTGS4EcsIE1v3ujS4UF4YWkP1KJ0EvqQ0MCtdXg6nr1SO+jXFogV9cryzm7HtVbHn4/UwDnGX9fIAHo+Xv/5ATt1aTMdr0HIfYzw82A2Mp1HRDIRwtgUAg+2VJTAHKpVw+GswCaFPWcI2mDNjQ8GQ16D3Ork1e6lWNTCK+MW4iUjVs1UYHR0VtRUjxloEq0gUufqmXec52GM1UjYwpl4NapgRuiZ/KoGNhWj+6QQIfWYjGEVBhypLLDGAekYxSQ++STBONQHLHRMbHV+DrAU+mNlgArTsNkSlQYclhRXRQtIABAdZS8BTCwQduAoTGZFeY6QJpEWBiNVMakWpx1qwOBmzRF3xkEl+jU8E2khQIGuL65iYo35NbcDrCQuBAQW/bPgNpCuQ4YSEABgtqhluiwg6BsTc3ryyOhHTQRojUapYYWkATr1gjikMdIS6vBLYAhMk0N1FC0RNkcKbTxZh0QrCxRgAM2FLFNUWa/rQPqEOkXSpStEphIAOVSGuLAUB3WoT9MRAbcepoTllQJ3LpQ8YvIoUngfEQdZgftShkVaR0Uk1BEzFQarcxNa075LbKsfQlpC0BFWuPQFgscyZTw7QzHkPvKOFYmuIOqFzvpKvUAt4pbAUABlC1/1wQrIpQ2iizGe3RromKdzQWCNIWzNc2YDqFMgnrQm0wnZ/3++3Tyn0wnaOr+59MJx5XEeOFK06iAMlu1DpgvnWZAblJl8zLDUJjuCXI7lsbSi8sM1K7eL+tmYf32l3V+2OL9sm6wwWafwFcEPZK5UK/zw8UWwLCxygKkfOJ8W7joP/CdwttIT8MDiEMY5vuEp40g7ZGhAU7ZtQ7gduIGmF5fQI1qU/T9kRiLMeV7cyRtGYjJPFu3egclq7M3P9xoZGO5NQBOrYPiZjiou8FaSiBLna1Mj7sthf7sDhY+W2nuKKCHt8b/p+VI02qBBbMc8ZxYv+Pl2YovBy/biiV298JFu8kZ127qNwav895IX16vH04Psjf7u7vje+7ye/uAq/86Pv6Gj78B);lineShape=1;strokeColor=#CC0000;" vertex="1" parent="1">
          <mxGeometry x="291.12135296170163" y="748.9918515242762" width="36.56297491136554" height="99.28328906245855" as="geometry" />
        </mxCell>
        <mxCell id="lsgI77zBe2tgthgqGCkg-80" value="" style="shape=stencil(lZvdkiQ1DoWfpm8ddvr/moX3IIKB6WB2hhgGdnl75O11Vvm48iv6bmikzLQtnXMkuV7id79//PG3Dy+H//3b1y+/fvjP60/fPr7Ef70cx+vnjx++vn6zf73E71/idz9/+frhl69f/vj809t///bjsBz/+veXP8cT/vvmF1yuw+nwf739wf7iy//+8sOb/afXz3f2h4tltU+u+mv76I602jfX6rV9mm+f9tGeAM9PrufVvrqSru2zq+t60+F8u7YvLsXVvrh4kH1fvz97V+D51cWw2mfn4fnV5bbadxc62bdjsS+2n+Havjm/7mcpc4cv7P9/OtO+enfA9zQX+2ofXcbvkfisdiKwP83V9furxRvsf3N93c/m518e2p+7fdofrkB8dpfX+G/JNbRv63pbcRnWG87tPh1syyI6SAR17yo7VHHglDSHvsZ0zy5CzofowrroXlwFEArn8+4cGjk0haHxBghrQ8G6ORzkkLddyi4TMPrtk5LLsIZowBD0HCg0osXSGhr9cAnWkM7QPB2CCwCmqSu6tO4qZHNOrqxrsGilbTV0i5I/dtIQrQZvVT4pIyGU6vq66MaMVsNMl9Mhug5vqNmFoA7EIQZZfgOZSiC25bQ5HLBLA7TEIbgCwWd7kjYHTzhftjV4Bvqmb6jdJUJKr1Bcz0c8dggzXU6Hittq6SJgbA4kjiyDj5X9ja0I+QwjirwhT/B87FBd8OqQIfjMwa8JZITbITTGG9ZoNUbvtGhzEMnQ5zuvHA7RJJbTAALDYV1DSVOWXTqsKVoCqoCxhtVhAA8Fn6mi9eBymThy5SD8YFhI/GAOonzyMbHwyiGtoZFZig1GWx1Se7ZoiaVUOEWzMpBRTKZzyJP37+Q5Yas5CGok7zx/kmgNKxgOSlEjxTUfYpqsd+WQxOHgk04KZDcVeOXg10WPMoLeEGf031VtqFo3FjVBhOEdXVkTKHBdYg5pRY1QUGsM0bmuwWTjkzUIzITAQBYV+Ya4ppM+VC81ju5jli4nLDH/BA29PKuzK0aUQ0gorkalIMW2K8zpPYk96clR6jSxP+CITZVIMRyn5H2sk/qsdM4oRW14I+ObPanVukWQySbSbf599iY9Q1J76kUkJX9bL0nboMx8RvhjsW3wH8U+QsLkPLf7Ln6o97KhSsTeQg4aPwl7F8Z3QeM/QTwb3WUhQNQhxnbyPRnjORnXSDMI4y2drZAbPtB601aklrnBVwWhlDp1fuBj+6bNuIr4FovGf50q6bF9Ug5oGG/Go9Jca5jvMUyCOOvZGeCPa/g2mwj/kAButHvnQBl/C4A7TiKIG/3Qqg6EuQNCNgfS+0bs0kAKBsNwykbsukvHs+aL0IwxNwnTUCdt3TlQ4oSkiRAS7tJYomiDjOVs2KDFHAh726ZWCnJr0caIbUKC3MlKHaHhAqL2Rc2enn9sWqgjd4SJ/Hf2BwWFQuOwh8zxW+J0TBzv4rZe4iav1Gr2ASLorDLuzovUqFcoDRWLZK+dBIsfaut6hbohp2E/DXb2eMbzEmoKGbVr0L76eD7GmxRNT8qBY8t42x/CRZWuY//xe/T76xTXF/YiDUb8wP6cyvA+PnHuppDYcU4UtDQZ+UVd/g0QO9YOfiqle3zA+E9F10vx47VMN3vqmfq5G3fnVQEPH9kz/oR34bnXvoTZk1b0W/xkpO332keV6saQVAznLd+NUanJraXbqM6ph6FzwCEiiF+2rrs5IGOnLYICNqDDTsGeIbFr/8wc6JMGSK9J0FktHtvEB3PYDlnq4TZR8kqNil5v2AozkdK0fqCm0JDz0kpGDote9T33R+KDfgphRNwuFzAnxa2+fTLSq3q+GTnY6rEklxFwEmv1npBAwnrG6kkBucj1bdIci9jeTWXvv9DsPG2XBQ7EiNSVtE+VcNUvqGqPw8WohcmBmiPnORg8Ex6b07nN8v1mT5PFEjZSwvWWtNvjXZaqMzkGuLqRnn9nv8zPGcY/7Md57NfU7TKFx+na6CdGsSeOb0nxx+O4r1WNZ549tK547rGm6htf8Hp73IoSjJ9x4UBmIahZe97xp1OPP2s+VszHMV9a44c1pdlLf9Mo/qAFlK2Kj6hqxohMZGt+NuYTSH9Sp44xn2BQwLsv/dSdp0OaNHvloMOf+mxbJQ0OvtWxD6WNmZ9MgGVUadRMHSFzkK5WLNh+MYcu1NdRC/WmM7V0YDPVHERfGn1idp7i6nQo8xFXDqKRjUCp5uvbZbnMAGYO0lXJB0+Ymm5r5hFT75qiuXBd0JUTMjeezEE6H0ajld8gV0CNRyOvQe6zPbuv0PVywLgRQe1Iv7WTxqULSoiu/YmaeN66zcpq4WloUzCujU9uw8r6BPrO6cydA/H/4LftThEmxCYIxyUkesN2p6gFlgx1Vt2nA2fQuM6Z1IGKijFELepAqrNtratx3Yxvj0mZYw4ErrXp2MM+kq6m1KzdpSG1+I6dZFDLWLyXpv1k22iSAkM7y6K5AWQwJLw7bqzxXUc9h46wMcaX0h4ICExpGwJ0bqKkTdB3Rg2rgKWCH1d54aSthBc5MxQR9UGLagejbioaRlNkPbhBe3BwY9AhDny3yySe9KLNAXtT5xj+1gjiSmB0lrq+AuWJykqzp1KvbfYV1cwmZsbNRLZfE9qwmeKibZ0s/plJ3UCvYWvB9KFMkvmmZt06ZRlVRtWQaAde46/bteWAo/btwmJ9tl6BCmNzwsdHt0Dxaoq2902PEIdsRUnh/S86Dih8JXq7WTDuZxL46s+CckatnVVEGhgTQWUdy6eze/wYeTV+rLqgG6xxypSzfGHpv039Y8QfEwRFrNFaxnGM6P7bAPrCXpTawc13r/s5BlI8Tt2eT613r2XIbYByYX9s9lQCey3VDo/77+ew8s4+ob10Zoc97o+eF9uH7WaZ5wsUqvVvK7qwT9vzaXy2jZuftCrf+zPG5/b2j9tvJn9+/fTp7SeX9/9ff2Npf3r7fWb8/m8=);lineShape=1;strokeColor=#CC0000;" vertex="1" parent="1">
          <mxGeometry x="88.65516497177214" y="701.6788465806853" width="264.2823151831931" height="226.3053388233282" as="geometry" />
        </mxCell>
        <mxCell id="lsgI77zBe2tgthgqGCkg-81" value="" style="shape=stencil(7VnLUhtBDPwaX1Wjec+ZkP+gChNcIUABef19euMaZ0ezbhenXLgZo/aOpFZLo92Fq9f7m+f9zrvXt5enr/ufh9u3+134tPP+8Hi/fzm84dMuXO/C1d3Ty/7Ly9P3x9vj3883i+Xy6dvTj+UXfh1x3klrC8q738dvnFT9+8Xno/3D4XFtH6XGwT5IzcS+iq+DPb4o5+2DSiuDvQbJlQCS6PgAeBATARRJbgQUacSF0ET96HKiPkcnGgZADFIiBdTR6aTiSRaiWqcTwsqeoBJGp3OUSMK6ANIIaNI8B4w+FDyBHymNzCtVXCMAL270oTopHBB1BHhpjmQ6SzFPyD2V2+wGEQy7ozTitDapI5dq6JnZBqA+q3WahRXl4KaokoJTcSNXS5ZAqOckjA6U1Ml7xt4kDfaBJA32o7+gUaPnSfk9tFPLCdg7wms/sZTrEX5NrX0kv58kT/ZMIIvV08WeULRKC9Y+kPOAcLFYQCIJUJXqLIC1EPW2hSAFSiiBoknGh0I57XOnwKpoMpP4ZMWrJloFkJZslKL1QtoG1B6TDmieAlKwiWuRHimjiYxMbbn30m3AKa+rIzF5zMXOCs1R7oEIbizOCvqSPCCvcXwC9JRVT52crkqdhtya+aK0ruHbgLpBPqbYIIJp5lBUNi40lTxJcCJHamHSjNyLdhswiwyeQGakVnrU1z4Q8rU61TQyTRLXmpQprIUcSd3cSaoEwj48InsLYPyGExbQerc4FyadAJU9IXX6r4SJqQBS7dMEYNyYBj0ciU0koGueAJmVHKIeLUAJv1HzOdk8ZBLWBTDPMKzH1d4/VmRiBQGn7bCau7adC6tt67l7tQ3wPerrGmWJi/0Ssq5RxiVUZLKAwulti5q3URSQuSkBkJiSNTusInFsfm7TOAxA4bJh89B6hZwFTCVKAciDqTjlMqP9brca6VmTW9g6HgnDRuE9y0xY+InC+u6pIE+NWqm4YgArprNHSWwKdXYsbryAslq2rgR9ewDCkc14UmmnjqeR7QS4eE9PYyIgt6xGQ7TDNwYgVqMYRL25geY+1m13uTzpPS4gTL5tQ0Hu2ZT4P657kUTo47r3cd3bqAHjc6LaAlIUQwpILJE7RMneSxxldQh2o3dpkxTsreHCrgoAOy/wbRi0SKewskpYACP1lo0eoRIARitypGoHH+q8leRhNVFa9p4M4O2tIYY+QZxbJ5vZM1zg0mnLedoOVzrdokLjtH9m3RySoaYTRs5WNzURqbyHmPE5UglTkNus3LsInitou6LnLSfYnqBUgvWkiN3e0e057E35u75F2LaPdjvkuuBs2yerR64PcGf1yxt7dnvRYvPLByNFUTlrz3fOas/D+KZTCTg6AM892dHlwrtfOV20x4d/77fuDg8Px9dj6//b92H46vguLVz/AQ==);lineShape=1;strokeColor=#CC0000;" vertex="1" parent="1">
          <mxGeometry x="187.50536155134796" y="896.373774023943" width="49.72129905987036" height="171.24895105315937" as="geometry" />
        </mxCell>
        <mxCell id="lsgI77zBe2tgthgqGCkg-87" value="" style="shape=stencil(7VnbUhsxDP2avGpsy7bsZ0r/gxlCyZQCE+jt7ys39WYtbw7DY2d4Cxsp1uXo6KzZ8dXL/c3zfhfcy+vx6ev+5+H29X7Hn3YhHB7v98fDq37a8fWOr+6ejvsvx6fvj7env59vmmX79O3pR/uFXye/4Cml5hXc739PKPq/Dz6f7B8Oj2t7R0EGeyFG9p7YDfaeKTJwyOTqGJCnmC87MFPiwYEdFRBSdFTL4KBPRICDkIwOyZEDISUmP4aUCkkFDkLtu5VDzpTACdn3AJY2MAWQdE7kxj5IoQySzoWqHxwK91ZuOkggGZFUhBzotFTKcXCogRI4QQPIY5VqJh9hSGXMwTvX67DdCC3KmEQtVEAjYiQxMWmlQV0VnDZrxSM4wdf+9aquDLLWxo0RtcYlMHFURmQUBRew9z2/xV45AfTZkR/j0cYjynAbSGVQIGc7IIIZpke72OusofHv9LPYJyoIdRQm+wB+3zuKI71I7LO37cBU2ToIgpB0Tl85oBRaTb3NwSMMsZ0bdcggpEbzyXYBoZQzxXFuFEYFcGqbzLFKJfS6bc++wmDcPCX3UdqmyDgxHnesbyMjUjCdVnYBSSuS3YTtiihSGxetQ0BkoWwVbR9QlUqlKPYEB5Ku3DfZej5B45TU60QAATnULYYBOay2wIrDEkqiWvQpSQpyEEpmfQaoSqrSjAmJ4YLWtWFDil1FbHduGjl1YFBXTTEX6+ALhKtUm0MCJzQacrZKgkQGT43z+IRAeeo0SlpPyIZcK1RWSnR1TFrh6tEJiqV5YaHGcd9P6xlFjSvk/OQAeEaFl1X1gkcuTTMqMCSVUSnYKiHZoxNXJpmByFUdLPg8ZAENiSfwoTeNdzsoV1qpJH1oL0EjjI2rmGZUpZuNojyCFkRKxGMfWivBCfp6JdmGhBSx6kM700IZQEPljKXKhRY+BOvuQ7D+p4LVTyEVfC/hbVmbYAUOydnR1BUfwX7ObDtdsezRZWhWlao5JFjTxNrKR0gdpkl/6vJC7/QpEJtpVlGC3tBrl1HrcUbjk+2tgZZBQFkjd0Wx3N4IXFVcOzaX+6EK9wJPNx/ae9QHRatR6YquDDjVF6vSG35BSEoCBktnnrrASmHMWVkho5w7DJaiQgZIViN5KC+y5WwdPlDPbGG93CFeuIIx9386ZsC8ds17Nof86/s12dkeXTn5aYrxJZhPndhW9mi/KtptdRASFGvmPhWzUDu+2urjO2fz1qxCEJS/3YFb+/KG/bvuzN+01w/nC/q7w8PD6X5//b290NdHp38G8PUf);lineShape=1;strokeColor=#CC0000;" vertex="1" parent="1">
          <mxGeometry x="239.25735984212656" y="1111.1546003468363" width="26.543396895216187" height="97.45412150409234" as="geometry" />
        </mxCell>
        <mxCell id="lsgI77zBe2tgthgqGCkg-89" value="" style="shape=stencil(7VnLbhsxDPwaXwmJEvU4p+l/BIjTGE3jwHFff18uDG0kaj1Bji16czbiSiRnhqR2F25eH+9e9jt2r+fT8ev+5+H+/LgLn3bMh+fH/elw1l+7cLsLNw/H0/7L6fj9+f7y98vdsnL59e34Y3nDr4sdC4ksVux+X5548pcHny/rnw7P3foQqZZhfW4PNtfHQJnH9wuVet1AHGU3GHCknIBBojCeSM/o/XWD5MmNBjFSAEdKkdx4JNEjRWCQyIfBQF8hDhhkinWMamiv2DYolMe0FUce5CHrv9NoIJRAorOnPB6pMgVgoD74PBokKhkkLlDx1iCCKEWhMGKpBgi+kIhHp6trXm0aMJOvNkoCsOR9y+tq4CmAxDHVMUi5QLB6ioZuGWLVUTTvTySAPc5CO2NYKIzMeqUC8Nc17nbALuD9nmq06x3SIxITH25ysA26ab2HcpSpBLs+AYz6lYadgYAAeW4A63cAHvhIqVqXHVAjrwjI1kAQCzJl44MmGYA05GkHRTUDJiuIDW3UBxAlkYbijpgRiEtiSmPiSiEGBhqTYrSCoQ9KlDI6XVID17ZBafrZaQUSyFypmkxnmGmtAdlgiSmCsOoB3KioCZfzxWBMnFZTFCU1kHEHqY3i2wZsGwwpVNCRhJitgQOSp0AwTsuK302Dqk5naxCBDzVuGCACaeEznFYfUBmphVK2YWWgk7Xacp4cBeR0tUqsmYZRqrY0KAczgEZVERgZlwKOkvaeZocI4a2JM1hSgwJ2UGhUPxkAuVfKWz7okdAOwUqlOo3kftGIZMP6joEbZSatHLxmwCbTDoJPKRoMWhV8yOnY+roe3iisq851BEqgZGlfZ5x+j6LBonURARDWKk2FeplBRyrTDoouxIe6JZWoE3BT97aoMeDoxy30UEZodPTwKLC1xb2rQYhCGqcyVTkk+HXqNpRUjAI7VYiF51jwDSOWQQMVrTgNSwWGVZsHMyF2qdnugFbwrFtk2FjGajmkTkRQIqK3CFdWCeq9g81cyZDWvM4KXeZQ9+3FFqFF3YDS/B+v/rrxiu36f3288uts1CUhoTsDsXK0oA7NY1OjVPC9R5wlNeF5bPJBpyU0j6lBmgY4JKmyjmudDxGo/FLwxYYVYjW1MaFv9tCRJr3TsRRduomz/WeURvDtPCTicYcgkJ/R2TFXwQKvxFZ9WAsP7nsW8I15UA461GOI1dTQru2uEa6OaeAmCtfWZ7ueMaENGXy7O712fjOWaDeAFGa67HXt+mR7fW7909t6NDGoXJjzOHhD76u9QHe4ZPrWxnbrURFn2+A5eAPA63zztj6Aksnr3XoXT3T+D37BeH+9/nj7XPJweHq6fG3p/28/r+ijy6eZcPsH);lineShape=1;strokeColor=#CC0000;" vertex="1" parent="1">
          <mxGeometry x="282.34825450294693" y="1104.3727041362633" width="35.9062797879158" height="91.95273341773503" as="geometry" />
        </mxCell>
        <mxCell id="lsgI77zBe2tgthgqGCkg-91" value="" style="shape=stencil(lVfLbhsxDPwaXwlJlETpnKb/ESBObdSNA8fp4+/LrSHb5O5O0Nta5kh8zJDShh/ed09v200K7+fT8fv21/75vNvwl01K+9fd9rQ/69eGHzf88HI8bb+djh+vz5ffb0+T5fT14/hz2uH3BRcLpT6hUvhzWamU47+Frxf7w/713l4oV2OfApUGAJ1EDIAjMTghJQrWoxwpVQDIxBZQArEAQKOcbMyFGohBPe7ZAESgS+oxBwNougIApZLYtLYw0rAIqI2kWJcqRRBDy9TYBl0pMQDIqOsVcN1iEdAD1ewBDFzqTHV2Qi8AUMd+dzFkkNbePFunvCGAsjXatEaqCQK6dUkyCQYk65JySVDQQtW6pNRgQI2ukrb0bgmSr+vflhqNKQOXmsaQPaCAE5pSrXmXKpCo7uforUE3BFCJ2hikEaMYIgUrUSmQrRPAFS5RQi4lirZwtY9Er0k0zCTaQKU1rXXWyCICdM8lVVxGbNUydQ+oiK2FSvYuNUQ+oWYrXYU6FlB2hQtQojGEWamvnWftCJcmba4CSq19Jrlu3KkgQKXgBBFJkKirn4qfAKaBY0/oupLXAZp2sVnqV9Uuz6xGzZZa01DDOiCHUdgBuCvN2uAVF4RWH0Qd2wwQhwqXAcpX12hUtiBNcaYIpR8avLN+X3iMjEV78d07Z3jBUsVbe87wBpdGH71e4JgioKpG52gBEzrX2pgVK+Zs01+GupezPwt2kHYlVjd2ErzyzIZOHCpdyXy25gG2d/HOYO5rmtmZR7B7VHEFZ1+RUtIQ0i1Y1BMjj3ZzS31AwtJrkO0OGXfp/32IfGqvH7dXz8v+cLg8mu7/968kXbq8sPjxLw==);lineShape=1;strokeColor=#CC0000;" vertex="1" parent="1">
          <mxGeometry x="117.50182726570802" y="1157.0707683984176" width="39.902745068184885" height="39.57497142764071" as="geometry" />
        </mxCell>
        <mxCell id="lsgI77zBe2tgthgqGCkg-92" value="" style="shape=stencil(lVbLUsMwDPyaXDWyZMv2mcd/MEOhGUrLlPL6exQyCZHbaODmutpY0u7K7vjqdXv3sukIX0/Hw9Pmo78/bTu+7oj6/XZz7E+66vim46uHw3HzeDy87e/H3y93Q+Swej68D1/4HHE1ANUBRfg17qQMQX52bkfArt8vACKQigGUDIzrAP0eBQOoEUpZB8QEBS2gQqjrAGZIqQXkvA6gAFksQKtyACGARFt0hcpODUDZxiMkJx4h2h5JBXZY0HhbgHZZHBIiRDbxUSD6BRcrC1ZZOAUQAdqKGSehrJFWLcuUIXqykCmBGVAgODVoS5I9gclNSaVdLAsRgeI6IDOg9UJCYA+QQCxvoo32ACoke4Ke6QlJddOkVKJrHkGQxp4E4gCieqtxm/KQHKZza56ACOioldKZoQug06YQz3IiV0wyuWvu0izHywe0flYayImf61vwnLyKp5YvhIQOzcqyzZ91Hjle0Ph0Fu+5UxtElrMA1WEgUjtSZbpYLptTJ5g9gKYWX44vUGwFCMHJR3J7TfmSywJoGVBjOvmoXkpj/UnllwnQaRjahqLToJraAkKGGhxAaafXkJJzwsKFsyrYVYVeq02TlHb2cjqb2cq7N43+/Rz5A0AXv6+fh363Gx9Py//b15JujS8tvvkG);lineShape=1;strokeColor=#CC0000;" vertex="1" parent="1">
          <mxGeometry x="129.44504673558413" y="1167.6971267307226" width="7.586791468995346" height="7.905720095848211" as="geometry" />
        </mxCell>
        <mxCell id="lsgI77zBe2tgthgqGCkg-93" value="" style="shape=stencil(lVZdc9NADPw1ftXcSff5XMr/6ExTkiEknTRA+++RMddGwl6GN8fZPUsrrXST3L3sH553E4eX6+X8dffz8HjdT/JpYj6c9rvL4apPk9xPcvd0vuy+XM7fT4/L7+eHGTk/fTv/mE94XXhCJcwkDm/Lixop1N9vPi/44+F0g4+NYjSErISwTZBItRuCJEptm5AKhWQIHKiAkFoY5w1CoFYAPhN3h0cZdP3bnh+HBuv4RMIGnyiAeHqlbONplDPAd8pWoJhwQJ169YpG9IVGzWbAWhREKMRii6wagSJ3plQsIVMAObRK3TaqVIoJEMS3kRIEEGoj6T6kP4VZJ2gfW5WER6esEyJlmzRXqFLVMtmktfUEhRSIrTtjHs24FVKzIXUqCJ+oWS8k6DUVtdvzVQPkZRlWv/EmwqtV2OEziL/LsPq7otSAoNrYxXZRoY6tFly+TBHN0xB8RPOIFfgJcW5O0Ak6X9gN1A4bW0Vy9heBWbfuJ7CobiCH/yboknEDpmihAUF0hFknaOsK8JqKyM4JCXpNO7lalVRoVDita7U5zN0CCqfedUPyplvWGey38zz70S6kli2+wUpnP4XVIB34TShFLypaVXEU9R0fhgFX8cF7oRWq4Py/zNZ4LNMNfLLW+dgSG/EXW7F5SQD86vUL1Ovf1zV9+LjrPR2Ox+WqePu/vxvqq+VeKfe/AA==);lineShape=1;strokeColor=#CC0000;" vertex="1" parent="1">
          <mxGeometry x="131.29268861859055" y="1157.3240935012375" width="21.486963321544216" height="17.222365420619294" as="geometry" />
        </mxCell>
        <mxCell id="lsgI77zBe2tgthgqGCkg-94" value="" style="shape=stencil(lVbZbttADPwavRJL7v2cpv8RIE4t1LUDx+nx96Ug7EbcRNPmTQeHWs5wKE7+7uX48HyYxL3crpfvh1/z4+04+S+TyHw+Hq7zTa8mfz/5u6fL9fDtenk9P673zw9L5HL14/JzyfB7xXnyYQGJ+7M+iJnS+uTrGn+az5t49hS8AfhMwvsAScRiAOIoxH2Ar1TskdhR8vuA6MkVWwN58IHUX/cTUZX9+KzxNj9TABVXoVBNvCPnQHygMuYXFJ/JWUYD5QTiC2U3EupRAZWy1ZhVY/AFdr3CTmmgimqoI0deMKmlnaADKjkESBQGlkLjbU8GtjKEhGvgRnsHZPKAplJH7wTcqSW/q4HJZQCIVK13vOpQIIBtDZIpA1oXwGAe1R64czkS22YSymDClE5iAySKFbI6xAsJIFVlS1Zn10ra7Qs3xEdQsDbeMF50xqL40tze4vUB0Hixjq2XQ5uY/+1OwUfSATCIXKmiM5Umaa9ZvYNmks4w6/8gFNEXQsu3cSeckj3fxp0BWOHTAP0vFB4BiNaURrMpIIHWiyqs1SFUigCgJA7+1xQB6OC55etmwzq8/ZsaQGlAE4Z5LHqZzMhvze09vlABJWQqVrZNv38sA7GdwtruBYw8ZTCMBxIwkPo20eMjReRPSgNBDEewa2/7vFAzgfxunNhF8wPF3k2LrE6D+cUKkB3cRxzVoeUiXjmp2oZI3P7UH/f0J1faf8frxdv+/DSfTuv6vX0/7tv6aN3V/f1f);lineShape=1;strokeColor=#CC0000;" vertex="1" parent="1">
          <mxGeometry x="119.89838927738401" y="1150.2412323927354" width="40.8077641663931" height="12.85129114966659" as="geometry" />
        </mxCell>
        <mxCell id="lsgI77zBe2tgthgqGCkg-95" value="" style="shape=stencil(rVfLbttADPwaXYld7vucpv8RIE4t1LUDx339fakKK5uUNUaB3mSZFMnhcJY7hKeP/cv7bmD3cTmfvu5+jq+X/RA+Dczjcb87jxd5GsLzEJ7eTufdl/Pp+/F1/v3+MllOT99OP6Yv/Jr9EuUyObH7Pb9wFOLfF59n88N4vDH3hUJS9oW4bdsHR7Eqe98oggAxEmflECLVtO2QJCOnHKJEcNsOuRHrlDJTrtsOpVHQKZVAPm871EJOg1odFVBDY4vq9IkAIrSOyZJSJg/6UCuxdsiRWgEOQgztkAQllBJ3IiyNa5QYwFo707oDZyogQilUdac5UEONWzt4cgCldUq+9t5vUkN32mdyiBpCBM0lH+E8CKxBw+oDZRQhkqvWoYI+TJ2ONqUGBqhmasEWXRCXVn0QEWAwD8JWr1Fi7iO1FaHpollqQBGKlRkRsoQiyHwZLrUunVt9yF7Pg5AP9YGpResQAb2rt0I2RfCQraWtagAoyTzksEIJOUgfeNUHPNPFiIB0GqfkNawTl1CEaqkxsRWPKJuZlhMIaaunaubhwcSFLoy3M43F2CebElSNTCnaoh8MUDK6VLu0/R+HJigZtjJcNVqyNURpHKB3qxQ1NbInDwbIO0dOD3VJxCDEHY+Kta8tar3gdP3GFjucrnuCDh2kqcOy5BT6PnF/AxJkdSsKd7G6v2MFilo4kggHqCHKFqlTiokiqEGOfiMcomUeRJhm0uixgymJuppzNEJ1ZdsFmdECKvBdhRZ7hvk4SiYfTFbX/11YQQnI3prZkKbOLg0Jblaub9hLe/tRtGHetHwxVGBPxawLlAA7F5yvVxgEfFibo50w2j0YT+8/3qcemsvD9er2Nh4O883v9n971ZNX8zUxPP8B);lineShape=1;strokeColor=#CC0000;" vertex="1" parent="1">
          <mxGeometry x="175.28917440122837" y="1147.4356501813384" width="55.9623808595029" height="32.677381780293416" as="geometry" />
        </mxCell>
        <mxCell id="lsgI77zBe2tgthgqGCkg-96" value="" style="shape=stencil(lVbZctswDPwavWJIAryec/xHZuLUmrp2xnF6/H3haiiLsLTTvNE0Vrh2QQz88LF/ed8NwX1czqfvu1/j62U/8OMQwnjc787jRU8DPw388HY6776dT5/H1+n3+8vV8nr6cfp5/cLvCVcT5XJFBfdnuvGBhP/dPE+Aw3hcAIqj6DpACOTSNiAVqtwBOBELAESS3oMUkgwByXeAWEk8ACTrIVVyIOnElHpA9VSABw2g9iFVaTfrACYOPSCTlG2AiO1DrRRADizEptPOkXPbiCCtKAsXGQC8xmQAhTiCulLJvX0iD6qkRY+9PVMA9nN+zb5oXwD1PMW+ayVRQtxuFZ/tGReI2+dmgG9dWW8Bk+tpkXEGzE1bC0AEtBCm2HtQhfsKmBruAHNbtrTAfZeLYFawZWrJWM/SWDPzwlEOAOBJqiVSBVWKkYpRW4KdlkzJ6LlQBklzpnIntgK4F7QmYgEVJO3zijrRTKrkk80Zcq/xZjHz0ERyFEwCnhwokaPU2ystMvz+ij2MP/XxZ80XvDuRXE9T5SEa2cnWPzKcLt4R96Tj2mi4Tglvn1rNKQKATovct1gnVAUhRWe1jKUcxdYotCKv2xf7bvrmcEv55mF2JCCe7NqzfbNHT2DO5Iu1R9vR3fjVdQnEU0pT1C3fCDSsY8pwOlAF8esS4W2/Iqi/jhDuGZQggRYrxCwynIAOld6BsjwCUX55Qf0PgB5u+/DbeDhM6/Tyf7s/69W0e/PTXw==);lineShape=1;strokeColor=#CC0000;" vertex="1" parent="1">
          <mxGeometry x="197.46526733401652" y="1134.134768340424" width="11.988392654181684" height="37.56854650996307" as="geometry" />
        </mxCell>
        <mxCell id="lsgI77zBe2tgthgqGCkg-97" value="" style="shape=stencil(nVfbcttACP0avTKw7PU5Tf8jM3FqTV0747i3vy+qu45BEpr0TV7vEXA4XDTww9v+6XU3BHy7nE9fdz/H58t+4E9DCONxvzuPF3ka+HHgh5fTefflfPp+fL7+fn2abk5P304/pjf8uuKoQY4TKuDvfycIpf49+XwFHMajBmBTAA4QswsIGhALJF4HBISYFCAniLQOYIasAYUhhXVAYsCqAdGNQRwoBkAQHJdKBtYupQLVobVUiNpCikBpHVAJkgEQsBNDTcCk89CgOizVBowWkMs6oDFQ0C4htOgAhKWiAZI4dAAVSrC0oudSg6aDzpI4Jw8CqGzFl5vrUtQxZHmFF3SCputB1Bo8C8GWaPFdqnWm1uzWdI1Q0QKiE4OIjzRLUkDF0ZLIm0wM1G2uFRBlTWuB5mRaOGEddObO2xqg6aCTdCrPQrFtJqVeIcssYW8qN0DoUa3lAWcFRF7ibpzclWhyLDRhvVkL7BXQjFaJweutUg+YLUvFk3eb0XqrweWBggioM5cjBAchJoxPuUJy2veHAZII0ol4P1kWU7D9fmqGjlylM5IG3PGwiIho+8bUDR0T02gP1id0Upf6DLwFnTtvi/cRghnspU+Mlfuss7CxOSAk/f6N1WSmo43dB+0mU93qpNk4hOLtPXaQcJ/wy+mFYBY3d+zc1NWvizocZ6rVjq81Ikvlxn22u4XvDskGiB+Ilmb16JNJtTe1u1z5pWKkuSGF/1iztwDy8L7Vv4yHw/Wj4P5/+xUgR9cvCH78Aw==);lineShape=1;strokeColor=#CC0000;" vertex="1" parent="1">
          <mxGeometry x="485.52576639240465" y="1075.9764580676613" width="31.013678205542227" height="28.041623719261032" as="geometry" />
        </mxCell>
        <mxCell id="lsgI77zBe2tgthgqGCkg-98" value="" style="shape=stencil(lVbZbtswEPwavQ5ILs/nHP8RIE4t1LUDx0nbv++qqpRwK08QIA8KPcO9ZznIzcv+4Xk3BPdyOZ++736Oj5f9ILdDCONxvzuPF/0a5G6Qm6fTefftfHo9Ps7/Pz9MyOnrx+ltuuHXzHNQxvTnfs8HNcHHvyf3M/4wHj/gBSF2+OKQynW8VwOlI6QMTwjqUe0JUZCEeCTwrSNIoC4lgfQx+7xEtUkoHin3FuAqwWek3oDGRO6vAd4ZvHMEX1Ds/Tldx7eA0mcoLBds4zNK7fCZ+tOarbFWnTWRd2uAKyOiMBMVzRDa0rnXYnC9T1PrMoJH7ZOqUQfSRlWrbLJa4TIhODSxhOhJHyVEQyjUJZ3FbILWtBKXclnqtBI8PCMkBG9np5K0KsH0tg+0Dlnv6wkFlYx/cTaEuFjcxmtGTLMisuF0NmI1SPxX/azV4FnNtO+CSdBywTY+ITsT77/pvjY5uW8iPWD4htaLnRcq2EqIhqD6xOSoWMHWkBuzoIJt2jpBWI6+SsjVFiGuW2WTEAtiT0gNQoKWiNAHrdMtpI9k3Rlr3RoyGc3Q7FZQ3U+MUOxa0N6iqznZUdNSCpnNqa59773r+PZiqEsSV0JDJRKpayMbPXJ8eepqasGaiCRNBcnZGAJxKSKZJGUIEZhgX2DavY3gVeN7fVEFYVX7b9XWCk9m4asvws/x+vH+/HwaD4f59frxd/tc1aP5qSt3fwA=);lineShape=1;strokeColor=#CC0000;" vertex="1" parent="1">
          <mxGeometry x="488.85029209332583" y="1072.0043082947543" width="20.283942600667615" height="25.003089691587256" as="geometry" />
        </mxCell>
        <mxCell id="lsgI77zBe2tgthgqGCkg-99" value="" style="shape=stencil(lVZBctswDHyNrhgSIAninKb/yEycWlPXzjhO2/w+UGUpJh1vJzdZxgpY7ALkIHcv24fnzcDh5XQ8/Nz8GR9P20G+Dczjfrs5jid/GuR+kLunw3Hz43h43T/Ov58fpsjp6dfh9/SFvzMuEdsE4vA2vyhGVv+9+T7H78b9RbwDojaApJQAIGVKsQFwpRxuA0omyw0gCmm5DaiZaltSpBhBvFFMTXygAAoypqRdfEHxeeG3MqYK6jcl41YDygLibWn4yjcSp9uAGFaCK6JA0aYUbYu8p8qQw5niCvAMuEmdLcSLRKyZpM0gDFm7zOfvXQAUkHYfaZchUkFGYrJO6Eo1A0Agba3t44RKUqPcWiMaVUDaAV2XYoJm8pK4NbdLD4R2zt38ZwpIhbR05GM4YYtqr1qgiJwaSWoXz0Az83b09RiynRKHju+5AbcmJ/T9zAbj+23nlkAE7MpDPjgIUCm1K95NZ0AyKyRXG9vQAhNK3aT54CDRvgpQP6Za0klIgI1yJmkz5LLk/BQgZbHNAlChDIT2DaotwPuGnD0NYgfwbQGEi0yhnWXXviIvLZO+Wingk00/SRABhXVZrfFKAgriZVet8QkzJuniI9Qg9LNfFZ60V8dgFdhQXyVtQxULEPt+aqEI+s/9Kat+QgGTfvWy9v94f/i4GT6Nu918sbz8v79J+qv5Fir37w==);lineShape=1;strokeColor=#CC0000;" vertex="1" parent="1">
          <mxGeometry x="484.79993349953315" y="1057.8302415066523" width="25.03280508074925" height="15.788307936207795" as="geometry" />
        </mxCell>
        <mxCell id="lsgI77zBe2tgthgqGCkg-100" value="" style="shape=stencil(lVfLctswDPwaXTEkwOc5Tf8jM3FqTV0747ivvy9UVakBWevJTZawJoBdLsFBHt72T6+7gcPb5Xz6uvs5Pl/2g3wamMfjfnceL/o0yOMgDy+n8+7L+fT9+Dz/fn2aIqenb6cf0z/8mnGNYptAHH7PLwJx+fvi8xx+GI9X4bFTFxOfKIfteO5UkonvJLIdL5VaNfExkfA2IGWSbgBaQejbgMxUogVUkgQAjXowAEnEdRtQNQG7QtIug6ZW7YktOmvbAKBVYlt0aVRBW3ullA2gxYX424BOwfLchHqGgGaFNCUJalBAZ6uMQBWnFJ2UEkVcdHErFOoopUzZAZR7wHQXCpa4qSoECJSjBzRQQ1PlrFLKYIVWKGZfNJJ3S1StlrQqAUwrgG0N7d0UtgBefIUSAmRKNiUVHwMTmKRmu9QCFbRCp1QMoCrToEs9Um8egHxJtemYVgBiWmlyPGgNCaWkQnA7ju9t0dI9DxHUEIM6mbU+bdw/99xaIq3EFNCWa8R2Be0Dsm/9zG7LNUooJfWt1ZarKKVIYrVx1YetTeq8b/IqkJP2vTorq9COPwyo4gWuahLQ15K8OO4cKTn5HZEzVSC/lDxziaHAhUncwRuWRt8eNrK3Y1YxgZRioeaGh0gFAHQBS0Nsyzl5uwTKLh4fiux9TDMMQEjRm/00LYHTQR3FdjQqBcABVpNM1PEQMLD2CwowXJyE4EES/VkoiwQ3mulGW4aOLcsg+14rdC6Vv5VOgENhoezDoaV8bCy/G64P/28AL+PhMF8grr/7G4O+mm8b8vgH);lineShape=1;strokeColor=#CC0000;" vertex="1" parent="1">
          <mxGeometry x="518.6765580687459" y="1057.6556679230096" width="45.95505820341097" height="33.44899274639082" as="geometry" />
        </mxCell>
        <mxCell id="lsgI77zBe2tgthgqGCkg-101" value="" style="shape=stencil(lVfLbttADPwaXQku931O0/8IEKc26tqB4/Tx96UqSBFpa9Dc5PWOluTMkNohPrztn153g/Db9XL+vvt1eL7uh/hlEDmc9rvL4apPQ3wc4sPL+bL7djm/n56n369P487x6cf55/iG3xOuV0pxRAn/mVYCU5B/K18nwPFwWgFapp4soFLmbUAtlKsBSKaatwGlUssGEDNx2gbkTtGGlDKFDgBCrRlATvCElKjbHDTIGAGAqbIB1EwNlDVWCsUAWqRaACCSiAH0SA2EFAOlYAGFAgBII7YhdV0BxEmkbLXUlZm2DQiNxPIQmImBmMINc3oEylq1VH0ODUhDa2h5U4MISoHYxaPSq9v7l/SW/UIVvJ+puPiZIpIFsaWgtVlY9802q3LZX2aZ3M83ULHm1IYQEWOV2MquqZmQisS7eTwBlEg55u5zyKhGPPefVZFgUWWOeMVCRiqKlBxAiUH2FxKnC00anCB97j8roSYgPG26wZZVncOA6VGq1QMaskKiUjygg5A6pZv9yGt5LuEqZRgQteBr2kHGPDt3RRpimUkcyYECUPZn99/0Lh2lDcj0tjmW5RVbFBeruqxjDXmz+KGTlGJsBKdrnYwopBT84FS3oimVtYaW5aAyBbO8CCXbLjQFoKKaSOx+oYL2F1/UQBnEU7vvFcoKKGlbjv/Yjzq8NkPXHvGIbRqPf78A1+gAcyOK4URTEzrbB1hPNXnx9W9Ao2MTsZ0xzQv3XcM3M1m/TwFg7Gq2k+JPhLHP2gI1qqgtfvaT/D8A+vBxA3g5HI/TBWL9v78x6NJ024iPfwE=);lineShape=1;strokeColor=#CC0000;" vertex="1" parent="1">
          <mxGeometry x="533.2494618433045" y="1061.1324007278406" width="21.17359880212202" height="47.025098092841034" as="geometry" />
        </mxCell>
        <mxCell id="lsgI77zBe2tgthgqGCkg-102" value="" style="shape=stencil(nVrLchw3DPyavbLAN3l2nP9wleVIFcVyyXIefx8wMmeXjZkeKTd53dglQRBoNHiJH77ff/p2dwny/eX56fe7vx4+v9xf4i+XEB6+3t89P7zoX5f48RI/fHl6vvvt+enH18+v//72aSDHX388/Tm+4e9XO+9aGEZB/vn5gbgS//vk11f848PXFV9XfHLSKL6s+OZipvh1PSG67Ck+r/juJDB8jws+JlfkGB+c9AWf1D/k+4MLgC8ukvUHl9b1Z+9KYfjcVnw5WU9NC76Iq+S8guur/0tyuR/jo/Oy4uv8hgN8XPFV10PxaV1P1V8k/onon1qdJ/6Prqz4JvOTA3xd47ml6YEDfFvjrVUX6Pe3NX66uEj329fz7dEJ2W+Zp7/hs5NE7os4qWiQ2QVLeAPUoLGM0l1aXdSLE2IQMsaQGvhKfOTNpvVSMoPmSkIDliVSNsdQZiLbNchxLmAzqHTT49oWNPDk4PQeNvMLntzkmlxsaBBIKOlNSd0YkD20PFPJrQHZQ+vm4LhB1/SVjQEpNyP6rZfIpvW/ISGNkyYXVA0yGGjOIcE3DOCkN0cfGRTIMcVl5qVqkt5W1g8NIGuXsz38LHqbgXfCzkHz0hoaWndYHble+a0QNlf5SUOayYFWtp5cXTetpZyVKjWQNfiSn5d230CL23rSsdI0M3L7uiRlL4ktKeBJx0Dpmhr41SA019kePN5pLTGsgKqBrKERNPGwaDVpRklc5VmjA+fsLhIvqYGsoeH1ApHw1hoOoeHjTJ77BgXTvdZVzwy0xq1L4pHRIia+7ArL3XpsAnhWfmpHHpNcI+uvbRanGzxZv+aTgHh217RYhYB4EhOafoBXKZ6ccFFSApefpiOtthLAn4ySDFbtAc/aohLw1mQaD7lj1VESRuJBuwjoi5TRkPVnvbOQr2npH12NB3xihKphH1hmVdzHK2UsgGf8K0XM1eoAEs/a9UG5qbwNUdqB+Ej8c83jV3xibUvAeKu0TQ4mJ1beNjasA5ryOCdPiO8Mr33Oet8bLQKjD8+A7wwvk7puJIqy5aFKANOk8ewLloxO2zqtD2Y9FG/KquJJvI02rSCe5JOKx9Vp/UqzR7wpX8K7cPQOyybRkPAzTQP6v2l/JLFAy0476oCZrVIuENCT5URfqZjXGB8z8kqmzD7OpV7hgWVBFLcyvSQJYzJTWpXximRaorcCePUMO6bNETcJmRVEbKo0P1E4pONGVTn12wrnhFO5ByaDSjoRw3XG7aNRgOxUKLnbyU2sbQmTSdykGnpBsnElFUTN9Wss0WNXV6lrwkwsN0FG1V+omnm69kisNKSOwjvC2fV7J7yiSpamNPrGCpJmi/DGCpWoSmEroOJJ2NgKe4I3FTxRnVIZgsf100GAEREVT/Y7cnHA9b+LQSU+OGjISNMpA8zv2G80HUfiwrjpCHgHNxgyxicbPCkDx0kMZcjJ3N1EO7Ih4cJkaI6WjjqUinh2X7QDAhkjUilTO6ywfn+gjFo7OEjLXN7KHe9LoDWr2MkczbTa4UI91xaQdbhlCgRXPOuYtEOHfCIzPx4pAHB/hZ5X1XCJgGcdwVAwMuCZ4llNhyVT3DtSYGDEwPFtZ79sPS1iPMsc5BwqVAX9zzUzUADiZEH7+IaTvEI7oDErQA7GuO/QIaGnCVRisNKoz1wED1OQ3gwqFRl6NOKrUK40JgnrGYREg7Qn8wtcJ1ED6ORCp/3NUM1B045cyM/IO7QyCNPlzRQpeRoZvaAWkwqfIlXTuYSzoRCoo7nR5NUbkoMhCLIldcxGY27OvNRNf1TmUR4ZwARmDIXYMMJISo1rdF4Exxdd+JUzP9FPgqnjUaun6TTCjPNuVnkYr/ATnQ+e7Eyyc23eTj25HrIzVz0xsJNbbrAzG+6Ure1Mn08MBJPliZfGBD2hAZWIMz5tUQOqsTasWJ2LdtGbGX2nI/edlwydktTxVsLsgeqIaabG202zG+S6iQzWNpadBfH3PN34lNHObVx5c6GZSwVZ6rXkHeEhTj0dDAkGkfIUpk/IrPgbPlMa7LEatk1gPMDDnK2evX+DOVvNXOjeea/F2hCPLLi0k/eB0AUW3jZ6VNo0cTAhz5tSXuggQ+ZYc8OfxQNIecotEjlfMV2+UFVU5vXe2FGipFPmWOqGrzFx3Kg+J+8tBVWBk/ecpuSfvBc16zl5jyqYHxTPNDfjny3hvc39PLvp6UJNoj2moBrZT3zZzMyJFQtscM7gcHP5Yvz7turxBRF3pLfNHDsmj9z1JAr+x6vnE7z+cX1i/eXh8fH1hfbt/+OTbP3o9Tl3/Pgv);lineShape=1;strokeColor=#99FFFF;" vertex="1" parent="1">
          <mxGeometry x="448.6469009051441" y="998.8171869901771" width="235.86883068638699" height="152.28689650409058" as="geometry" />
        </mxCell>
        <mxCell id="lsgI77zBe2tgthgqGCkg-103" value="" style="shape=stencil(7VvLchw3DPyavbL4AAny7Dj/4SrLkSqK5ZLlPP4+YDacWTZneuPK1Td5DXBJEI9Gg3tJ774+fvjycIn+69vry68Pfzx9fHu8pJ8uMT59fnx4fXqzvy7p/SW9+/Ty+vDL68u3zx+v//7yoUv2v357+b2v8OdVz7tWu1L0f10/KK6lfz74+Sr+/PR5Es+zuLgcmXiQSTy6mKl4nMSDq1y8gLgUJh5R3DcmLn4S906VWqaBOLdMxdUTOaptVUA8ks0EFyuKk6MGlwOI/3v2E3GNIF6oeEXL1HouHp1HJ4jEkHFc4i7ONmPisxNkF6jd2yzeqM+YOGxGXApsN3E2vK0QqG1KmuVtPyRcE66fqgtkP8np7GaiLpP1xYX5vLm4TKwvrsz7KTISyqF8Rl/QQNfPTma/V6X2ya7NUVjDsNihfHFp3k8VJ2T94srsPtU+Ie6mw9U3+eayMHnIIs38m9izDu/a5O0Gyf6bq/N9tTw88Nj/o6s6KxQavcFuLKICi5hQXRVUYFdsMaMNz5BYjCk6tRmJXVoKyy2k8Z3HChYkYKVIC52EURw2hTDq9rGCOTZYyQo9+YZsxQ0iwe6eRU4e17QpVKdkS8U7Dwo6ouNYQbBu9OAhZi0NS3DN42aOo0eWcJNht2OF6qShQmTxFl2Yb7omuiXbcVwUWMbrRmyoEIlZ62qlOIrccQ4II75uFNjFdWf2qECzTBole1MwNMS+QRAOqVKz9giGQmL3QPKS5QjwVqs8ibhGTyrzxZXqMok4UwAUVTJFjD3PgcLmXWcKaTZrrve+QeebzubezKyKgF0a9VZTgAItQguuKdT5GwzBJHboit6aIj90xXRvVZtlPlMAENARLkkCXWE+dFCnzDUqpnuDkcKcryLeD1YfuJWgdbLMducawDO4jQqmAKGN3w5Dtltzje3HYI6CvBIDWdJTXD+zJKmjK9jlGWawMpAKyLPzGszMuD5L2lZ4IEPafoj9NY9edZdnDqQRq0gaEOW01EJY0vxbCgJPoX2UZTYotMJxv2GPAvKsplleA7iTafudPZ7XDEz8U8rot3daxTOAFzFrWe5mCLKi//OclRako6M2HMt79GeliDaWBYXQ/Zu7gD9ssP5Y3mPb3kYSPu4SdEHYIwGctSEZuCHPG31ZWAo/OpmzzmhVYHxS/29BBQZOK8JlqwGByJfRENxuiPn0gPe7SYVYSJbGbtTZMyZhPm0d8OiEqGhYvwIXBzRHmcK0kqIsuwk6M+95BTFQpo2TjNZwF8/kmjKynJkeNY/WdhdnDX5Gy+TBeJ34WMS0xvZeEEPrHQ8GXKWDrjjbzIJ5SE5e4HalR81YURpFDEv73GjBFXTgRpsLGazdzWZoaEc8aqWx6qFdo2DkIPgKsUxC6kJHK3YWfPNmCuWuBV1sowDPkh7iXs5XQj90L/gWVMFu9TvFN/e+qfmsBvpBDe/ymZXArcW4wQjENiFhgdJBFp5Sg7h/ur4OiHvjZ4xJbKujsbRtjukxzTNM0XNdAXnGFaVlPpV5nCw9U6YVNinmbuH1frlfoTMnKZhFLJKJPQ1TC/ZALAUaZi/YwzHqwHoCIN8jLw8RB36RYsze08zxEmjWtJ4JzhtoD9p7MpRn9teFUAp0FmA9Jfinp/HYe9YI8oXJLz2xH8DntOdGeUYC9p5+mYky7ilipfCjiTrjJAC8+FH3zgi9hvsPTL6O8L65X8aRNBxkJOrPbclvhZ43eL/WdUoKNRz2hEAh0nqCzmuxK2iLS9/hedtwyRtujpLbDRvF3heRqG9LFKdIp0OmANycNe8MQ5gCUM8iFKiaI+m8JWncShXn/ZmPYVd+0ZIrG1i1irnRsisbyzdFkNjTK6M8FRn90mh5bYpsuCVYxoG07SXMpiB8ZlDwcYxy6Loy+tXT8X/LSAzXeG9QkpaBFXvv0BISLTXTzroFZEr3EdZZ2oa0ZwoMl1pdAC6zZkq19PUEFQpTiMvQLdMk0OlYmGVyvk6XtsNOxQjBshQ3U2APs0rGkVitlBIsHucelWeNnJGTbZyQMoAHgL9tJNgZggREa+7IJlyyPFzqRZsROwXN2u6A5gUE9wcN7EWPIuqxxEMVIsLyxt/ohLooNJpmwnpx7d4rDqzTnmMf6x0BS3b0wcAbzpNMniWB9d6UZsqFpzLHYM1sXtaPd+gbgfPyF3YZPXufMJ3xPSBvtYfYc+mNOlqnpCIEv3JyII1WcZMPd/hZAAxFaPMel/liGXzaiTwUQtExATp20GUeVun9BryvyNGFx4JgK7DC7LHidCRMYtjjvKdRLL8g+XznqeuPZ7pn4j+e6Z5F4P99psvycVzn6azXjUj1FAoDlml3oUzhwersLV1EF1PqBHG0wDe0K917QpaWTmYxVpXuPQzcu1MA7HFlwLJQKcBbHFgpgAyjJP1HAhjf2il9OxsGAL+5JpqWvvOHEnfE7Y/9Nxmfnp6frz/puP1//A2HfXT9/Ud6/zc=);lineShape=1;strokeColor=#99FFFF;" vertex="1" parent="1">
          <mxGeometry x="67.45400843306584" y="1094.1327740348459" width="280.8338794377242" height="169.05321014618886" as="geometry" />
        </mxCell>
        <mxCell id="lsgI77zBe2tgthgqGCkg-135" value="" style="shape=stencil(lVhdcxoxDPw1vGpsy5Lt5zT9H5kJKUxpyBDSj39fXanhrDu20zdyl0VeabWS2fDD++7pbbtJ4f18On7d/tg/n3cb/rRJaf+62572Z/u04ccNP7wcT9svp+PH6/Pl77en6T+nT9+O36dv+HnBxURaJ1QKvy5PJFEqf558vgAO+9c5oFCTAZADMQAkoVoGQFIK8T6AI+U0AKJSDCBCJgljhEiaAYdGOnLgQCKQtMtSFsjBAHmMII0iANiJ/35fB2ilUgFgUYfCPdGrgMyUdQRUyEEyBQdoUBqaKVUPyICDnTgFfyTl+4C6BGQqQBpV+usrIFBKAFAojBy09LytAxoFHgECAS0S5xGQu+DXAdyFMAcAeTddcBASkNZWF+IrJKDSrfWWn6WVUQOFQMEVgkmANixEdfpWakCuRqKNhagB6rsVX4iaSFBehZID5P5kHZCoqgc0VIjQCzsDIGOqlZIjzRSRvrV35CxLFWTJOohdHQpVQHqi6Fwgw7ROEdoIiJQQae05mXklIw722vWo9q69VwcfIfeRca/SrXgAOlJbpNV6NCDbMBtacKjA+qZ+GNOq1rUoQvODuiRo3wZwEYpALU22MU720nAdVgFI3snbjJkhgyyZNl0dLG8JcJi8d+xpOySyb2HvlTMzXJ/U0W8bt9Ks7wILrzQSiraN4Cf1pEdwJFsTXZps7mkDrKk554twBAVS1z8KPWAxTizNAgiEvhBeF7gIB1byBnDbt9Z15Cdo5D6E1xMqfviYcnGJ45ggrCFu3XOvhGE+bZ/NjkCFk8fyJ+OBbG+PAMDqU8S1j8e7lN1Nw0gBzSX2k0cjXGMM4FSktmCiCJHKci6A2WZVYrdZCRyGlnUfwVoJAQpF9QBkwqY81woGiOjGt1jrjXRAyx77wqm1E7DIyV3cbLN+BdKI0RueVLhNxkXhxBYhbHhurbfrUEJH+u+L9L8B9uF2b3/ZHw6Xa//8vb/n26PLbwT8+Bs=);lineShape=1;strokeColor=#99FFFF;" vertex="1" parent="1">
          <mxGeometry x="506.29189505956833" y="200.41255035315567" width="27.509439511732886" height="20.064352035884575" as="geometry" />
        </mxCell>
        <mxCell id="lsgI77zBe2tgthgqGCkg-136" value="" style="shape=stencil(lVdJchsxDHyNrigC3M+O8w9XWY5UUSyXLGf5fTAZcyJAo3ZyG1Fokmg0Fm7i3evu4WW7kfB6Ph2/bn/sH8+7Tfy0Edk/77an/Vm/NvF+E++ejqftl9Px7flx/v3yMFlOX9+O36cdfs44btTrhJLwa15JhVr4s/J5Bhz2zxcAqSRsACVQ6rcBsVHNBlCFKjghByrNAhq1dBtQEkV3QqcMrlQjZbE+KKACQKJaDCBXqg2eECxLSSBLpRJbpyeikdPKUjIALhQjoLVTDBYg1DFArDR0B3yjbMOQqQuwV47shXQB7a/+WYp4bLAeg0DRRjlQAPfRICd29oxU1Eiiuw8KcWOK1fmLMq2pSl2mUSvAXu9v/eUwTrwFcCLlSB1EoAlFB1CRIkq7TzTuMJWrSsaeoKS+q2odwNQsqSLEgCVNtBb9CQWEQavLuwoufEAsFfblSFmKwAdNtOIyU89EFbITO+Vp7uFU7q6kjtCvuyAUvFRhKmdia69RA+WxXHWdgHWklaE4e5j61Ss7YGEHnzq4NGoidGufYTtYtQeZ2cOVhLSLgtrS0/h7caBBzfVGwUpo6tOAIg7Bl+vUR9TXj+i+j2vYA0jNnodoBkB5K6iilpHqS4dKH7WE4ngNWEm5kFhi1S0UuqRNwDrRCxWgJVl4X7xeiFuPhNZcN+40OCpocXDZXLCamMRNOxk2kjDmgsU+UgT7Xykp8xg1btiL3X9SHnLYV4tUR8FcDwElp+wMJ51E4uy1k6PhbgxmF8Mg7ORD9Rf2EYiU2fcDBQg4gK9GCwVUwBDnqyvFj0TqhkHlFCX/fz9E/gGgH3/fPU/7w2F+Nl3+799JujS/seL9bw==);lineShape=1;strokeColor=#99FFFF;" vertex="1" parent="1">
          <mxGeometry x="771.513791461706" y="132.02321210097477" width="17.98872833183547" height="20.508064041830686" as="geometry" />
        </mxCell>
        <mxCell id="lsgI77zBe2tgthgqGCkg-137" value="" style="shape=stencil(lVfZbhsxDPyafSVE3XxO0/8IEKc26tqB4/T4+3K7kGvS3gnytpY1Eo/hkJrSw9v26XUzxfB2Ph2/b37tns/bKX2ZYtwdtpvT7qxfU3qc0sPL8bT5djq+H56X369P887568fx53zC7wUXI/Uyo2L4s6ykSCX/W/m6APa7wzUgkHQDyEzCEJCiAZRKIQJApGBvqI1aAoBOnQ2gFWp9HZADxWwAPVCu64CiJjV7g1AP64CaqQYLCGPlLqBpEJONkoyV+wB1UWwehBICVGKbh9SoFABQalhArDBKtVKqBsCJBAGKpwYH6gIBxSZOmQG4pxaJCxI14HIVKjYLcVi4GiJLVc0yIJ7moIrbHwArlJbFn5+A/T37HPO48P5+jY+rfhj/3qnZOqgw/l0o2zKQITer598wCAao+rLhMsRgLULBZoD7hymwlGOtMyCQc46LB9SGSZS9SQJYNLPURpUbNGkuA5s2ziRIvoqvA1Z9QjeUoT0XRR2ZXJUKS+wCiVq7LwTlBdIu9oXGxFhNHVEDMaCRyn+62Q+Eol9ofGUPiKfymtn7CyihhRPFxbMhez65X4ofE9SBCBjEIXiPtd0wSJmIr8ySoFhLHFp1ESMZfX01CY6kcejfGkujBWgcGvA6N4q+oWGFTzwaxuWKNnrW/cBqqdtaFsY90M9r6nQEqda8umEqwB54k+dSoBixl/gkxMBh7UjW37mHgPOz12uVogBK/0L86ykHTWqjA1/2FyhF4pVRLUT7VWm9A4ky6B/aInv1AJiBOrTnClCBWms/is37kNFEHrx8aZAK0C9lRXE+NArAJB3M/KTWx0C8BnA9MIXRqNcAn3wZfQzQj/8PsZfdfr+8467/9w83XVoefenxLw==);lineShape=1;strokeColor=#99FFFF;" vertex="1" parent="1">
          <mxGeometry x="467.43221306120813" y="361.15434686360356" width="19.219136597613822" height="23.549894957324874" as="geometry" />
        </mxCell>
        <mxCell id="lsgI77zBe2tgthgqGCkg-138" value="" style="shape=stencil(lVbLctswDPwaXXdAgC+c0/Q/MhOn9tS1M47TNn8fqBqpgRxh2htNcylgdwFwkLuX/cPzbmB6uV7O33e/Do/X/SBfBubDab+7HK62GuR+kLun82X37XJ+PT1Ov58fxpPj6sf553jD7wnHBNURxfS27KT6Z+frBDgeTh8AWSHNAQSi2+croXV3nkC0fb4xCrnzCaltn+8C9glUtCB+ZZD4+ys4BYCG7gPijsLbgERLhjMic8iRdmQPKBXSA4DMGi1J65zW5yxldJ9101iGvKa1F3DAa2XU7AENqWwDiunqk7Ygc+Q8QvdOag05oFUE5EOqFRp4yYTNyesg0EAHtgBWxaDQgFYhiNfB7MoRoKL6pFOGBHbNBb34HJCDFMxp3QtNqIGTal/rTOCAU/NZ9xSZyjlwqq41SIwWMKRGoE/YvpCi4lFUn7G0eWcLICtKE3rUMqxUvGi1gAJrW6mor4VWQUHxmPPVf8H6YA1oHQF6Awh0zn222QzQuLFaea6SNt5K4AxJ0FUnpng22Khp3nvWOSkQwlp78uazztmC3n1jDVMm6twZ1TujLePx84Agvm83m7aBbDeTxMYpB6pZ7fr7C4XD7WZ4moo1qJ22FkA4rLUks2eW4ixhv/vv98g/AGzx9/nzdDgep9fTx//XzyXbmp5acv8O);lineShape=1;strokeColor=#99FFFF;" vertex="1" parent="1">
          <mxGeometry x="861.7321398093645" y="348.25138277991255" width="4.621272809642202" height="3.8462865474411956" as="geometry" />
        </mxCell>
        <mxCell id="lsgI77zBe2tgthgqGCkg-139" value="" style="shape=stencil(rVjZbttADPwavxK7y734nKb/ESBOYzSNAyfp8fcd1ZXjpeQxCvRNljUih8eQq43evD7evWw3Kby+HfZftz9292+PG/20SWn3/Lg97N5wtdHbjd487A/bL4f9+/P98ffL3fTkdPVt/316w88jLnfROKFS+HW8E02C/bnz+Qh42j2fA4K0NgKKRALQLD2PABVNlwEJ79MRkCSUy4BYpSwAf1mtA5KU4ElnZkEljqRT44AqtQ8ANemVAEziGKVcKekUpY8ulSSVhbVJGqNUwYpECYmrY5RaEiMcss4enwAmhbgEj8tYfF2lE0DNEkeXepWmlwGtLCwgccRCT7MDZxZSJ4AyR/0ECDRxeJ8Pa5RGGggW2ggoVSLjAEAdAQgrs1Al2whAdQUCaD5KBaRJaXTzpCE8nUTJotTqAaynTaV1D8iEtJW5ck4AE20E0GbZOiPNetrgsctDomEFwGlryWKMAyiOpAu6nFloUkaZKUbV26BCI6CeBsA6IHshq3Eux3UAxN3pEu4QC6glK95CZR3XvWqAQ7nSoi6snTdQ8TMOLcrKe1INVxpQWyJkcCku5D6zjmt+sKNaCxOyLjZayFdKI8zT4LzjiC6hRYN5gDIRKLPOnbkUmAjURR6CKO+40H1Y2VCcWtSFNUvK/xEQA6TUlSuamsXVfFwbypWk2hZ6j+RTJQu++vCKxoopSHZL3wet9dFufusDLboLRD/ljNcr4t5G1lBDpkx5od8oSNbVeSFlKHklFhSJcIBTpNcB6LmxXiEMSnQjLZaHHulYTMFvTNMORRKHVdcNLaSyEg5YpvNiEW20IxZjsc19vr71SR8NYJ2J5HkM2ZFyzvT5JGkcQFMeSTeEea84nR6M9sJCAGKjsoe1fOTbqKxGjMuRb6BLNP7u5p5n7mv0RRrpvqrd61eiszAXUafydOkpyQ+qTs8xEAq386CgubC4+KNiWQcUdJQ7Q0cqLAB4Czi7XQE4C3nu60sApxM41neSBADcnjcVKXMp+/U5nvaydYBKMg8wxiH5OpqO9YxD8McYACoTClt8aeAn3H//vHIdgIuPrzkPu6en48eg8//91x/cOn450tvf);lineShape=1;strokeColor=#99FFFF;" vertex="1" parent="1">
          <mxGeometry x="848.048874282701" y="338.60567005973394" width="34.13624672087546" height="32.52863429214027" as="geometry" />
        </mxCell>
        <mxCell id="lsgI77zBe2tgthgqGCkg-140" value="" style="shape=stencil(7VrLchw3DPyavaJAgs+z4/yHqyxHqiiSS1Zef5+e2uJ4CO70JrccfJN22TMkHo0GuBf78O3x09eHS9Rv72+vvz78+fT5/fFiP11ifHp5fHh7esdfF/t4sQ9fXt8efnl7/f3l8/X/r5+2ldtfv73+sT3hryuuSigbKOrf1w9U8vWDn6/Ln59eDstDkKTTepNuZH2Smqf1RUon67v0Pq0POp5wExCzf0HIouQEFhZAl5oIoEpLEyAmyfUckExCnAFdUiCAOjawGzWJtXNAhhfaDOgSyRtyGl4dgJQkkkPnKsVmQJdAAEUlzIBs0iIBRNHZ07mJEU8XPG8OPTzCiKdLkjZvqRQxYqWSh18HoOrY5G1AkTD7oZoUtqUiad5S3RPwDJDn0GgqxswKwGzWZtxxReq8pZaH788AfY6lhgxhZ6gS54xryDhm1ip5BvQ94M8AzQFMVAkAoTZbqWeJDLDT1g6AGVjG5ZFfO6BKIlZCfrmcxhuYWUEzlv0ZOiOyMr7eAUkKMSuoMpo3K+MlkHGZU7Qjy0ksodq4BOoqhYQ3yD258O4jpW4CmuT5BQjWwjjA+xnrlbASTD5TRkM+Mepe9lNoaGefClgfSPHJ0tx+9k9OzpujX19IIiCIl+czEm5SlvWBnBflXpMHsHoORZJ1AbAQitLbAiAuhoax9QwMkEeIHY3EtlRuADJTPeYTDWFRiJuhQIrzc6N+sOzZBYnGlFsKI9MPpB0ZoIyvD2TBzpB1CIoDHVEOriMQDgzJ2KWgzDhAoSKmBgnqAUxi1L5sKdFYanGpVHEUu9sAqJ7m/UAZEhTgBECnmh6M6MQkYonpWwB8xhVaqQBILvggV0m0QuP4LaFtII4DIDYPYI5ru7DblRusRIgSOy7ZAzI7dBk67QCIjFoXs27RRTJu8+sKIG9A5HTzACZXkZCOZgBgigHR7+oVAJX4oS8aHY4LxA/fU/4AyCQ0AHBEBkBnABs6bQcE6jhksNNVbS9itwG75j8AGJEhIS0sABbeS2MCQCJk3BbHbYfmCVS7NyslMmhN9YDEAV6bKFWfG6ksOV3YGxZ9u4U3JzJbcjqwLXXvuPspasuWAksg8333dgYWfEnysqVMaAYJlJYtdRJL/x3QBvXuno50htNX+cPLLgB9kaHs0EF1dJzHzoGZqS+tfeOHaEuHqDRHoUXcqcE81NVLkYPzldXdPpqdo8LiGeSiD20xG09sGelkZaOHruAZJ8nQIfIBiBseHHx5W1eiUnf/ijvzOpekOATjjVR9RmxmIluC+q6L1DVCNFZ947cJUTY9QCc/0wCCqbLevniJtTUE5A1RfXwjvJj63obLLqsbraM/mvsfzf3/v7kPTeISdmxLMY326xDXrIOLfalVXJZYWqaZXIsZCsN8BiQ/K24p+Ysf0Att7nWE5nEawJKnLc09n/kC0Jc30LrQ/aD7ztwaAN+28sk4AO4u6t7sXUf0/9vpvo5Q2wF37g/Uj0C2Tpq8IS9XfNsdCLeSux7bajwLje7voqrSM2yh4a6Wyhi7nE2WbKaZErmns1dWmcuYbL625TvhjeI6A1KnE43U/LwhJX5NmYcWHADjs3eIEjdDBI8UfkPh7mYjnwbYUh/AhYw1YvasEfn4IHTfem9XEOQMwcY1zw4I4z74pIg6q3JNkrzGSNTL6u+iVTp5+tLE6ODxs+XdLWdNkvqs0UHJJ8ud3FE6Vgm+T+VJH708VWp385zCe4Tk1fK95ctRlRGWny0qDbHiY1ipEC++yCglwzo06yEIiJvu/uIEf3z/tcqXp+fn649djt/7X7fgo+svY+zjPw==);lineShape=1;strokeColor=#99FFFF;" vertex="1" parent="1">
          <mxGeometry x="384.154341089705" y="244.66002144012202" width="32.35143668965843" height="155.4857788782918" as="geometry" />
        </mxCell>
        <mxCell id="lsgI77zBe2tgthgqGCkg-141" value="" style="shape=stencil(7VnLbhsxDPwaXwlK1POctv8RIE5jNI0DJ339faka2qwo7xg5tujNXnNkkRwOKe1Obl4ebp/3O88vr6fjl/2Pw93rw04+7Lw/PD3sT4dX/bSTjzu5uT+e9p9Px29Pd+fvz7fNsn36evzeVvh5xvlKwTWU51/nJ0JB/jz4dLZ/PDyt7SO5MNg7Js8AwJRlBGSKdRvgEuU8AHyg6ABASEaAcF/iMoAp+BGQSNI2oJAvg31gSmHbPlEZXQ5CJW7bxx7BxT7DmAYqydpnEKFAwaxfyPlte91tsPaIFELeWfuEOEExTvYgno7qtH4E+3Ekk70HlFO6VBvPCtZnksk+AP5wj/Zin66sz2ztBfBH7U2+ImW4Hz/ZI77xxAeGJSy9mpb6CpRAQUYbf1kicNE+UxrX14pD/KyURr41BiIJcr1cF83SAgAJcMFmwMWuGVsiJ6Ok6H8iSugG6ihylRzSaWXYyKFCAkpMHGVvNxRADlQys3E5UQIuB425yZr0vF8GlC77Cy0cBMQw6YoqPdJplXEjFBpVUDhJlX1MW8w9zpeZKrbV6BJI6gpbrc64NkvuLi6JFoogD1XVfXS6qv4hQKVoqJe74G8BTJQUkFC98aR4VRUbVXSl6i3gihNpDJM+QRXafnYWgPitGzAq87bJLQCbyYix7mkYDZvaXyDAxNfmBNqTCmmewoRyncjPicBbctkCHNBWBYj5h9zLdgtgE5H70LoVVjcmQpdAQqMAI5btP5HTi/iuALBIS+8G6y2hKFUrA7pJBj23FSlbQETUUKoZLimB8ZZsy8JjoQLyVEGoyenPMrE1Av3WDZRJBQoG+AlQMTXSXKIoSrkHcQXIyOnUZ5cVAJ1e3g/gPj0uAA99KMEekErsFXK5LU4Vp0/QltISxKWPFlgPSXr/WAAM2RqTremIB6DIdoTTCaegAUiHxHksBlGS3FvaMjHlrrZbQ5wddB0xAOh6pu/q4dwDqdSRzbBVpz44h87H/wrnGR10o3HaE6Pjv3Ygc18QYaN2YuntcVN0bjqfeHjerpbdmknkQprmVgfb+l9xXwDt/98X/Mv3Bd7eKaoyorlW28eYX9E+DeKf+m3CSkjRhd80+7cKRecRb6cvdalgDcqjx3r+R+2pXamMlCh9LL5sHyzlHOwE7Zp2DCnDDDfJFGMvIEKaAleN/ZXrCDNt4pOOn061V+yL7UsMR36/CM6bfQAJVsJwtvFE8an9QmqVL8SH6YrKweOs2ptpxcPrnQslADvMu18LXLXXD2/vIO4Pj4/nVxjr3+07C310ft8hH38D);lineShape=1;strokeColor=#99FFFF;" vertex="1" parent="1">
          <mxGeometry x="368.08936075323754" y="241.7031028603609" width="56.246085909073145" height="62.89207946767723" as="geometry" />
        </mxCell>
        <mxCell id="lsgI77zBe2tgthgqGCkg-142" value="" style="shape=stencil(nVjbclMxDPyavGpsy9fnAv/RGQrNUNpOKbe/Z03GybGcsx14S1NtbEm7uvigN9/ub5/vDsF9e315+nL38/jx9f6g7w4hHB/v716Or/h00PcHvfn09HL3+eXp++PH09/Pt92yf/r69KP/wq8TTosE31HB/T594yTHv198ONk/HB839jFL0Mk+iuZ9+xSl/29jX8W7ffucxM338Sq17QMKAGkCwIOq+4CqEuoMqJI8AVQp8wmaxad9QAv2SlElkhOaSjNBbdIqAUQpMyAlKSRtDVHKEyA7SRwQ3AyIEkniAChlBhRRFqUscfYhN0mESq2MGw9ACTTTrQ5qngFndl0HNEvWUgZZ9gDNnNAkl32Ad07cHNcahqL2wmSOqEg+EUTz4wZnQBnJ3+O3mwVRGz2hJsmzD2B8INyoXtQAoqRARA2nZwUhDIHEtUDUbQagzhAfoBc/h3WTmuuVD5VsRnS6EAkpyDYTHAyuhH4hSzKAJJVcybcFoJIJmVBLDZnAFla+m+h8AKgRWFglG7IWHqNFDYna47ammyDxpMigyM08qtzfRZ0FvYFkwNkEoGBU8vvBsg72ykhnWw+UUYm/dbk/OMXqkZfULCCSBHvoRi0gEyn7amXTxU1SfBlANjGK5AQE1egMSWNlHgBTLABgQ0+n3VwhUeYDSTOEGZ0FsJLq82h9Z6I6Wr+gZL8AaH+2zbPbkyDlMaZt7APJgo7rbjyuVMneW3slvw9lLjkr5P5uaeUgBVPC0PmWdaT166jMW1oT+zzqwlY3RMneLZzLtBT12r4CGEmLHYR7cSEhBatNV+7jEfEBQc3NAlhDgzJ1kXIkDe1/AMlMR2cmXgfEsRxs5i8216qz0z96YCHM0yjVNLU24nYdgFqydHFGjYgxYs50Uz4dBYlzlDCJsIEt5TF3bCcRQr68dMI+ibB6FKWZKNXh1XVAXWaXTPtIiXasRabZRFiqDSu4xDKNEteWosfWBdTcvCqOOI0LGLb2lYc4je3DTFRvLFUYuExre2Nt60Gcr9QXQw6Is9N99WQLerT9vC+37AQdE8h2fWYbj9qpJ7mxNO3lwbSfqPRKyKuhhmZR9u6xSBTDXyVcQhDNEnaZpveeboyAPN/auotGopRKWJCMC4lWJfRQMwPwste3kWLsabta9lonjd1nKauOPsKE82h9sWcPT6EM2l/s2bLQ37GKsWfvVGEpRyA1W9b8aHwbe3IfDWOc2NizETLaNydH3wo7f6KxZ08pUFTMxp41hH99G33bHh8uD7Gfjg8Pp3fc7f/twy2+Oj366vs/);lineShape=1;strokeColor=#99FFFF;" vertex="1" parent="1">
          <mxGeometry x="770.5121997681049" y="227.32222155318573" width="19.44551742912722" height="110.28560111709491" as="geometry" />
        </mxCell>
        <mxCell id="lsgI77zBe2tgthgqGCkg-143" value="" style="shape=stencil(lVfLbttADPwaXQkuuc9zmv5HgDi1UdcOHKePvy9VQUqWssboTZY5K3LIIbmDPrztn153g/Db9XL+vvt1eL7uB/0yiBxO+93lcLWnQR8HfXg5X3bfLuf30/P0+/VptByffpx/jif8nnCVJI8g4T/TC80U0783Xyf74+H0yT4UYukAMVOVbYAkyqUDpEIxbANUKWoHyIVS2wZEpti7VCyGCgCZpHepRhh0YmqpAzQm5W1A5tnj5QuJGHxhDHEdAwCUSBx7ljIFwFJpVLnPQ6IAvmCcZJdp+yZIXK3zeUstKUyckRh7lkSpgC+0QKkPOiTIkgFaD1ASBfYyc7h4RKFA++ocwufrrJXZ3goFBZy82pgYMZpJV/bo/OLrlEmAclqlXJ19Rfw0n+FABTQLs2/q+C+IT7N37YsqirdR6pUfqaL6qSvRYP8LFadKUnR+9vxkyhnWQ6jeHvmjnh9rfRHWs2t0iRLyR0iS4zOj84M//06HEOLef8F6EV/PYe6rW/zE/nzG+bXw2NkLmAOWr+r1xci++Pwy7NFWnxqdPeS/+XEf4Cw2++r1qKA/BF7i+0hwBAV0G3BHkb1HwUoaS1JcS4+zqLdy3PoeqqY6PJWciGOiBliq2cdgKxGSWQ1zV15k3OZC2doOnO4rzzvP7f3D9sDQA6y1IkCg3MdgvawAQLIVy41KxmKwdcMNY5NrAdWtq2lQMa8a5z1x2boaFQCQMst9ASyr4e36XgnOiEOKDuwB4/IJXLIB3Idg6zBKnC2u6u3RisN+zzSWBbTstZ6tR8HzpfdH7XoA7UtfqHZhyYhQfzkwNTdQRNbggrePoErV86l404/+dmNF2EB3sQG8tgf8Z7/hmD8oX6YQ9vYFNa//vDDet7eHj9vpy+F4nC63n//3t1l7Nd2E9fEv);lineShape=1;strokeColor=#99FFFF;" vertex="1" parent="1">
          <mxGeometry x="771.1692101077886" y="296.53097830970887" width="32.76152603447107" height="39.53167159731853" as="geometry" />
        </mxCell>
        <mxCell id="lsgI77zBe2tgthgqGCkg-144" value="" style="shape=stencil(rVbbTiMxDP2aebUSOxf7mYX/QKJsR5QWlcIuf49nRxnqtGN2pX2bpj6JL+fYHujmdXv/shkwvJ6Oh6fNr/HhtB3ox4A47reb43jSr4FuB7p5PBw3P4+Ht/3D/PvlfrKcvp4P79MNv2ecZIg4oTB8zCdRgNKfk7sZsBv3ZwCOQNUAkCHLOqAUIDKARFAdQCZIbAAlQA7rgIQgwQBqhVzWARSh2hiEIMd1gIZIYgEFKjoAAo4WwCB1HRC5ObDUIQQITtSRICT7hLg+VRDuXYrZyRJwsfYZkhcCRFsFiSAOk5bwmj3Xb+yLLRqrhw6PND/Z2gdAp8gF2N6vLELn/qgssg9UTRA5gAqxeyEBOwBEyLV/ITsl0xrTRQwesVUJgfskZYdERECWp5wAPRZpkWyDYW5XXAdg0+7CIwRkJ2jpiaFErV6WtEydctjteUo9sjGo1NjTptb1QpvidCRpLfTMI3aSlC+0Vr7RZu8PQXRyGnqmsk4FJ+DQOLDYZ0CvP17Qbhkr/8Ve22mnzVwbD9dY16mfxGVdkr6dapLJeaFESLZm2kDEyalqvZ+0Lukq99KMbgSawmKFFtqkvm6/lPTL3htQqvPK/f1OglTmkXr/Pc3knhTYxvp1+wrJxpt8e+n9qe1gzV46Ebvz+GzALwFj2zNWPbKs1kYjTomnkK1LOoO8TvfP6+BfAPTja/t8HHe7eXk9/7/fVvVo3nTp9hM=);lineShape=1;strokeColor=#99FFFF;" vertex="1" parent="1">
          <mxGeometry x="770.0581270704588" y="225.3170292824259" width="12.445054232752" height="16.708477347517697" as="geometry" />
        </mxCell>
        <mxCell id="lsgI77zBe2tgthgqGCkg-145" value="" style="shape=stencil(lVbLctswDPwaXTEEwQd4TtP/yEycWlPXzjju6+8LVaUawBIc32h5lyCAXZADPbztn153Qwxvl/Pp6+7n+HzZD/RpiHE87nfn8SKrgR4Heng5nXdfzqfvx+f59+vThJxW304/ph1+zbwAGSdSDL/nD9wg0t8vn2f8YTwqfAgKXwNE3sZnqKTwiaHmbTxWKDpAZOC2TaBlv+VEkJwAiSBXfSKg4CSAEHSFENjZvyz16PgAVLfxUr8UDf5fwFU8y3bZ4Nk5v/QzaHyEUrbxLUNuCp8hOfu3BmQU1Fu+ha96f4xuA1q9aoCIKjkEhJg0gaE4EmKCoI801dSJUMn2TETRnKIW6qZ6T3AiZLqyQYDq+CxJ28gmnT3fNOBqy1qiQ6gQ9ZGkcegoWwisq8Q9qfUUEIpWanZHi0ySaNrWrb1e02qdENxRVK6Etwy/dVVUQDL45Dm5WCeLJjznEFTdgOTu39iqtEJ26onhargjAvoRTAcwQfGsuUpwcq6tW70TiFzzF4lQtIjEy07WJQLrrk03mmMcIZCRtX9lFrR9kAnFjtMyd6svhATRU3aCrJXUSo+5ZZ2mzS+dQWeApdgvsYXQ3GuNMqAZwsG3j6iztPsYod/0HzwUEnC5J222d/mtutoJc6Nx2A38QWXc/1q7hZfF/6fhy3g4zC/L9//bp6R8mp+h9PgH);lineShape=1;strokeColor=#99FFFF;" vertex="1" parent="1">
          <mxGeometry x="769.7153369007463" y="228.0785978798816" width="5.1505210906835455" height="14.668214180500078" as="geometry" />
        </mxCell>
        <mxCell id="lsgI77zBe2tgthgqGCkg-146" value="" style="shape=stencil(lVbLctswDPwaXXdIgg/wnMd/ZCZOraljZxwnbf++VDVSBdbeTm6yjBWIxS6IQe7e909vuyG498v59H33Y3y+7Ae5H0IYj/vdeby0p0EeBrl7OZ13386nj+Pz/PvtaYqcnl5Pn9MXfs447xHchAru1/ymIPk/Lx7n+MN43MSHDM0m3sG52/HZQaOJj0j5drwGVDHxISHrbUCtUG8L8HAkQwOUYgF14eA6oEAtRZpRGSDC2yNVgSRSdIVTC2g5CwEIgmXJO96HUuCrTVFpoxuLqTtTRiRF5EZKl8HDRwKQhcWV18gBAdlqqWR4oo2WQSxNWeEqASRU27mm3yKEJQdva0gRSlgqCdGqL3l6JPUL66uBmuIDARRE32fwJEMNKJbWlOBIDU0Iqj1LlWWoEO37EIlaN2retDoxzymynUtNTJGIqaZF/hu5Chs0brHkxhCZOEhTb9LJciRDm0Nee0AlY6A0fdui29wozEEK6WoQeKLvHHttKC+6eVStXIsuavkCgIgpKZI90vQJUoPkfuBHgSOA0EZfB6h0fvvGejcF3GLC6wBBST2AehS1GwKKwtqAZKUXM7W0LHfsGh8WpVwvoGdI+IXlIMHG8579Y/9pLaHx3c0QAgJRXehvw9ZCIfyvS8sa33zDxjxyZ30U8vmvbmH/j28Pf1e+l/FwmDfG7f/9ithezeulPPwG);lineShape=1;strokeColor=#99FFFF;" vertex="1" parent="1">
          <mxGeometry x="782.168336717793" y="214.13642771266302" width="11.17966567367925" height="8.314031774842476" as="geometry" />
        </mxCell>
        <mxCell id="lsgI77zBe2tgthgqGCkg-147" value="" style="shape=stencil(lVfLctswDPwaXTEkwec5Tf8jM3FqT10747ht8veFqlIV4HAzucnyrkA8FgAnvnvZPzzvpuBerpfz993vw+N1P/GXKYTDab+7HK7yNPH9xHdP58vu2+X88/S4/H5+mJHz04/zr/kLrwvPUywzKbi35UXx5N3fN18X/PFw2uATpaTwmSHee3JNEVKmFAChkdMWkiNXx4RQKWpC5P6Jdwnc7JE4U0U+O4qaEBoVHhOyp2IIgUIcE0ogrwk+UQFHqpK3qAiNEjBQKzWng0S5jPGtkvcKL0kA5xF8cQafPcA3CqwjRBnkTPDZVAU1UEWC//f3GlBxADjs3ergypAQZWiimpyJU/hMWVsITAFb8FkTMjHOWtZZE3EElIZKLlgCzFuxdRcKJVQYmZohpG5zREi6I809ChNYR8kXmOqZoI/kQ/dqeCQdpYrFIO1Enyjiwig3B6KEk9CsOD1oR5LlZMWJupHUnTMRpYq+L72Hjb8FC6EmE8/8gZiN0ri3pyFBG5CSQA1bCMUIJ+AUN2IjnEQRabn2EbMRTkEdr/aa2UoTZe2zhCrtpWrCGujR0CnaAqdeKaOxFo0QfB+l7w/OYEdzlOmOR3PRPsh6gQgy/FkTcuxhGK0XVYtTNiQGYZUpYNRWGhwksiKZ2VkL3EdWD9fZz9RAdYc+ZVa8HAi4LGrXYtgMxwGBbwxE0IGdnQnzugEagKOkcyYd1gGHpb01GyCG3zdV16ShAm3erAo19/4xwuuAVu773gDvTcm1vlAO8Cb+JcMG7Prut+Jj3zQG+TUruQg7gPh89lLxMV4e/t9gng7H43IB2v5vbzzyarkt8f0f);lineShape=1;strokeColor=#99FFFF;" vertex="1" parent="1">
          <mxGeometry x="568.7824523063646" y="507.3575883056159" width="65.2725120034891" height="8.364368716295683" as="geometry" />
        </mxCell>
        <mxCell id="lsgI77zBe2tgthgqGCkg-148" value="" style="shape=stencil(lVfZctswDPwavWJ4E3hO0//ITJxaU9fOOO7194WqoSLQ0rZ5o2UuiWMXAIf48HZ8ej0Mwb3drpevh5/j8+04xE9DCOP5eLiON10N8XGIDy+X6+HL9fL9/Dz/fn2adk6rb5cf0wm/ZhwLRTehgvs9f/GRav775fMMOI3nFaAypWwAoVKK+4DCJNUAIlNI+4AsFCwgVQrApBTIiQHoERmYFJjYOl0KcQCARLkYQK0UKzApEeceEByIUiFfe0AGN3ChGO8AwAdxVL0FMHkPAIlKd4PAKEmlYn3gQAn4IEuaFkCmCgDeOXI2cxOBBV7h7BUSSAD7pFBNFlDIAfZJpGhTLSoRkGq1OAQLkHbnNiBRlR4ggN/sGhNWJgkSdenpqk4L8KEm8mwBqWVmGxBaYheAGolMUoC9QRkvgH1qUrD85gjZVxcXF4CaxDis1iRVEPKBt6oAvEGpwT2gInrHRrWVRv0/6N2F1VMGiZsEZEufelVAHrY0yo0tu2XAZk489loLTafR3FrAXinrMqdHVFwsSycIoQQASs6uaa3isIvgDyFKbuV3XTiA2yn2uZu8ADcEuVMpt0BsJ7velVftSyBO99yIkK+uH09KJUZNq2+jWdkK9gedHWwWdNhAZI25D1Fy5EESsnLZhkgHJgYxLY5SRwxuVNkuZK4JcjEJzktaWjvmBVyKE8XOIAqg/UzdxOrZwWGpLtJ63w+Vozmr3X5fYBnO0u1n1D7V/tT5K2gUU43Y8yMcP7W4OHt+hqqcJjd7fm0M2dsvXZ2AItb9yebL+9Yl9trUxx4N/wHQxfsb5WU8neYnzvr//k2jn+b3UHz8Aw==);lineShape=1;strokeColor=#99FFFF;" vertex="1" parent="1">
          <mxGeometry x="562.8518407169536" y="501.3612477827944" width="16.44370766079703" height="20.058926598688156" as="geometry" />
        </mxCell>
        <mxCell id="lsgI77zBe2tgthgqGCkg-149" value="" style="shape=stencil(lVfLctswDPwaXTF8kzin6X9kJk6tqWtnHKePvy9YjVQDDteTm6JgTWAXC1BTfHjbP73upuDeLufT992v+fmyn+KXKYT5uN+d54s8TfFxig8vp/Pu2/n0fnxe/n596pH96cfpZ/+F3wvOk28dFNyf5UWOVPK/N1+X+MN8vIqvFFnFR08pjeN9IacPkCNLHQNCoRYVwFdqZQyIjaoBFIptDMhSc9CATA3UUCKlogGRKqihJipJAzy5MAa0SKwBlRiUwI5Yl5CoORDfKHkV78jheNbxwhlgiJliMfmgLpL4aiRw5DHAECRd4Rj0ndsq3BovUfX4CA2IgQIu2qgsrdiQakzBsCS6RyhD1W5LBZ/QKGi3pc2wHwPqzQkZ+lkAVmlPAdEqOmXNUiYP/MxbiZtwde3GIaBqgKMA3NZTMhMj4BOkaA0o68wZsqprDusPDGXTnSRuAPOl90U28QmpzCsfmwZ3O1vbv5FH+bOVzIv/gcYfuTPcHQCGUsYjT0aMcaf0CeoKpqRTSoESVsGkJO6EnS1T2AAq5Ttj+3MAWTPeplTQ4klWh8TrahmuNj0w5MKAeqMvTwMQlkANfT1rs2WhAQy9fgHQIykznGHiXrPdiocn9AuFAWRioHRbK9zWeYaXHm/XeV+ogFRP2WxDhxe6X+fJ9QFg4rnVKlt8pQAmjKOsCWJpLECQs5uwiZthPk43kTRuhfmYtq58J38bH6FvbvIpbb1UjurV/IstkAmET82/eABdgm/0yhlewD577b8fLw//vzFe5sNh+US5/r/9JpFXy/dMfPwL);lineShape=1;strokeColor=#99FFFF;" vertex="1" parent="1">
          <mxGeometry x="652.1625053322309" y="504.6638978814584" width="75.76661619887602" height="5.015360020206193" as="geometry" />
        </mxCell>
        <mxCell id="lsgI77zBe2tgthgqGCkg-150" value="" style="shape=stencil(7VjLctswDPwaXzEkwRfOafofmYnTeJrGGcd9/X2heqgKkLxtbj3kZktYgSAWS4A7vnl9vHvZ71J4PZ+On/ffD/fnxx1/2KV0eH7cnw5n/bXj2x3fPBxP+0+n49fn+8v/l7vJcvr15fht+sKPC65EqnFCpfDz8iRX4vL7yccL4OnwvABkplQNgIVCvQ5InXKwgEAhXAdEIbEeUqEIAHW8HfaxUmsgBIps7QsVARFQLtY+UwLfjxSdfRqbvGkfiJO1D9RAvPP2DftOFSwnULKfr1QZmYtdfaYKNyc2myySft2cqYmNlQowL9Ts2gM0b9SrMw+Ay7rPoXl7xMxEiZ19Rt9XnkQXLeNSqd3aKwDkivuKOm2U5zb1O5Vs06X5yiABMsgyA4QSiLkFitYDZ8i3Xik4BVJOAD5LG0mdAZ06oGgMq4qpTIJcVMo26paIAaAXL3L6JIJE1Dq+NwAy6+Q2gFcAGWzZBmjQrtQCpnep1FcuEP1K9pnQ3DTEpkhi+SoFRl1UCS05JFEB9FOAI3gXyoAcuiSXaiVkQTFoIlyq82DwNqCQOA+zaF6ruWBlrEdKiBtpyMoSAJZUdde7XxL00P0ZOwWN+C1DVhbbWoEH1Y1uM62JQ5lWgFMmwcesLoltQUzkAx5qG0q3pDcquUzZ0VtgM1W1VXhjjTaS6F1UkAitUV9yHR5CJfkKUjVEiq8V5NRVGFdQ8OwTrVpUQerBxtAbLuo02oQFXRsC5NG1LAoCtT1vBiiZ3DHXlH1ABfS1a7S1CDugRp+VcQBKH73ctgcVCcs+3TdBMazkW09eVBBr+Z7GB9Qeio+BGzwgtGViB4iwmY99MGcxXXTA1uz7mfdp4X1a+B+mBZ1ynSomauD72rizY3IcQry9+81Xr7pER3Kuvno1BNRnq4q6gWdKCijGmrzscsGNS/ZnOGNCa2sU7a7qkJWQKKoc2DRnHYH+0nxZHunAg3S6ro5wVVHUZk/Tjc10LrgPSWPiWtwCwdMsjIlrBjR8XoqXoYy3VRsdx24FoPLRNns9FqIRTBt5V28aA/Tw1ruyfwDojz9Xcw+Hp6fLzd7yvb/K00eXa0C+/QU=);lineShape=1;strokeColor=#99FFFF;" vertex="1" parent="1">
          <mxGeometry x="716.1330787841307" y="496.22607895142517" width="21.87557339592028" height="23.56148797443211" as="geometry" />
        </mxCell>
        <mxCell id="lsgI77zBe2tgthgqGCkg-151" value="" style="shape=stencil(lVnbclQ5DPyaeVXZkm965vIfqSKQKUJChQC7f7/yTvlwLM/pIW9DcPtYF7da8kne/Xi4+35/4vDj9eX56/3v86fXh5O8PzGfnx7uX86v9uskH07y7vPzy/2Xl+efT58u//5+11f2X9+ef/Ud/rngSqCQOorDv5e/BMr6/x8+XtY/np9267NSiNN6JolgfSXVaX2ilMH6Qtqm9ZVCA+szlXn/GIjRBxLx/IEoY4vrAKacZ0ClyABgHpTZRYFSOgakRjzHgIUYHCllag5gbhAAkOULlWoAALOhzAClDABi+815IZECOJKksd8GYEogk2y/OLtVhHI9BpiJzDMgUQGBM68nd6RMCXwh6gIoFAsAZBLxgALSO8YR1w1g9wHY0CixX88oMxanVhKQekYXi8UFWBx84plLGUWZeM47ixlDex1d9PXgrplDfdolUvABY4e6hCwCCyzGqXiXKghBLNQcRQaKgMLiwheJqaIsUpI5K4xBKroJYSTZBmjUgA2d4WaA0WZAl3MhGGPyDNxqgDITTC9FIPP6keoEKAw5r+fqfKRShlVHbq1zHKoFDiWfnXiOdBVqONKulNSKGamNwjEALeD01sHSGwBfIPNSm29cM8YAyWdX2qW3hlGCj3hb5yMpUwNGWx1wbtUMk0+ar59qdxCVw0xxNlrrIJ7rGiCSzrmkjSrI1mzE7WzQQc1XAcVKSfAApJQqD1LZHQlRd22eKg0QgJcsc1x1My8FUExaW7xk3Aq+YIkgLnAZUqXt51hDZTj6OqB6PWwAAblkgNw8AIk3c6LPJQOgL7RB7vsjIS/pkOR7ADqSevFmgAxYwwCaPQDpmA5QD2gg+Qzgr2iCetIAmT0g4iP5SKdbgXMFxQCCkq8OE/8e4HqTDkCRLlR1sQED0upWfIHYGS2jABwClmytoLAbwNOMJR+oQJ2rly+gzkE3Sbu/Dxigb72ibyQBHUJhfyR8H/JiA1IC/QItANQjxrBo+x5qzDPKHqD4TGXJPlTk3g5Ivl+yAoG0g2mR5owuUOm2vLBxhReiqtdwusmPo0Jd3ZXbtjiUAgsAxaEPZWa+3wX/aKbRZDkTGlHIUPN7AYTmAWWJXIXqW8JgiV2o4Twg+15X5ZbU9UI0wEDE6r1k2hgCMulsQ8OEHxch2vU9BqQ5Dr2DuHGkuWhVzALWvjru610QAtQhzvd9Fgbw7Fbr5NDIzgBOG9/oFftEbz5S70Zxz67uCwyHggZwytU6ar0xRpiN7lM/ZEMaJu6mAoq8xF4mpgBnszH4I1kjhQpvGyVtNzpBk5DsBZZkPDnZzrsDVGTyOszJYw5xlBjrF1CLz9F3WX3Qibrd5AuQ4JmAedUJXWFIARKpLaNZ2E8nr+4FPwr04a+beCv0kiWaLPNoRAFpmwDsJt6oLbPLwrOXWGAvmqof2zEeUyT1UrqTAnpIiF7zWTqi1OgvD75MQ7dmS+85cAVPKdIYiG0MMDr46+szlXl/xuexmj7vH2BJt/WV3XpUDXPxBTrA7icvLwIBjnLz0tsH2CzlpW8I47XscOjj/QNVWPM3OcDHAKt6vOyPdOEiVW/km3ruClBQ5U2W7uIL/NkfJ4tbj3qetz5m3l5vP/68nH4+Pz5eHl73/+9fWu1Pl1da+fAf);lineShape=1;strokeColor=#99FFFF;" vertex="1" parent="1">
          <mxGeometry x="325.09585448323037" y="238.65305262287495" width="67.85086768342865" height="234.03139471089486" as="geometry" />
        </mxCell>
        <mxCell id="lsgI77zBe2tgthgqGCkg-152" value="" style="shape=stencil(lVjLbtswEPwaXxdcvnlO0/8IEKcxmsZBkr7+vkMYVMyVNEEBH2TJY3J3dmeHOoSbt8e7l+PBu7f31/P34+/T/fvjIXw5eH96fjy+nt5xdQi3h3DzcH49fns9/3y+v3x/ueu/7Fc/zr/6P/y54GKUGDrKu7+XO8FJ/4rP1wvg6fR8DWgSygTwKk73AclJaxNAndRCVvDi5hW0SYv7gJDFuXlLaUS1DUCIdQ5aRds+AP9XDSBLSwTgRWdADKJ5H6BFapoAKUomW9IscQ46L2nYXWFmumTJZEs+iJu3VIM0ltYoIc+AIpHEgOJLcQakcWe7lqr4GVCqFLKlnMbjBRBGGjYBRSXNxOUqjfRDaRJ1Jq6Ngt8EIIk6x5BUGiGuRtGZh/jJCmnQtACqRBJDRVrnFo1lULkJaOhpU97oByICLUjxdgUlW2pZfLCARlSjrUqjK1UlgGaLDzwoAahzVmdSEE+Y60vMSpbSCGs3iDmvqYgjDdHTNDOHFomMORBhAEgTI0KtCgCQiPShmMIKwKju5bqKwRGqe0MYQJbEVli091pcOcAy7QeVewBT3xh7mTU1CmHeEnqUqgCk1KhAkUx4QI86s0KmstG8VL8CsA7ClI2rLbFawuNog66sWtvor6u0suIDoJni87Q0AKhGviNlehtAYqhLuywjSKm49ik7E1cgAmwE5WGPljHqqVZipBmzgaZNpDTQwYbpFofc7rlEU62QNmUAN3TuwyU66mdgscJqiURmkEYpc15RwIHsCdZiLj60VCb9EK3ng1CxoahjPl2ZGVZ6yMcseyikQupiNa7ghpjLRXRmWtWhCNsMiJrm1GGTd/JjCIuJjs8yOncx3cto2c6nDjG5svVsesISm7nQOSTzGZbYqHZ31SSE9UkDm2QOICytvpBGf49jRTVnH9qYXQ5n+eJdlqM10FkCN9ym6JAhZkiytx4JHLAuS9X6Z5w7GMuwUMHUEa87uAlTFjjtMWeICVDUAthJCb7RzGbwHtmWoBVqAWzqQIDTegUiRt1eu1UMpNtgDozEA+DZCsh6WfHAajuuVojUGAJgmid42p4dYNKqn51Y//N1yecAXHy8nXk4PT1dXu5cP7dvc3Dr8iYo3P4D);lineShape=1;strokeColor=#99FFFF;" vertex="1" parent="1">
          <mxGeometry x="130.08352154219676" y="402.5535392141835" width="24.537098016723085" height="33.03552244964995" as="geometry" />
        </mxCell>
        <mxCell id="lsgI77zBe2tgthgqGCkg-153" value="" style="shape=stencil(lVfbchoxDP2afdVIvvs5Tf8jMyGFKYUMobe/r+jWGySyh+nbAj7Y0rnIO8WHt+3T62YK/HY+Hb9ufu6ez9spfppC2B22m9PurE9TfJziw8vxtPlyOn4/PM+fX58uKy9P344/Lv/wa8YJk4QLKvDvf99QT3+/+Dyv3+8OV+tDplzNegWwrAMSj58HIHaSvA7IQq0YQE4U6zqgBJJoAKUQt3VAZQq2hhqpgx2aULZHakwd7NDyKHEAUqfOEFAsDalQDABQqDlAhG1t7WYHphrXAZ2pJU9cBEz3SCF6AAMt9ezbqgAkvl4pN1uDqhXVoAewTKdEDfCggOZ2aBTQkfo4wKJW1W+HgGD9kDNFoCUtunYLaBRR0Zma8wNTAtJQ4rIDCCVUg9w4TqBFVXyurXokZNFWfWpkbQPaIQ8xX6VGuWNRKw0lTpDjFpoWaVRKaAd1sAuBRAK0pEV3p1blAVvUyVsNVAoAhPF/C6BRR0yrXW7SO6MQKNSzr0HQkTSXbMxokFUE0BK754GBvIW1TWypZqiNFQSQn1ZRbRU1j6xa6xNbNSn7CQl8GYLLoH4/5cdjTgezTXxlE3mo6BQM/kwdjWo1nSW7ah/QZUA9ZLnTUR1BDVGjyREhVIFLpQ2eFsHixA/Dw0tbKwWwXnwFokQDB7EfWRLHIF5ZL9ZwohkA1zuldphievWxjJUx5VeWu7tYwt2naosNI/dXeu/yDpeqDrAew2Mt+/vLHbv4tF6Y+NiPPhgZeut/79n31+vD+6X+Zbffz+8E17/7lwD9an6BiI9/AA==);lineShape=1;strokeColor=#99FFFF;" vertex="1" parent="1">
          <mxGeometry x="158.3971469935177" y="405.56640103169354" width="25.44096913656972" height="16.72578224207333" as="geometry" />
        </mxCell>
        <mxCell id="lsgI77zBe2tgthgqGCkg-154" value="" style="shape=stencil(lVfLbttADPwaXQku931O0/8IEKc26tqB47bJ35eqsK1I2xP4JsscLckhh9wpPrxtn143k/Db+XT8vvm9ez5vp/hlEtkdtpvT7qxPU3yc4sPL8bT5djr+PDwvv1+fZsv56cfx1/yF9wVXG5U8o4Q/ljeROP198XWx3+8Oa/tCPRr7ICQNABr1ZAASSPg2oAkF5xHDE1omsYDExB0AOuVqAZ1iuA3oTN2ekBs1EEOX8b0BKJVKBYBEhQ2gZkrohEpsedC8pXgbEFiTYo9ojTiDIzJ1m6ZeqCGA+Lyqlx341BJ1sQDNawHFFIcD/wDKJQAUphw8oIP6TmXU2hoAmIsyiF0BCsiSln9gD2BAtTZYbT5LAZRro9w8DYjoiw6dmQc5CsqCo02JBBGIRnABQCoTtR26BURKiLZG6QIQAG1FaWseIKj0MtXiARXpWKFYfNCoQ/V7sXseoAaUIXOrBk1AKdUBcaVXR61cj6EOXlell0Faa73SoBE1aKYgHoBEJgdiC1gp2/ViqqPWVkdUMB8k+ZmoAAE+BQ0i+jRBqgdNKx4S7Gg3TpRoNLDUnu+xD9UL8TwbAG3Cvhvm8QMaVCWgWZmcB5xAEpJlTUdoBTEogG1S5yENiluFONmgdQ3IwKWgs8HSkPBmEvRve4KuMgm0T6ZoQ1AfI1Jir6ufLGMXKwBe9nRSudVt1NV1EaZsvx6ogHRqn3dnzqhGdfO09gzZukwmUwC50ZmT/feRrCStt3qHfdb54u2RPyX4xQLHW5pvSZzPmvyejelSaXerFK6Gu28Wn9rrw/9rzMtuv19uQev//bVHXy1Xpvj4Bw==);lineShape=1;strokeColor=#99FFFF;" vertex="1" parent="1">
          <mxGeometry x="168.66795901664182" y="393.17766372317055" width="3.387144358322682" height="43.54567392599374" as="geometry" />
        </mxCell>
        <mxCell id="lsgI77zBe2tgthgqGCkg-155" value="" style="shape=stencil(7VnLctswDPwaXzEkQZDEOW3/IzNxGk/TOJOkr78vVA9lEZI340NP7c11sBYeC2Ch7vjm9eH2eb9L4fXt5fhl/+Nw9/aw4w+7lA5PD/uXw5t92vHHHd/cH1/2n1+O357uTv9+vp0sp09fj9+nX/h5womS6IRK4dfpm0iV/3zx6WT/eHha2JdMsQ32jWIG9kqpjr9fqabLgJopxQHAgVIDgEpaBkBmknoZ0AKVPACkEAOXWqQ4xlAqNYVPSGkAmJPIpdqoyJhVoYyyVCmPWdLZyW1AoTa6pJkUpLUYYHQphkAhXEbk3JMyPwKniY1L4n1qwKeUqQYfdQYA45qrXGu4EFTGBzTLErBPPmSzlwgc6kSb7ZkaaJ9AnL19AP7MFZrtE6UCf59He0uoQP9H2k3NhCrW67mwDyA/lu2REVUpw3rl4O0DoFwM/c8zoEGORougXAUQklUI0KXma/ZOzFOR6zVJtaqJY50NWVDlJJ00i7aJoMyc+hKYGzP1IbsN4FXjtE7FbWIwRcds7lzcBAj7KW8zM6CBx30vzYDQp8E296LfVLYcG0hrFe9SCZRB0FbXOtZBbLwAl6zbHTXOadgGGBHGASCpr9NtgCUxeYCATaXBU8MADJ6g7BXD9AQQtJZe12UMIK3auqBYZglwSZUK+zpkEMNiVc4IIQbss0fwWpSgqGvXaTPAlh0KQvysF6zErIV57FFpcPk0XZHJxgbid/Hr2VxCAsB6XlYxIDLZOnPy1tJakNYLJK7lhCrqIAO4wtkUQD0aVzEwKSicBZ1XgIiCtoZYtVxBddCNDoJsTX1/LABIrxr5UvCAiqZAXbUc47Fh5FNfB5QlA6gDCKT3NAUcWwsUxNcD2Kv6kqB2mNayu0xKl8iXyOfGd01QwNXkV5CpEzSNbQd6yVrgZres+8vE1AQIOpvoc2KjdBl46WxQdzYo7OnIXvRNlwxoUYvQHTIML8rVmrYObNBeV2fJ/zNjmZ9/8czIV7n0988M7SJqwQoBVcuhk3IGmCIBtMh2I4wumbpEgLJa/4obx46AUlZPAGkt4rdIm1fdNqB25i/uElSH0vwxZj+hKOi6kjAF1sFGtrtL7NpSMI7sbHFpZcsSiMFmvNMLRseMGnTFJWM3Yoat7jFmrHhy7pLrbI/Es/1+9K9JBe0o8RMp9vt1276QjiUIXTtc7ITk7BkMeMunsrNH8Urs8/Zsj5SLibNcvT1gkKzyGaBYMwZXcfZIb06Xis8namPRPtrO9UpItFz52vx9e/twfkd/f3h8PL3iX/7dv9O3r07/H8AffwM=);lineShape=1;strokeColor=#99FFFF;" vertex="1" parent="1">
          <mxGeometry x="192.55480026459736" y="377.92641936266216" width="16.77691992216391" height="56.81520939511207" as="geometry" />
        </mxCell>
        <mxCell id="lsgI77zBe2tgthgqGCkg-156" value="" style="shape=stencil(nVfLctswDPwaXTEg+D6n6X9kJk6tqWtnHKePvy9UjWoRlDbT3mQaK3GBXYAc/MPb8en1MAi/3a6Xr4cf4/PtOPhPg8h4Ph6u402fBv84+IeXy/Xw5Xp5Pz/Pv1+fpsjp6dvl+/SGnzPOB6oyoYR/zSuOYvmz8HmOP43nVXwU4tTEV/IgPlVi8/5Kse4DiifmBuAd5bwPqI5SCwiBQgCARNE3gJhJAIdaKLack64wAGhOcgPIhRziUCmVBlAiFb8PcMw2TZoHj1hXKqZwkYLsA1QZzrUApZX2AaqE1LLWxGUHAJlcbAF5UeM2IC1JWQEY5FV0A6EFJJIISEvHIVJEgEIiFsCgDirOYgoXKCPHqfylAwAHRd1Sx4FB4ZKnHDvSyNR5sfA6rWBL2gW8AeRFXduAQjVZQEUcEnnDoSystgGOiknr301upzV2BqrLK7Yrra2vNfXKtdsIIWH7iQoAPlINFhCB+jxT7dJUQZrUo1Yb2spAmtSjqSu1x1+wedUGjRqTI9d1MjQhfNrwKOKgdTATQi1XkKkrhQ6A1BcTuWIBFXwhiRWTckBy/R+AtVxcEr1nudSNIAFDa+oCrVqnKYc8Wqw0dI4KahvZDohpUiPS2ujaIadngQC0lNhqSRs6Ep+2b2lJ64xBg1rVahqTMBzUeqDybR0cQwMxpTarAhl0Jw2BI5Tt2UfnFzrJUE4mHGkoWFUzHJ558fk9HKaS7WmYoQWcDtZo4vmDUgUbD/q7+KWbr/aDT1SBTTzUGi8HtHt8Qp3U26OF9mI0n/7xdvFxvD7crzIv4+k034TW/9urjy7N1yb/+Bs=);lineShape=1;strokeColor=#99FFFF;" vertex="1" parent="1">
          <mxGeometry x="225.42760591370757" y="385.2649304438132" width="6.964328475557409" height="56.72803062941853" as="geometry" />
        </mxCell>
        <mxCell id="lsgI77zBe2tgthgqGCkg-157" value="" style="shape=stencil(lVbLbhsxDPyavRKiqBfPafofAeLURt04cJw+/r7cLuSY2s0UuckyZyVyZkhNcve6f3jZTTG8Xs6n77tfh8fLfpIvU4yH5/3ufLjYapL7Se6eTufdt/Pp7flx+f3yMEfOqx+nn/MXfi+4yKRpRsXwZ9mpFPK/ja9L/PHwfBMvgVp08TFRYgBQ4uIAKZDqx4DMJMEBilApAKAkzZ9QSUEONVJTB+BCFQEyVZ8Dc//ENkD7jTugUQLxLRFXnzNpAPGN2siaABJURhLsgiBhLVR8Sdk4AAmodtVcAbYDbsQhUPA0x0whwSOSz1m4Z7UNqJTEA4zmCADGwiAkOwGVyXLwJyQhrYC33L1yBSRMtNmNxxOaAOVZigMgYKkK5VWVBORQmYrvANYTKiDOAIO4rWUUoA3zZ/QncMOAtCFXAdKojaK/knatbNMQqfgiVYrgQq2uehjsSMpUfUeyhAEHmkcOOHbtbgPaKDyuxCBjc1vzho4Rtu0ZMPhZsXmMA3+CJGieTwOMtTywoJTBlUrrNbnKQmCVzL1DlW762kfzUzyiCSzTLH1/p9woAyI4jGZIpg3Uirs0b+0J2mToo+Maz9AMq0Zv0kPDMKxGiUAzhNE7SgqsENejtiCKR0lI78jbEqLshxTjuUnRz+VACahndnka4pHaOPch/B6fAbXGTB24IgXFWXOVoJg/+9r8f7wt3p+2T4fjcXkZ3/4/PoVta3lGy/1f);lineShape=1;strokeColor=#99FFFF;" vertex="1" parent="1">
          <mxGeometry x="223.51377319867515" y="433.33735441178317" width="15.235099438100217" height="11.551546114958645" as="geometry" />
        </mxCell>
        <mxCell id="lsgI77zBe2tgthgqGCkg-158" value="" style="shape=stencil(7VpJbhxHEHwNr4Xal7Ms/0OAKIswTQqUvP3eUSaq2RU5E2MdDeg2ojK6K/fI7LpL775+/vDl/i76r99enn+9//Ph47fPd+mnuxgfnj7fvzx8w6+79P4uvfv0/HL/y8vz708fX//95cOUnL9+e/5jPuGvV1x0cUxQ9H+//iEkV9K/f/n5Vf7x4ekkH1xpu3x0KSv54Hd575qQ967UTb67UZR46Jt4c6EpcV828eKKfLrfD5+Xta6dPW7iycV4XTw6v5sevvDXxbNr+9ODNHx3eX+6d7UKP0V2rHcxCPm2LPcm78XpoVzrLC9sifMXlq/CmCkva7yZR7k2+2XsN+sPYZ9c+TzZdXGeEl0OFJle5FWBPffzD9eE/Wtw0SSiOlBNLu8KhOqSBoz9RDMkugDE9bwDkFdGXNYZMbrrAKW9cEIxQZTSCttrXqMjpea6ACRYfa8/Obgm4jRlLqC56MAebuxK5+aGyhwEzq5DQdUTVkJRo1QowQ0Re3BT3XOhoHJpQCFAdkFk2zxSYYBKtxTY0xOg/NBcrAYg6mNOnKAANKF0HssmJ0BSKZ25OcGsTYV3N2ZNzgsdUAQa6RB1TmduUYglFRoADCp7w2WhAwCJ8qHLWEKZob6GfOgiH2oyKdpcVaUyO28yLmula2ZAFFWjFo4lAIJyHOqS0UF6GicmK9XlmcuAzv1kApTjhqvFAETGNTTkbnQQVmqGO04rCR1aXP3mBFDhDYANjax0iCa829LqKmAvAgjvqt5ggg8Zp1pWa6x0OTLkMtELrhOgSerQK3sanVu13eFd382K+M2i3I+8WPhBfrz0w8Dz9middhMpOjozedgtCKXHWD3zABwBfw1Qd0/D0E0D+l4EepKlMngzX/QsqzFe0XYzwZdqIoGZiP/0tmrbZUBxgwDddaV15M6OaFFVAAegCW/cGGQOAnYA4nLN5QwqLhKVTrdqZdpdDTNIpmuPhAAWPasU1wmgKxmKBLH1GfGK6RbOIABUJQOvDaT0kNU4Re6KANzgcDSCniL+MsIbRwzpOZBpYn0ToMh05049huRkYN/dvKEofo8EawxQsRGPieQEUIuAqUNkgCqW00r0hi6tNP1ggqmL6gpXE3MFQI5NkXvQfIOoAhj0LEDxewxm1tNqMAOgF+MHNSuiWJs3qIIPQBkMUD0ISg+TD9IPiTvKzAcRGsmQhwlQVvI8ctwAIPjqdx0J4V1NximlAfDmSMqsyLhmjqQcNwHmSCo0cKRo3uBVIeurlP7H8I7jAqDrIvB9AEzUnEBdrgTRUTop3WQRwIBBo99osu9iuqVtMvquGv3AhDmBimtqksumVGbN7/0y4olsZHGkduwBT3TGi2jt0RRjLwdkcMK269CPHLzG72lRAdJXFJk21Rus7sZAQH16ElfFQ4/t6pka3wAQXT8WntcAVJf6sXO6BvD0rUGvaGElqq1zRlFsPZgZJS+SdtnTneeBOZSr0a+sDD5NchJgyj1mxSg8DfLNO6y2RoprCWTnXeVpnJjXal7ndGK2jpn9xqr8x0rqx0rq/7KSSjz5IbzVKqQZKp2H/OYLAG0RkHFJOA46ENEtYTWAa46jtQNavQIglrxZlatSOb9mFQYMERrFRGvJckKZ5ITqUpFmnR+K6INCXUz2GiMrgQHKSiDr3QIUDS08gAOgzBo6D01QWq37g2H3JUtmHIZLtEDVnraf4UuQ1TseHe2UD3KkKeu7/ilFm3rD4J1XzvozZDE3D4L+0GkG8HTsIS4DGpMTzI5yhXUsMxcg6gkFfZ+/sOf1vfdaxhHXgCuTOlJfHe1YMFXJvecabn9DSHIhhZwmPwQvUzQb7t3kZJnN+FCkF5Ih0kly0HmNgrwmr0XgcTQlBjkkhs7cSi9zYe/Kzy/CPuYWS5QltXKzTWs7fdm9q6AfWabjzXQEfb3B0H8XFOvkCyZdlgizRg/6gk/n+zohykI9+BMOXKcY6lgXAE7yqmJ1nswhr2po56oOeUXiG/d7yMs5hJtAyLI0VL67MuVVOWQCP+VVZTClSn8RO95+1let87mtTnnVwzhXQpLLnWjsk2RD+t6LiLfl8ePt1uOnh8fH10uT5//nW5L40+sNy/T+Hw==);lineShape=1;strokeColor=#99FFFF;" vertex="1" parent="1">
          <mxGeometry x="894.8759395659424" y="163.14600942915763" width="42.87265805728225" height="257.32396418624205" as="geometry" />
        </mxCell>
        <mxCell id="lsgI77zBe2tgthgqGCkg-159" value="" style="shape=stencil(lVjZctswDPwavWIIgOdzmv5HZuLUnrp2xnGvvy9UD1URjnaaN1vUijgWC5CTPrztn153k4S36+X8dffz8HzdT/ppEjmc9rvL4Wq/Jn2c9OHlfNl9uZy/n55v/1+f5jfnX9/OP+Yv/LrhNFKuM0rC79sTZkr575PPN8DxcFoBYiaJIyATh21AaiRpBBRqug3IBigeEAAgVWrOh0Y5Ah8KJfY7JOCDpm7ACiC8DZDYXewACRTADrbsTBLzoWwDzMU4Oq2VSoOA1AZAClQrMEkojInLQk0AwBI3mlQCDGsUSuMOpVABO6TcudkBlamCKOVKcQxrVWIQpVKJk99BAKAG73TG5LPvhdGHnKmCKFXpywsgkqIdEqkDWKBBWGsllRHAENCW5RUgJgCIlKo3SUFNt0JcvNMBON0aBfFhjWiHRs3R2/iLAdWxVYiBVDYryFEEiskCyHTLnf2remBQohbWMNLb+FtQlEI3YAGYjiAuWUGyB6ACqpFK8SYFRD6h6EzKXXi2Kq66sCqUmblEx5ZlupSRSbY8SmXGumQ+8GhSTrApWpSc01khvS0PXmaYCqq40AtyBVAglU19fzBAQ1zK/XsrHxRQw+ohBR+lhOjduosLoPbZ4P0eF5Yuu6SaIV0/jmjJt0WTTyj4ieoo+LO4Ad0wOqubZwKeHmzGKqMTFjpFU5z25QVgVoKBRtWLXxOYO5uAnJZZmNDIZGOk07K58aG49nFnrRugSLVnaVXUGXjAvuIsyhkkwVRmzEFi+P074mnpFbhhTx7LTRJlkOPspZ6VBLzPd1NA7JPKFiXaaFDoH9jiHAf3PiS19Q3nMAn4/twFnMz3B1uiXcYasBG5AIZa9+YxQMqw8ud5eWwLKrA9x+a7re2AOB2Dn6usLNCxwZarC+rSit4HFH8as0JKaIfUu8YCEDiIzWelUVoEO20AdSdKPMQYgJ2glj6lbAGio0buud9ymh0g4ijdH6MVstvykJ3T0o8qm6exUR/tZB+RPlrU764CoAAYvdkDGDWRj142/AfAfvy723g5HI+3q5H1ur8LsUe3exR9/AM=);lineShape=1;strokeColor=#99FFFF;" vertex="1" parent="1">
          <mxGeometry x="993.7446821183557" y="323.803316390463" width="23.88416007214422" height="26.122425502467955" as="geometry" />
        </mxCell>
        <mxCell id="lsgI77zBe2tgthgqGCkg-160" value="" style="shape=stencil(lVfLchpBDPwarqrRaF46O85/uMo4UCHGhcnr7yNCLUZatl3c1ms1Gmm6W9qVPLxvnt7Wq5zej4f99/Xv7fNxs5Ivq5y3r5v1YXu0p5U8ruThZX9Yfzvsf74+n/9+ezpFnp5+7H+dfuHPGVdojBMop7/nF4ka/3/x9Ry+275ehXMhbi5+kLTl+Cw0qovnThUkEKHiAZaBQYbC1P2JZFDJy4CaKLMDFMWATtodoBogLQOaNTU7QLOi+zKgMyV/C71QA0X3RjkAFLZ1MHHy9yZUBwDoDDBwBqVRPCBRLQBQKavvEuaS1RDuoWVigYCYIZHgLiUPqHYkcNMGEH8PteEMdmJPjVpwl4Sy10MVYgUAY46/h5pJEKAR1wjIqK2dWo6ADgRkzNEUaxh3calWqDi1ew0S7fDiDFDCkZQEFa2k3maasQto2gBpxlZFXeqxaPMRRuRrsQYDNEyNYPbtQpYl8pVQtJAiQI6+ZEUjIzMBldClRFrvMTKTqCIj44nMVxJVfKQRAHWyhaWiI1s/8dbZEDUBVZShUptLFAmo39B0QUcyc59JFLqGThPtysgGove9AJUZNTLUgzbqvuhmPgJqUJOoL7p36kDTnFJEnDQFyKTmlR5gb/iTNnkFXSVd4mvzCDW+ghRWZFiA1EQF2NSNO2G0X/aP2wtQj5o77QLgSOal7AFdYNHGHQkrFp6jpU38v6JfAxlsiww7WbnssrdXXY1TznZZBfSzVbt6G7BtGU0ItvXEd4krCTgSxwRj+oGb4RfnvVwCtIA0Gw5wyU3EwSWnNWIhPCitQIu0cP/rZsGgM2ma3ZfWT61aCG8+nOFUs5HjyZnwvU4u9REuQF02USWEJ9B3s1GO4YD3Npt6CGdwmDu/Hz8Nt4ePT9WX7W53/tK9/n/8tLVX589iefwH);lineShape=1;strokeColor=#99FFFF;" vertex="1" parent="1">
          <mxGeometry x="1020.6828178640906" y="319.1823133739705" width="40.89536540483134" height="30.50776728197775" as="geometry" />
        </mxCell>
        <mxCell id="lsgI77zBe2tgthgqGCkg-161" value="" style="shape=stencil(lVfLctswDPwaXTEkwQd4TtP/yEyc2lPXzjhum/x9oaqURcjaTm6ytSvhsVhQAz+87Z9ed0Nwb9fL+fvu9+H5uh/4yxDC4bTfXQ5XvRr4ceCHl/Nl9+1y/nl6nn6/Po3I8erH+df4hPeJVyulPLKC+5j+iRTr3z++Tvjj4bTEM1XX4b0nztsEKRR9T6jkwBvE0XhvQQhC7LYJxVHsCSxUwzYh1XZ7zlmrwNsEvV37ImUNsgCCI586ggZZQA7MJLUnaA6yTQhic5BMAbzBC5XSEWohAUn7Qr5vXBUS9IZIWXqClhX0QZVT2BIqCEkolRUeFClRihafgVYD1WTxzoMEyGVbIQ/wrgl/0QIH8lUVmfqkNn0b8XhTnwhbzKsO63RHVM8SLZ5BvrNeFniHBWEboCFiyUmxBDTJKuqQbInQJOvYSLI9+PeI+4Ta/HMmZGJM8P0kqyoiULXmUFayS6hKyXq86hr1zQcqq0FAQtKx6oXqnWodhJSbMSxfgPxxpbxKAUyyp+xsiSKcNHarHoB45uwWTUYyUvc3+aY2q1t4/xn8uIT7DojucaS6YjVRdDTQwtFR61uQBZoRR6vrJDCkyE3F81ouzcDv21GwO5ALVp1fHS0ynJysK7Kvks/QIUtcNbqdBO47pG9FnyMiBl2QYP3Lt9G7j+d27Gh4BzempGafNzzyIj3d5WTwHtRH5gV/w6OOVc03WjyYe3XzaPHI6XRszenUNeu7j5e2sG/1Z5DvaFP98wM59Hy1QasHQWPsVk7ElIFRfPq8/1+8Xtw+Ll4Ox+P0bbK8bz9G9K/pQ4Yf/wA=);lineShape=1;strokeColor=#99FFFF;" vertex="1" parent="1">
          <mxGeometry x="1026.577585481228" y="322.48090897607574" width="14.106706693454498" height="39.37043502440143" as="geometry" />
        </mxCell>
        <mxCell id="lsgI77zBe2tgthgqGCkg-162" value="" style="shape=stencil(7VjLbhsxDPwaXwmKep/T9D8CxKmNunbguK+/L7eGnBW1O0GAHlqgt7VXs+JjOKS08Xcvu4fn7Ub45XI+fd5+3z9edhv/YSOyP+625/1Fnzb+fuPvnk7n7afz6evx8fr7+WFaOT19OX2bvvDjinNCNUwo4Z/Xf5hc+v3Hx+v6w/44W++ZquvWO8pgfahU+u8nkri+PgVK3H/fky/rgByavQ0wWRTWAcVR7AHekUOATCF3gOCo5HVAFeJ+hyhUHABECr3TSZ0WAEiUSwfIugMCZPK+AxTGJhVyfZ41DM4DQCXX+1BxlBwzsUGolRVukWoPKMTI69K4OQMk5HVu5LwBKvY6kmQLiIDfyo3qLaAA9lUm35s0C9waX02Y3kREm+zJKOBFkSGwtVXVMoApD3FCRZfrkAlNHch1LuTZAhikLmeqxiQtdECOGIYoOWIE0CgZvjIJyIMCUi+WpUIdiJ5S70MpFIBaxmiFQ9mC9DuWJqYzgIDEJWmvb4DUAr0MiFRlAAAZSLWpxNwk1CLUpAGA1FJ7inc2rKiqc7RsLRVKmQKs9nFTkmWAp2i4pORDAG1q2QIyqIdUBpOkfWKtVZs8KMCj3s6WS1Ugl6IWpFgfUE/REjX0VoAgevuhazEuILHTg2YatRTdQfodlEsZREl9MLqkbK3IpDyIAO6jSZkz1DSSSs10Nj5oiaJMl1aQ8+kBFZBr0jsDoLBqPeRowyqo4t4L0KZYjNwrWUAe/taBZmjU/+BAY+j3f6D5EwON+uAGtaworGwPi1NZAz3Ws5YznVePHaCG9HXoAdq80fSgUTLTgx6dEopStL19UmiUh4GvQShgteR+Bz1gVtSE0nCEFSivIVHpa85F2LV8aEV/y3QbJxbX6/7BntodGlyttgY4zHg7FwdYzdJaxy2eMMNsBQnLNtv+rEM4XM52OSp7JU8fSAf1WqcVe7viADelSfPr5U0CaQ22K9+sWyayrRRuqrpcuxTFLEdZdYOCMux9772penu9Prxeiz3tD4frrdr8vb1G07+uV3D+/hc=);lineShape=1;strokeColor=#99FFFF;" vertex="1" parent="1">
          <mxGeometry x="1068.093432464409" y="307.2643044966811" width="13.27038399551384" height="55.8101426770178" as="geometry" />
        </mxCell>
        <mxCell id="lsgI77zBe2tgthgqGCkg-163" value="" style="shape=stencil(lVjLctswDPwaXzEkwec5Tf8jM3EaT9M44yR9/H1X9dAxIHvb3mxJKxDcxQLURm9eH+9etpsUXt8O+6/bH7v7t8eNftqktHt+3B52b/i10duN3jzsD9svh/378/3x/8vd8uTy69v++/KGn0dcjpLjgkrh1/GKFgn658rnI+Bp93wG0CxdDaAEKfk6IHXpzQBqkeXvVQAiBANoVXIlgCijG0DHKxggSLBJjyiFLCkm6TZCDHhHICHm3VMElUwiBP88UigkhdXzLYsWkoFky1pNksj6VYZ9Pg8Z5Pkqo1gZDUpBDFMDJ0CUMAhAJWUDgE4Sy3hIsBHwitap7qJTtjSyIhRKssLmksgq0WYQJZH1lOjXk6U18vyQbDUR+ZbWKtUmENuk/SKgqc8YWxTJklqXbFNWFAYhrVcJttBgUIO4y0ii1ZKGXSU5jLqqhCiNKHUMKa7UIhdeWBcnip8wjRDN+lGD9FjWXarNurVpmteyHg4wJjWXAXlq/2RIgecAIroHdOJ4faxcO0xqLgOa7zzIQRmgSux+lyqhupcVoEghScOkne2BaY00wlpMrEaRQ7NLqkMiq6CVNGqTxqQRZoGdAHV2u8sA9UwDwIxyQMzJL4k1w9FWgD6vXCugaI2pBdo+ARg2Qkt/i9BtPUAazO0BCCvxMeKQdHGAPtV1bVuLFR8KKBHxgbi4qmlKXJjOeAaoxDUgPi/vQXsW5O2NrM8ec62AnH1jOFTCw2UAK9E0N/FsXmXSWFK0xBU4FYmAUS1bHjBcRdaom6hro4M2uQqmLQ+q1Fux4mB5SFAryQFDv9oclmmGAPLq3BArHccwKTQ3zpR5krg8v6HHWeIwMCnZVsxr7mSCw01lMyjah5vIEu3TMc8WeDadVKJWjKjONT6ovHYycRPWoi5mZH4QQM1msqsIUO2u9kj7Oljy1qp8V7Ekd0BECTLeivex3KgHaPDzlUZaDritlmi8gs3qEGuySWOjmcugHl0EnJML4WGRZvAANjngeDJWJT0IcYpNTKsIpAFp99IAgM2IcK1W/C4x48toN93zEEnB4bTgnRK2RAYBAKrVEqgs7BQXV1rix8r//sLyDwD8+Pig87B7ejp+Dzq/7z8A4dLx45He/gY=);lineShape=1;strokeColor=#99FFFF;" vertex="1" parent="1">
          <mxGeometry x="1063.0452373084718" y="305.0214081725485" width="28.532170385016116" height="30.532668533190872" as="geometry" />
        </mxCell>
        <mxCell id="lsgI77zBe2tgthgqGCkg-164" value="" style="shape=stencil(lVfLctswDPwaXTEkQYLEOU3/IzNxak/dOOM4ffx9oTpyTFDeTm6yzBVeuwA48d3r9uFlM6Xwejoevm9+7R5P24m/TCntnreb4+5kTxPfT3z3dDhuvh0Pb8+P598vD/PJ+enH4ef8hd9nXFSKOqNS+PP+hhL/e/H1fH6/e746z4VC6c43yvH2+RIotP77QiXfBghTCx0gFapyG1Azld4j87EBC40p9oAspACgFkPqAKVRAi4pU+0tiGUJAYQid4Bal6jWAZVyn9aWSRMANGp9DBaVAEAMFnVfCL3Uft1EIe6ppEqqoHKVouPGh9F1NhWPsCje36wDMqU+7KaUgE8GKH0QrRFXABBKuQdY6UBijTvqLAjkqyQq1QMYxCAyxCBQ1NWowIMFrLnUPKCCOsylHrKUkUuWJfZ1QJqrStlZUEgNsyA9YNY5oquQBA9oCMBU+hg0UgH0Fl063RWgAclJIVEPQG1AItXBJUF6MPYHD4gIYN26+iyh3meKy70FK1zBEmWnaSslkmih0qfVyFeRhUpaPSAgiUbi6PVQwFi0wqVBcQlVWlcsJERvHhRn/AUuGb1dpS1oVGkTUB6ypKAOnwZo9kHboFTUBKofvDaUIlCcueSWh3ksoqCVgiscnopmgXsLFZOvFt/5bHmAgORXuHIZ9jfJ1wNyJQEx2IxzXYMFWrCFKvaKS8YlAOBhxsW2TO719aT67h2tzSDAYv8SAjGYP4FS70+iBsQz7EoJDqvgO5i1ZfB1W8mjO46EmZbFbjkeqILmlb0qzTvQWMQnPiy767qGvV7whhfj6E1AqeFlQF65A4K124erVFjGzy2etSGZIDufvU/9/7w9fFzennb7/fnud/2/v+zZq/NFke//Ag==);lineShape=1;strokeColor=#99FFFF;" vertex="1" parent="1">
          <mxGeometry x="1108.7981262268631" y="299.972200975432" width="11.836124337006217" height="52.39486271475405" as="geometry" />
        </mxCell>
        <mxCell id="lsgI77zBe2tgthgqGCkg-165" value="" style="shape=stencil(7VjLbttADPwaXwkuuc9zmv5HgDiN0TQOnKSPvy9VYxUtJU+QS0+52TLH4mNmltJOr57vb572O+Hnl9Px+/7X4fblfqdfdiKHx/v96fBin3Z6vdOru+Np/+10fH28PX9/upkip08/jj+nf/h9xrVKOU4o4T/nK5lC+Hfh6zn+4fC4iK+Vahnig9L09SIgUKgDQOwKABQhlgGggSJIKQvF8Q5RKOXLgBSojDWnSA2kFAPVMaWcexs2AaqU0wAomRpfBkgh1gFQEylISbj3pANaopAuA0KlMN6hFVJQQ7CMx7YaV6QCgGXcRkDrVW0DlGL2gNQAIJCs7oAG1zyVAjMxmEOmUvwNKighUl7FI64K1eR7WlBPKY4F2NAaoLaxIvl4BvnM3ViwqIF8mIKLN+WA/jAVl4++Fz+y2uwDkTT7+MJUI+SoKzgztC/RPv/ZK0IX0jYgeWEmazJIyaSfRxXERgLuoEzqAGbKgNQ6O/QCgFinRoLoUwpAmFp7xgtAQwZpssq+rQzsK7LvUhJokAZIbnBmyqit5j0jNexUqEBraoMbDTIlfCokklENKcODSsUbpAEq6JIZXhYPKIjesz0sAGjS5ngt+KIFAZRS8m0NSA9KvJo00rQB4ngqGJcSAsQul4VEFehBsrdto3cEg7M5RKeHCs9/m7QUDyigBuMSF58Scnpja1pJNGOJro0MAUxx6zlU0NZJ005Aim2meV8yLkVcwwYAKW61Gtp2WZGAot+HyztsZb8PV3yHYGuaO0O5+8jnpve56f3PTQ/w+qObXvH9tCfLiBgh/mgz3SCHnCp2yozdArcB1bM6GwCtScXP2E4qZEexdArMHsz9sNt+Us1duPPD8/y8vs3qeR2fdWCNBm21njheGE1BRjWSjEo2xwT/b4+xmV08qrgWfxByX8u24+fF9C0ebRfNjCW6eGQTxmJlHw/qbasdj6FNtJX3MpRNW5E0dF1sx5tLjfkLPAAnmx3zV7gaLWx25jQpKqCt9sHOqEsFf+gF1fvx9uHtbdjd4eHh/DJt+bt/e2aXzm/e9Pov);lineShape=1;strokeColor=#99FFFF;" vertex="1" parent="1">
          <mxGeometry x="1097.120531239753" y="293.1030102808269" width="16.270488806809453" height="35.37396920748857" as="geometry" />
        </mxCell>
        <mxCell id="lsgI77zBe2tgthgqGCkg-166" value="" style="shape=stencil(lVfLbttADPwaXYldcp/nNP2PAHFqoa4dOE4ff18Kih2TssbITdlwlhxySK4HeXjbPr1uBg5vp+Ph5+bP+HzaDvJtYB73281xPOnXII+DPLwcjpsfx8P7/nn++/Vpspy+fh1+Tzf8nXExkPQJxeHfxwm1+eD7bL8b99f2nVq09pE6rwMkUKkGwAIBSUiKAUijHNcBOVOxIeVIFXAolaoNqSSKIKSqAQQDqEIlrQNa8aRrp9rWAb1Ssx5aO5/cBnQKzQC6VhJwUEATC2CKIEsK6M5DIhYIyGwBhRhxaJSs9jQNSBp6X3eAjjnkcwBXACTvLsQLDx1UukdKxQMESUPvs2rVNMQMAM1LQ9OQQVoVwMkXLmMPnjTDjlNAz158BVU6nCle5K36BR40ra5F2x1paEOyBySk1kxZPAByqMS2HzQNCXFoVIMn/cFqrYGKK1ykDLQUQ6DgtCGw1OqiOheahwJJtEWPCuqg6vM6XYEL0dzY0CAR4LI/LivoMw+3EUwhexcFlU5nafMk7gH6VwC6D/qyI0DlavSsm25qII4SKdpC6BUor2kxjnOHY0B08VoPqUAAMyWrPmEq6LWhHGwd9HkSgYfF2NAbAti7gZq17zCngdgOe00ZGEqL7izUYDDB5Z8EcA2+0eTcSCupcUNeiwGCYRJ7eyQBs0vHji1UgGMl+UV+4X5by5SyNwf9rqsiOHNGjy+/LwN10CdffjLftdePz/f5y7jbzc/76//797wezb8F5PE/);lineShape=1;strokeColor=#99FFFF;" vertex="1" parent="1">
          <mxGeometry x="1111.1800866085464" y="305.0134391104866" width="24.43392145460545" height="22.927944587058562" as="geometry" />
        </mxCell>
        <mxCell id="lsgI77zBe2tgthgqGCkg-168" value="" style="shape=stencil(lVnLchtHDPwaXlGDec/Zcf7DVZYjVhTJJSuJ/ffpCT1LArtslW8UNb07eDUa4Cl9+Pb46evDKYZvb68vfz78e/789nhKv51iPD8/Prye3/DplD6e0ocvL68Pf7y+/P38+fL310/z5Pz018s/8wnfL7jSJepExfDj8k3M0ur/3/x+ATydn28BSdqwgCi13AfkLsUBVFQJQGU0CwiS031AKtKjf8PPRxwDgoxqAVUKuVJsEroB4BE/3XAMSFLtG3DJkgkgSLCAzN+gVUaygCKtE0CRGAygBEmBAJKoDVyBDcStCq/bOFQEjl1Jpdnkq1k6M1q90W0L5T0bijW6VVF2peqN7ogMD1yygeuwgQHqqq8N0KSSKyFz1Lq1DynE6BxlWBsGLkkKCImg1QMyI4EiNfkrDWJDTavkN0BfCX8M6DJs4HpZoTwEtCzFXUklEl5qQ6KlGaRGIoAeRYsFbN8cA4rn1goeYYAm2RpdUSEM0EWt0aWJkuQDIFoiK7rI8x4g2eQDzQxClTOZHSBIJ6wBLzULQMIPQgKIg6MZkHEh6Y0KdiQQy3rEcWpUydkCAjW6qc9WRRxItta6euYGSJQqkQjB5hK4MJEroURdxSlIgMQhj92VgkTipdykWS+Nxc7H5+si0ut5Zc+HEHFkv7x8fD7JsM9HPZM8wvlmCSAvg+7dJ7q8W9V3fL4s/tkcugy65x/XGALtC1NYdXee5RxYvkR3nnW2Epf7rueZSIIydLpN32sirq9F6ez+xauFLIn4ZzYpex8kIOuCRYK9T1vK9Z69TnZ2Kl7gTyctBlV4V3l2W5CsALqXIgAElkF16bnrjTKrgB2ndNoxUTHqK5Lx7qxIawBKiFVwlmA9lPgoAmVmKxIhYZRYfcUH2pnAiKO485H5c6zOeFORLMC/eL4Mz3BhfXHcZIpkNwzS50N8uwpLVI2jr3bP6CxefSOELaEjdegUH67p4ZWEs4b6mpyjIzFhJK9WYqVdb1SvS1OktDWG13Rp8DktBF8GU6OxO21i/UYFMvk+hh/6S6dKdux6Eya7RowYZTfZ6VLPx4AoxanxRpMVSnY48kIykVD3vBvUKp2woTOdbMQYFQmglSXhNkCi6VqHLzikVyaMirnLMdLgc1epniIRezb0o0t5YRreYbHoWRWvYBMzCqbvAIGva/LwVrOxSLtvbMhHNlJAfKsLhNKCqCvVbsdZEofoJ0GMqywzwq4aMh0PdpSB1GJ5ETwpoZ7ZPiv4BQEIo5KkiH4Yh1qqbMexG0sbn59858lKxazuanluGUmANfmdIqZSFjHkXLRXgtphag3NNTh9zZcuU7/aN8ztFnFq2k1Q6LeVCZjg1wnXld49BVl3HZ3t49CYXCnPQZlNIbuFhfJ1Qo2eU7XTzgNO9W7tdGWOUnGbVwQuMx2W/fZ4CklmA4StjcPcsbNyyL4ephRmC4vdeg0AtmOfnccpq8S9lPy4jCKnvQ06KnsAWxBUXVvQm4pT5tbgWXsOJKx7Dh/pWOiO49d/fnkfgA/XX3u+nJ+eLj8W3f7f/zqEry6/LKWP/wE=);lineShape=1;strokeColor=#FF0000;" vertex="1" parent="1">
          <mxGeometry x="599.5761664925064" y="283.34950121789404" width="41.51129064066557" height="48.79669577588705" as="geometry" />
        </mxCell>
        <mxCell id="lsgI77zBe2tgthgqGCkg-169" value="" style="shape=stencil(lVnLchw3DPyavaJI8H12nP9wleVIFUVyyUpi/33AbHGy6JnpjW/ymj1DEo1GA3NJH749fvr6cNHw7f3t9feHv58+vz9e0i8X1aeXx4e3p3f765I+XtKHL69vD7+9vf758vn676+f5sr51x+vf80nfL/itEgZE6Xhx/WXIKP9+8Ov1/XPTy+365tUv14lh/P1SSUktz5LKWR9lVrc+ipZz9fnKDW69V1yJeuLhO7WxyA1EUCTBgBdV3AIKFG631HM9A3FQgCAuh5xDOhSmwd0CeRSq0rxQYhDUieAKs1HwWjRyBtalOjPYLxQcoaWZAAg8TdUUR8Ho24kke4W1+ABTQqhajdmqgd0GSRw3XIhO0AKksgZRlhc3gBGFsLukSTAG5IkQr5RJPv0TIVvqUn3kU5tXfQxoEv3cUjbL8eAIerZmgOlhgEyAOIShTMARDonSg0DdH9LOcsggBiCBHhFlZTpNSXP79zXI44BVSK8wXKUASyDPDdKkEIC0Yc0/4Zi2k0C0evSrQ2QJZHi0C2FqwfYI9iWoqhPCNO2znI04Blq4FsygA91jdJYUgfcUjUykTe0LuoPXTONgylZ9/yuZYnhGaDBltra5OkbfI7WQclnAOBSs2slCdGaRP+GxnPUAMnfklWAyg7d8Fqb6T2RPgMEr2TzVLyigHVodkss0lWC35Lxl5kN2zGU0Zkh7NAF2doLtUsGGD4OvVErMMuoT6BuSsW5BN7BdGSwOFT0PyNKYbdU0QoMXRlyGml/hpGp3k+Av6VZJzkAZMbk+Y5qgBWwAsDYagBI0bG5uuMtWRn11LAqFkkFmmxVBBQGiOhOZp0kgClbDQGMGqbVmncAIpVWb3rabYmw1UoglN15aAIwex/L7lpJiloDUfeBI7eUd6oxqUFS1IwC3tJGx+ND6y4fTG1Zx7EJ4w0gsH5AVwbf5AMLXD06Q2DkS8uK3ACUFxTQJQMUnnEY6b560zNzEiICCvNLYZdxnUtlQ2s8vS8T47QK1A2AdU1mFPo+43irGD3gxvuekQm5sdnrswYZM2jwFrzjDGH2FLzJR2HitvLnAbos3m1CkENbCwOm704JMgDmKC9yeTdpuVNGDRABwAu1AaBA3LECBmieTHfMhgEgDnfszGz0wGFxwzQB4LC4JbMtQa94x/QZIIGX5rZyUsO/4Y5xne0wALg1NgCw9Y753k/VmtJ+YLJ110AMVhUVJxvWojD/k3fCZDWGdeAzRf0ZauVWwEoQvCHTyYapBtDbWsXCZ4kFhptxtXZnAKBG3QzOmVRCA2ENNduSGaaxa9kzuVYzGwjI1DuUspzzBohUl8pYE+WbwQYzTFazBoxzOp1hWVwR0GiNM6db/aGnDSRxmNYYxt6JznSNmwG2ZGpLAmcAhQGThZKdoa6R7za4G1TuJ8CLcep0IjWv1W9pTvMJvaethGll5oAgGc6gVGaM/TBLTJFe62Q/bClQ9Tb2wyRELQcZIOA0RysFGJkhDvOjDVONgl2T5lXqT5UPRuVKOz8jAs7WIx0lpoRCpptZPgTowEPHTqlhd5K9tkY+JLMdw+gkFipk8yMLWGOlddqe132kI0/RmLBr6nQwOLDfqFxY0frkNfs/3g1KmC4RPFy+m5BHUcK53fJAJ/ABJ2mBujbFKVdYOnCcADhrDLx+YFwDTa+BBTDQvtNYBQM03oAZzQYelj5/a23+3/YtkAnvnt2O7lr5TbWP12f8BHUntj/7yfruevvjv+/jX56en6+f12//H7+n20/Xb/Hp4z8=);lineShape=1;strokeColor=#FF0000;" vertex="1" parent="1">
          <mxGeometry x="624.8394408096178" y="304.6596367162533" width="14.281997682777122" height="167.45687549657126" as="geometry" />
        </mxCell>
        <mxCell id="lsgI77zBe2tgthgqGCkg-170" value="" style="shape=stencil(lVbLbhsxDPyavRKUqAd1TtP/CBCnNurageO+/r7cLuSYineM3NZrzoocDoea5OFt+/S6mSK/nU/H75vfu+fzdpIvU4y7w3Zz2p3taZLHSR5ejqfNt9Px5+F5+f36NEfOTz+Ov+Yv/FlwmSTPoMh/lxeFKbb/b74u8fvd4So+FGrBAVKjmtcBEqkmB7A3SdYBqZB4QFBKaR2QGzVfg1LT9fjK1KIvgRKvx6tS9gkxCYhvYawYU9oSVXXxkRTU2yqJuPhKBX2/URgITZ3i2z1mJmafUSQGlNoR6lMSpoA4Uiq+Z1IpVwAolD1JSaiiE2RMKVXSAgBM9YOyM+BVLeNBR9o7fxuQqAwn2PiBojVS9EVLgzUoj1Kaxw8DYvGdTp231ROqF5M5Apoeq8EDrAQUnzrp79MZUQWVko9nUiRVpqJDPN/RkW+ajXfEQvWMZlLgj/MkeJ2GQA1NgvHnZRcaNNRb42ykoZzMMYbpzBQRSXVcIyngqlMXwQVQMK1h1J1N5z0X/hSgNoreJrOZHuC1aBf+FSCiRaWd9QugdN5ur8LcpXzZzrl7zu1lG7qJXlZDg9Njvp6H3VmpAYCJkz1LJmDYaQqDWhkPXB23lakRZWTKlDEh5MIy+oVNLFr/JgJfgDkC2oU8XpAUX0fMgf33FW/nD8NsLU4Bft93uKbOwFr+XkLFDAf4UeyL/kqjijQ6+nuJ3TFX+vu5G+r9eHt4vw6/7Pb75TZ9/f94fbZXy9VbHv8B);lineShape=1;strokeColor=#FF0000;" vertex="1" parent="1">
          <mxGeometry x="347.49485981467296" y="308.05088346795037" width="22.431180407153118" height="8.94259059156686" as="geometry" />
        </mxCell>
        <mxCell id="lsgI77zBe2tgthgqGCkg-171" value="" style="shape=stencil(rVfLbtswEPwaXQckl89zmv5HgDi1UNcOHKdt/j6rClJNEpraQG+yPMt9cGZ3NcjD2/7pdTc483Y5n77vfo3Pl/0gXwbnxuN+dx4v+jTI4yAPL6fz7tv59H58nn+/Pk3I6enH6ed0wu/ZLsClyciZj/mFwJo/L77O8MN4vILbDJMrfEQkeFfgQ4VP8H4bLwXFNnibt/HBIHb4so2PBik18SfZxicDUyp8QCTxpAxbx+Nh3Da+eEhdH3VI6lkibKzwDpGdn9p8rYFjDgqM1A4sCrkxNcimZpBSgpTUmjXFtaYOyVIXzSXHjMAMMmJdpewgiZapkUFxyCzrgFB7UJ+ZZF0EydcGhSetZW9CChBCvWLgm6QjhFx1Li33ksCTkHJGqj2EtR3caOA1q7tCUn0GdnFd0lYQSQPoy+q5gLp7U/2w88MS7xoQ7F3MS4vCb6S2TYhcn414xCKwFt/r0ycI12fTAqJAWJG6JqN90/AqNW1MmZJZSNonayLpETSkrhFf1eE/WfTDQdlS2DTpps/klLC1H2/KX0cK28/PqfGRwvYDejIgIfUbgBoEwvB+xdAcPClrt8Lo5bMm41t6T5olCnItu7WHBDbgkOqEc6A7lVmiXcUQqaLNIsZVbXzg9uNWd5hwB94r6e6JR4QO2y5f3TmFEaKtp/XIRMrdfWV4Ek5HB7+MlNvYxhfmf8L14e9u/jIeDvNqf/1/u8vrq/k7QB4/AQ==);lineShape=1;strokeColor=#FF0000;" vertex="1" parent="1">
          <mxGeometry x="379.7166423771512" y="310.7637262230942" width="30.679555091463538" height="3.472567898863872" as="geometry" />
        </mxCell>
        <mxCell id="lsgI77zBe2tgthgqGCkg-172" value="" style="shape=stencil(lVfLctswDPwaXTEkQYLkOU3/IzNxak9dO+O4bfL3haqhYlDWOr7pgSXxWCzBgR/etk+vmyG4t/Pp+HPzd/d83g78bQhhd9huTruzPg38OPDDy/G0+XE6/j48T++vT6Pl+PTr+Gdc4X3CReIygoL7mD6EStn///J9st/vDhf23lPpAIVqAIBCSSwgU0nrgJDIJwsQqsAlDpR8D0i8DoieQu5dCsCl5Ei4D5plHSCOQhd0ogyyJLX9ngGOclwH5EzVxuC5VeYqoMS+cEIOJKlqGWzMjpwD9kISrUMUQU5ract9+pPQ+pVctetHEkALBeSOqZEqSKl3rneJheKNLWyOonIbBaG9YoNIGfpUdT1bZlEiAeZpGaKNOjuKaAdNiqVq1sJVAOB+Byk46EDeBi2BBFFD+9OmNTEJcsm133MdAhWUpUVDs+4Jukddcp1kOPIZAmrXDtrQKEvc1ptdgjKpdROrGI4Y2Qv52NknlKJMyfoTb/Vz7gTJNw/Xmkdst6liMAZUS7xR+RG1a988MTYRWQMEu0OKTUTWgu4Aot2BaCF9t6nyBwRIbb2L9oR1uxdQ9BywRMrKPHT0lNZbM2DWwesAVSBb6ZJaKdeOz2y5qhoiYIflAa2V8SDo5QhQcR2WQ8bFcfHFOWZk/F2TkgYhIE3LWUybVoBLi2FP6ViAR9z6cbZPkBmBuKtCaFPK9QCaosy8KM3Dq/ZKi84+QMVwbaqbiZogKxbnv2RicP4v7JOS6B5/kodj5CJe1a8A6rvIJ5cm+l+rFzMloPELPrCDBL33cnHbXh8+bzIvu/1+ughd/u9vPvppujXx4z8=);lineShape=1;strokeColor=#FF0000;" vertex="1" parent="1">
          <mxGeometry x="417.10285076034916" y="309.53014758124675" width="35.73760897978578" height="4.69449753720293" as="geometry" />
        </mxCell>
        <mxCell id="lsgI77zBe2tgthgqGCkg-173" value="" style="shape=stencil(lVbZctswDPwavWIIghee0/Q/MhOn9tS1M457/X2haqSakLVN3nQsSCywXHCQh7f90+tuiOHtejl/3f08PF/3g3waYjyc9rvL4WpPgzwO8vByvuy+XM7fT8/T++vTiByfvp1/jCv8muIa1ToGxfB7+lCp5r8fPk/w4+F0A4+FYo9vFMo2PgnF7PGyjc9KSV0+JW7ja6Lc55OI6zZeA+XU4QOFAPBCqcczVcBXCwV1fCPKx36Hfv1GLYEApdwXVCIJ2IHDwnApUZ1JbW7BXUCJlBokwbFvWiZlEGC/W1+lQgLabG2QfgeNVICOrM+p56BYGK36utoSFZBueRb+wiFSAxyaEPekKxODKtl6rqy5kAKxNvZlTUwFqNV2qL1a7XyrgoC0Og72BZEufodMEVXVtNdXNcxivN/n6P0iYF1k70eZClq/en8xwoo2UGJXUuxgFqB9RskONLBgC3CWnS1JfDyL83gzMUS6zB63SFuwiyWKvSyUKSCLYZJeqeMSyIctQD8SYA7kTpu1UkEf1pPnxjnfOdusNQUErIenLnK/fxp8pw3fQB8KFZdQowzEmmZ3uCkqJDC7+qILG1/ALphyP3mqzg51Fx/84KmBGMhoNdmsiQLquZ6Elj/Eu3zEJieatZ7vePZB/qt6suX/kX6xUACaXuthvp28T274LvhfuD38u3a+HI7H6dZ6+99fU+3TdMWVxz8=);lineShape=1;strokeColor=#FF0000;" vertex="1" parent="1">
          <mxGeometry x="460.4161414544301" y="309.3028004579745" width="18.06880336362004" height="3.463741115223229" as="geometry" />
        </mxCell>
        <mxCell id="lsgI77zBe2tgthgqGCkg-174" value="" style="shape=stencil(rVbZbtswEPwavQ5ILs/nNP2PAHFqoa4dOO71911VoGuK0iQG+qZjhtxjdshBHt72T6+7wZm3y/n0dfdzfL7sB/k0ODce97vzeNGnQR4HeXg5nXdfzqfvx+f5/fVpQk5P304/phV+zTxrIGliOfN7/pLhw98Pn2f8YTze4J2DmAafkPw2XiJsiw8IBB9c3b7iHTLBxwDT4i1EtvE5Ldc3MGYbXyx8WsQTHcFrPLGNx8CxDRLyImGLQjIuBaHdQWscScrWXFO89sAhWbqFlYYQMwIjJJiWkF3V1TpBUFpC4X0uBrYtU8nIrNGd8DQrlrRGbHNLCJC8TUgagG2TjnU41gn6u80hCTwJKXViChmGhdQRvIrpnZBagosIpHFT0q7VtyCWe8rq6QD1fdP5IetPwlgMHOxdykt1gQ9K2yZEPp+L4RGLQHqwMp8+Qfh8LiwgCoQVqTMZ7aNhVeqElEtV+6ZPtgTdk4XUG/FNHf4Toz8c1DQiSbs/fQpXR3+8FV8L8cHzU43PEUJ/QGupAzmhtdULvKm2s55zdfYbF0ukcWpZvsXbWoP1BJDaeNT0IsGb+veqbY9EjL4/3LTrRKn9sHkUkm8XjwTesGW+6qhsELp6WrVYgu/6pQbMLhi9HhCJHO69EL6P14d/t8+X8XCYL6+3/5e3Vf0033Tl8Q8=);lineShape=1;strokeColor=#FF0000;" vertex="1" parent="1">
          <mxGeometry x="490.8351813956749" y="307.6134745948325" width="17.66920666931488" height="4.43971747700175" as="geometry" />
        </mxCell>
        <mxCell id="lsgI77zBe2tgthgqGCkg-175" value="" style="shape=stencil(rVbZTisxDP2aebWSOOszy38gUeiI3haVsv09HkYZmpie20q8TdPjxD4+Xga+elnfPa8GZ14O+93T6n28P6wHvh6cG7fr1X48yNfANwNfPez2q8f97nV7P/9+vpuQ09e/3dt0w8dsV8jxZOTM53wQqITvg9sZvhm3R3BnyZsOH/JpPDsqPd6A+70naxu8p2BP46Pc3+IdZYBPkaJv8IYyn8bnQj52eGNO44ur1/34Ex3AB8qhwVtDDj2Q69/LA5aKBwaFYusRx3ryq4E1S4hLzhwlQKo84VJjEDPMWkkU2heyI07AwPcymohGUVtKbdRCHEx0JnatQYFBZxFy90IgBqUgIXaZy5EYpDobsq1WE5NH4i61tpbEZTLAJW3gbSX6TJdcpAASNwXd1qdliuUSWj0sIJ03qR9wvxaGJXuR8hLZiKXdBZxqyzmzeNjW6ji3Pn0ixvXZtYDIxIgk1WSSCAmxpNqYNE7Uh3WfFOKQS7oRH/HwRxZ6OAhzSBx6+kgUFkShx5sw54GBnp+TIC8a0GLg0QTqFwDBowmdyHQRyHAAHPmeIsmLAcpgMm3WpIUUcL+t+8ciVekgIF5Doc1xDLDB6GEYYLHp4vSw4Sl/2MMxouKdGAb8cC3co36E+FH5koWkAP+VHhK5S+SG983/wuXjZ7V9GDebeTM+/r9fheVoXqP55gs=);lineShape=1;strokeColor=#FF0000;" vertex="1" parent="1">
          <mxGeometry x="514.8492294391081" y="307.0887807746758" width="19.68930274117914" height="4.155792129033861" as="geometry" />
        </mxCell>
        <mxCell id="lsgI77zBe2tgthgqGCkg-176" value="" style="shape=stencil(lVbLctswDPwaXXdIgM9zmv5HZuLUmrp2xnH6+PtCVekapI06N4nCisRiF+DED2/bp9fNRO7tdDx83fyYn0/biT9NRPN+uznOJ3ma+HHih5fDcfPleHjfP6/vr09L5PL07fB9+cPPFecDHC8ocr/+rjiw+7PyeQXs5v0FgBkxKUBFDLfjk0PUGyQUfzu+UPvc4h2ccZ6SUYpOAI5ux1dCzN15qhWfEJz+f4YrBqCg6g3YIRgMeXfOsCFCRDJyrhVcdQ6ubXodkEGa1BxQowFgJJ1ESXDJKEOF72TBbeU6IMAHDYgIBq+5DgCRisGSpJi0MkoEWzt4EPcsOUOraUg6VpRqAEpPawgIRuFkh0IKQOfaX8+BELQ0fAIZ+s5p0BLYUGvx8Jokh2yQKrqh3s/e8ptv7jpTZLpHVENRJ8wg25+ka0AR2TqR1EALL4ihLfPUxshZFhHVyqHA6waQpWtaO4h7O2kTsuG2KkXqzOPNNi9WKbrMC9GWn2PP0n8A42C4aIT3jp7canm9sw7DTbp5NEotsy/FjySREVJPazTEJy1JxwttyciA+uGTM6pBkevbxdJxjHYxTJ5YzMkzTqrS7H3febiY7h/yJZmmxv8HPmX6e8NpQ718bD3/TkF4bzrzw/epOwDy8O/69jLvduvt7/J7f92TpfWqyI+/AQ==);lineShape=1;strokeColor=#FF0000;" vertex="1" parent="1">
          <mxGeometry x="545.6114609783874" y="305.684583976854" width="12.27092294713619" height="4.02339922932498" as="geometry" />
        </mxCell>
        <mxCell id="lsgI77zBe2tgthgqGCkg-177" value="" style="shape=stencil(rVfLbhsxDPyavRKSqOc5Tf8jQJzaqGsHjtsmf19uF3JM0TtpgN7W6+GKj+GQmvjuZfvwvJmCezmfjt83v3eP5+3EX6YQdoft5rQ7y9PE9xPfPR1Pm2+n48/D4/L7+WFGzk8/jr/mL7wudokyz0bBvS0vvCcX/775uuD3u8MVXv4Og4Ej74BBo+CUQSVX1vEhjwdkYl7Hc6QYFT6Sr+v4GIm9wgdKwP/ElNOAR/5nplR0gqjmdXzhnu93fErr+Op6OjreUWnr+BaojHgH4m2JXB7izQHgC/nBf9crftugUhkO8NQA5VqjoivAubP2NuXcJcRukSQLHh4RmyZdpYQMKoWqWR2IAS1apqgNpDAVRS081THImRVE3S5ZvBg0GHRtlDVTpfYMWqcWKkEHnbuTtw3yGIOwPSKXUuf+pXCiFsglYxAlDZ9ySfQlgcLNQQ+CJ4oAGm5Oq650xA0kDusQpH9QQxtiePIfME9zWzoWCJKlti+UcX8OB7CHknqjP2PpqrwqAZrbIrOMkmREpuCxM8uYLrPUsSKXRCd12eQT0CUjxFd5+E8WdjhI5gKIwk4fyVwE48eONzHwgB12fkqeGtAxO6DFANHJbgBSmwo6zq4YjbsU/uMOMzctmkBmSxI2IVkya1it1ECTRgq6CiJTaDgEarpFa8QtSlV/vzQoGq57e8GH3k8r+IGnwivUbXagRyjCVmASnFTGH1kx0BZp4hVRRVueyad8AdWLR/99gvUyfPABDoXPrv0f4+Xh/Y7xtNvvlyvK9f/jnUReLfcZvv8D);lineShape=1;strokeColor=#FF0000;" vertex="1" parent="1">
          <mxGeometry x="566.1686120639426" y="304.1325461619708" width="32.52282265841643" height="4.734907676058432" as="geometry" />
        </mxCell>
        <mxCell id="lsgI77zBe2tgthgqGCkg-178" value="" style="shape=stencil(lVbLkhoxDPyauXbZkm3Z583mP7Zq2TAVAlssef19NJkagsYgyM0Maltqtdoe+Olj+/K+GSh8nI6Hr5uf4+tpO/CngWjcbzfH8aSrgZ8Hfno7HDdfjofv+9f59/vLFDmtvh1+TDv8mnGckGlCUfg9fyFQ/vvh8xy/G/cX8YVRkokPCOF2vGSQrPYvdDu+ZpRq4mMAOQc0hlgARbTkACqEDYALCt8GxHAucUFkgkTnCEGyRZeK7AEiuBlAJbA4NBFSNIBGqE7VEtcpKQ/VqTo3iC26NbfoVMHZAjK43gZwRbEn1AJ2Ws1dDcILDVcBJEvG58ZVBCelHpBUTHdSWqmvIDuNm4q2J0SdqObTWmxK7gDlti5B58fZX7oKIuId5VnDEMTiSjvZLkdZLOTB4VGSs9ODK/OZBOyNm1qArUFtjR2SJpNZKU+F5LGkNmYBtaE6KU0+adusPHgpTUZsbeyChwet+x6ivxw0KXFuBxU/rUyjLPK93rtO3epj5ExoVDlZgFItjpzyMr/nzqlenfkhBDs+paA5PtnfDdmlqNdqAjn5d/kwIziMdvXqDtVRak9oTIsUH2yZLNP0oCbYnf//fZHcj9fFv+fP27jbza+ny//XzyX9ND+1+PkP);lineShape=1;strokeColor=#FF0000;" vertex="1" parent="1">
          <mxGeometry x="602.4097131624574" y="304.8225603087293" width="4.606970077000294" height="3.3548793825413745" as="geometry" />
        </mxCell>
        <mxCell id="lsgI77zBe2tgthgqGCkg-179" value="" style="shape=stencil(rVZdcxshDPw196oBBAKe0+R/ZCZ2fFPXzjjO17+P6PUc63C3zkzfMF4d2tVKMPDN8+b+aTUE93w87H+u3saH42bgH0MI426zOoxHXQ18O/DNen9YPR72L7uH6ffTfUO21a/9a/vC+xTnC3nfooL7mHaYfPy9cTfht+PuDM+VhA3ezxsX8cVREoN35BzAC+Vi8IEk/B1fA3G0+TgK4IAqJNke4KkCxrUSB6uQQMrenSjOESlQ9uCIQpJMgBRKKCBRtCcU1SGDAEdiA1S4AliXSNnqqkkWwDoXipaDCodIZ83YVlpZ/dm5GCCZvK2cmoVBqYWJrfcyUwQpiSe2HFIhh1LqAqKa6VspBaEECtdIW5U8k1Qsa7UpwQZqdVs2aADfb8awlP1cliudp4zkO9b2mQT1Z9c87CmBGlzoz5iJUbt1I6DVEYjUDxmV2SGVujFWKhWQUpuT9oSaYUr9ID7T4T9F9JeDFgeNpf72UeUKcIeaf+E+9Qsqdp8RNoeQswmVBCeA3pYLdwtsN09uMekxvr9K0mz36/AxziPqunyY4RDu+AaMVz1t5/hIFd3nc6+f9Me93PkhYrwabnGZw+fOv59Huvh6W63H7XZ6mp3/v3yL6db0juPbTw==);lineShape=1;strokeColor=#FF0000;" vertex="1" parent="1">
          <mxGeometry x="610.306023833152" y="304.6794290549906" width="9.351886373383422" height="3.6411418900189574" as="geometry" />
        </mxCell>
        <mxCell id="lsgI77zBe2tgthgqGCkg-180" value="" style="shape=stencil(lVjZUhtBDPwav6pmpDmfSfIfVAHBFQIUkOvv045rzI523Q5v9nrbo6PVkmZnV6/318+3Ow2vby9P325/7W/e7nf2aae6f7y/fdm/4dPOPu/s6u7p5fbry9OPx5vj9+frw5uHT9+ffh7+4fcRl7MkPaA0/Dk+sSzd/j35cgQ87B8XgNQl1AmQ8BeBANL4eQBylRgJwKT0CVCalHQekE2aTYDaJJTzgJLFZkCLEhmgex9qlE5MAqDMYc19nLkJqEnKfAICnZWcECSXGZBEG4lSkdZ8pjMLa5A2n6A8rClIyDNAqUlaPZc0SqkE0CTOAIsSCJe0S3dsVenEB8TEnZCjKGdrjZ7eKZOwNtG8AjAumc8DqFFIWEvy5LMmnXAJBmT1JzCTAAjO6S5K6I0KduQrKpX4UFXibBK8CryA0hzWAmoQp2uV7vLQpBJA043EGWFrK9JX1IjEhx69GMOkQLS1r4QMeegM0AaZF3lg2tr7SNMJkCmXAHBsfRfPcya5xCH3LA9w2vWHCiHjYW1zTSP3DNDqSu4bFWNQoyYPsE7Ih5+bN4l1INC7Oh/S4O+5ArLgw8q4hI6mruLQdonyAVBmp0GNSLhUbUR9UaJMjGsZOrfsoiSsLUidyYeKq8TphgJa1XQgutT6sHgByMSknryQwYdIVKPX4eIiSoVkGhXnVANSWYlJMYTBhEWqlatAcHS9aNPHACCnU+OWxAg3EMUyK1lDJyYnYDqpq6Ku5ATMDs3xuw4hOTeduJEsZzr04QQ/w0HJiA9mXjYOT9jwDXWfSw4TFuu74Jo7IaZLwhRnusY8nmxXkPmwauBNDn3XDX064rYNgM7M1EhxjIHnTvArCsJApK+10WVP1Ai0jaJBZNdG+/BqOw/Vz3AQQ6b3Wce0s2xB5AQ79fHFCY3N0us2ipIi9I5xTP+LKLGtSb22pkKjGvzobShQ0qZXsoeKNfK+jTnkRG0dY+y2wwjgfAB4R963MFR3vM8rAdWcinuf2YOVz28/VFPRBfqsFvEkB+fGmLyq5cQmq+QtQi3Tjp79CIA1lxU/RoD1lM6SgAHY+YCFi+3Fqfpd5vK2ZM5pviJiFnTjpBUuYFGyS3ThU0nxEol+ykwCwMk8BMzYyJCGgp76c6BRwrbkRjF4xXYZGBDnalgMNtuJiL5+sHwwyUureRK9hUmerWbiVuiuftA8d3eVR3/cBpwkdEFXFiaomBMltAq2wVlYXRS10Yy2AdVvDhhs2CKA/3PdUCtdNZAHN5Vooc0NSulWDc2SSEFAVVxHB4BdH0AFHF0hrkxnIBKuqHECE9ccfabhtDJ6rzKtlYorxlN1UWqXGkqcnQZZMskDAGmWjQt6D4BriZbo/duHL7D/A4AP7/fld/uHh+N1+/J3f7+OR8e7efv8Fw==);lineShape=1;strokeColor=#FF0000;" vertex="1" parent="1">
          <mxGeometry x="610.9385264323341" y="298.6023299726322" width="18.12271988738966" height="24.27387009380311" as="geometry" />
        </mxCell>
        <mxCell id="lsgI77zBe2tgthgqGCkg-181" value="" style="shape=stencil(rVjLbhsxDPwaXwmJ1IM6p+l/BIjTGE3jwEn6+PvSNbQ1ufa0BXpb73pWGnI4pHYjN6+Pdy/bDafXt8P+8/bb7v7tcSMfNsy758ftYfdmVxu53cjNw/6w/XTYvz/fn36/3B3/ebz6sv96fMP3E64pjXJEcfpxulMz1fHrzscT4Gn3fAaoSq07QBEq6TrAHvfsAFIpA4Bk6sMDmLJcB3Cl4lcojaQDQKGhnrQSK9iS7ZgdoKcZhsukO9UAqNT4OqAlyp5Db3PNi4CeiZsDWCoFJK7LDOJCulACHDpTTz4PSrUCDvbYS4Mb3FLtJNWvkKk0GNbkV6iJUgaJM7V6DsYKcZBG3UvDEtcBBxEaIXE6WV0GpCm1BTBoAIAFMQA0UUH1wCQ5rtABICtpiFKngQBtpdZKDPKQC1UvPtOvAvEZgH0Bmbq4AMCygQVQqIMCyj26RsuwpjlFedcxX3HNZiQAlDJaQeOWDJCQ+Jh4tSW0ghlZLZG0IDPupBrDyqBEZVDyNd06dZA4K9GxkgZyb1l7q2UaAczufZRM3g13oOo5WAFVwIHtfZ7DsUTBCizRlwyAMp0HqW+KZjMN1UOjEWrafARsySpuhLAKJWQChXKQxoDubYAexFdJ/yfASjT7KB2nGZS4MstlGR0y9tZBza9gdxKqh8W2JuDoVMCXiplAcD7Y4trK7U1JIM+mffbCyNDrh8SYmnM2sKFhFuQZW1OF2k7Ljpe0Vejdo1MOBdqogDxrjUOo0VI0y5jJ+PHqbJeXh5kUG9CfEObegfZoMLIWeA42o7Dt2mC8Mj5U0qs8NIHDT1qNYxm+n6n5oJo1F9SjeQ4JZ9oT1HJXx5lsTR1M9qWuyrNAx7CIhKZurBTN3RybiTlGAdJTm7vDVNxhNWiZvWYBDNh9rBrClsz10KCuLZ4d7FRXQVi1xQOTBVoRB9tSOMMpLB4jLT5xZcxT3bWwtpVYG8pDmsW4AHjO+pczratpTOYR6jKgxpOuAQZoJtaRhSMAyduOqWNEDmju/ufvAX8BsIvfnx8edk9Pp68X58/j5wq7dfrUIbc/AQ==);lineShape=1;strokeColor=#FF0000;" vertex="1" parent="1">
          <mxGeometry x="610.5071355491414" y="295.6615268048962" width="17.790069019033393" height="19.794034736090207" as="geometry" />
        </mxCell>
        <mxCell id="lsgI77zBe2tgthgqGCkg-182" value="" style="shape=stencil(7Vrbjls3DPwavxKSSN2e0/Q/AmTTNbrdDTabXv6+FAzZ1siedB8L5G0Tc86RKHI4pM5BP3x7/PT14ZDCt7fXl98f/jp+fns86C+HlI7Pjw+vxzf/66AfD/rhy8vrw2+vL9+fP5/+/fXTsBx//fHy53jC3yecVultoFL45/Q/vc//+fUEeDo+XwOy9ICAkghApdQV0KSyN0RJZQVUUb0PSE1KXgFZ1AggS+srIEmPBOA/AyBIJG+I7sR1061KJG+IReq66eZ+KwTgP8cVECRUAgiSbQHUIokAqhRd7RP1ap6vn/aliZEdqIR1PcWkMJ9KXjdcooRw3973u55ZPu/ojn1c95tNjMRpmG8/2/sKSSIE0TVK7Ry3d/ab1vVYltpJkM40PNsnmsm+u9WfFuYbb9oXyStTOHcYiZ8ucY0HNankvGJCBzkTNOJQzxlbI2gwAYk4dykQhQetkiX58yCm/RGUu7KUNShiEyV5byZxXVL0PCJRkVUivCFJIGHhWVKBsGdi3LZ3Ol/zps493aYJjwvIe0lkxy1JWk8tUw85ccIZeBixsAvSIW8oDXWdQXaxT+QAvLZ0A/tIotSrnQawD6wShI1YTDLJS6+/ER2aSYz2Ii2DPTvgbngAWRKz34jaZkTdPuCOEc0d2sqkwTNP0PU3Q2LUyfT3AhR4KImx9QdcT5qV7XbCdCz1kdYBt7cG9pkEkNsnfD6TT24fE9gz/7g9xEOg4mk8P4I9qwNj/Qr2zP/DPwb2jFCG/3E9kRDE0FX4/MDtLaA9i88wS8p/tI+Y74FWDLc3fH5k9orx47qA8MnIry0eCEG3jEIi0vhxe+Ar5fl4Fv9X/Mn4xDahyO111odLwStsv57e637rJIB78QD50qh9bSghujResME/MVBhWd1BQCiRlmBvFNqmUegW4qaCvCqTmHCRgjFk0gjpei+SYEmZKrlSkIVipWWvuC4oCGC864BiCDC2aa+7fQOQSPWGqudtSeTgRge2ARI5OAfYtgeqRm365Awoc6BwF5AQwMrHWNL2hswBeA6FNrrDrdsbaOeUZ6N9BYjsHDJKlgFg0Zq3ky5UxY7w3t6gPB+gqg23stAom2wplATK1s6N0OAAUNYefKyyOSBsKZpYtDpH7AnEAeilOsPxHmBfEn2Ddz9bxrEe1gH5fV4y1L/jHDhraEQAqw8DsIVG5gCsQOVHXnonoGzMl6kK84KCB2d0/jb6amANlUDY24siMl+kVFn9efCGII3kdN1iqU+pdU85GEw1udJoqFQr1w0dQ7VQYTKUM3ayVFltSsxFA+8EYWSqNIhG5wjjIlrQfT1IwnNDPzvHw8/O8X/XOab9vNjozTupip1m551dxXhjk65WsXNMEthkLODIOtH86p7e2JnS0aFNOr7YM/7sdYbX1WiSxGdv8+cLH9LR5KaHMp1cjUlgQHvmz4j8kKnc8vPSbZLJ+RZkcqGXbLViPlaaLzUgHzbePqUbnTW9Mjt3uVeNMut7zXD4HDMtGVo29deoqHYJADHhScCKnv8MSTmuV9nNZcV5y7gq4ledIOY00ZtL9zrwuuY5Y7590HgfrJXePGXkLQt0ZLTljSlN5IRi1M6XDrc3jBNoa7NS3bEH/4yrS3Y1h1c82aiwSVPYnu0rfX6SDnkceBpgiz86CqbuN/vGCzd+FFETJQoX5m11UM1U2cRthODaohAq9awN65IarzXj+niNicbHlGnr4lrngIrVZtRDdsodhxReUJhe9zQH/eEVi13hq+HdpZdQdg66dTReQ9lHCNqQT3unGsoB0HP0TrnIAc02ADkHB8C3Jr3ToZ2eV3wFYHVtALY9MGGtm9AfHwmxTfd5J3oFqIRRx6a3c2CU7YC6bZp10+Ok9y+jmFsbTjUGgHmpzZneRS5wAf/+r7V+DPA/Lh+HfTk+PZ2+Lbv+HT8m8/86fYimH/8F);lineShape=1;strokeColor=#FF0000;" vertex="1" parent="1">
          <mxGeometry x="556.7582158610508" y="59.25495915595479" width="144.45872742614597" height="249.1280291243217" as="geometry" />
        </mxCell>
        <mxCell id="lsgI77zBe2tgthgqGCkg-183" value="" style="shape=stencil(rVfLbhsxDPyavRIUqec5Tf8jQJzGqGsHTtLH35euIcfi2rMO0Nt6V2OJnBmSmvTu9fnhZTUJv77td99Xv9aPb8+TfplE1tvn1X79Zk+T3k9697Tbr77td+/bx+Pvl4fDysPTj93Pwz/8PuKCkOQDSvjP8Y2S1n8vvh7Xb9bb8/WBahzWh0Q5QEAaAdJICgSoDIBoR8I7hDGEVJZ24PFIhYkVAJjauENl0oZjqCOgEuO0tjHopiQgaDHedARwZ/IiQIXSuEMtkOkYKbgYIjHYIWUS+UyWcqE6AkqmCo5knx0PJcK0WtZj8Uxrug6wJLoj5UYVaMlo0jkAaKklKsEfSRCgUEkj4KTfy4DWlXMCCAUUQ6PmdlBKDAG1eR4QcQbgUa1GZQDSsKCjYxp72tKqDmCOEwAQauoBCuRt0ojRAwRoycQX1MdQgKdr7iGeZakgeadZWhMlkCVzcJoZCJUZA3imBcrbYmD2ak0oBsvJzKIZic9q9Shvc1xD4hOKzQMKEl+kNu8PqGqUGdNMBXm6Up1lqSDxnU58ZlFUBALzjIhIERmiUXSA1Km5FgQ7MeVeSC4DzPOuMJ06wP8BVKXqGnWALchyUlzPUmrAENna8qiNhTaauPePU6MOsJJppTZSbXrMIAaZOcj0mBFxJGNjPxPLRYD1zDHmw3AC1Mq9Gdw6/fT57tbxyg8aS/MbhVHZCwMie/8vTKDsRbQw4nI34o0z9MzKeEZnP7hJr/rXTj/+e+jF6Uoy3Txv2QWWFMrjbMGwHaif8Gw4AodJXScfy5GQs/ciXl69LvFhWifxtlDDTDY4k4ebVJ4+QZR0092mg09fBRfX28PHvfNpvdkcr63n3/091V4d77h6/xc=);lineShape=1;strokeColor=#FF0000;" vertex="1" parent="1">
          <mxGeometry x="704.612920130189" y="40.456389565775" width="22.62392265765319" height="40.74893139231013" as="geometry" />
        </mxCell>
        <mxCell id="lsgI77zBe2tgthgqGCkg-184" value="" style="shape=stencil(lVbLctswDPwaXTEkwRfOafofmYlTe+raGcdtk78vVI1VAbK2kxstYwkssAA48MPb/ul1N6Twdr2cv+9+H56v+4G/DCkdTvvd5XDV08CPAz+8nC+7b5fzz9Pz9Pv1abQcTz/Ov8Yb3idcpCQjKIWP6UMPVPvfL18n++PhtLBvlLOxr5Vi27aPmQobQEnU4zZAI2rJAHKkzAAglKsBcKKUtgE5U7eco1CTbUDVlFgOUUMCgLYinamCiLpQiMY+UAD2ogSDs08F2BeK3RIgAfFL84QLhQrshdjGIxRByWJQfhYQGZZAPdRmAf2W4/uATmyFmlR3QKiiOrYySpUYJZVXHjpVoGwJvgqjdAGgNwq88gDq0DNF8Rwy4NBVBy4kvlXmPiDchLyoA5oXCkg2rVppyRAglrRQQg4SFetgFvtWjsTliALQhRZB7P0BxiORYvG9DDIqmZKVUcS9XP300nwi1XXq9n5tbtxp3c2KedpsAcT1ciVBndY9A6VckIf5vhlQiBHnTLxqnIAAc84XrQk9fBbQdL7ZkDjDLBW9b7UHG2icXH3zZx2RQKkagJtH6rOA8bJezU0XJ9BqLFQsQDJsTn0tJNf8FY551WZ1m2ce/Burx9dB9VvQbvacF8vr/mvh1l4LByhJmVrzDBoqGwWrPN3WERWBavE1EFBlnfB2Xuhrg0EJNBtWRR1vtdXq77pnAd9wu222Z3j/Z1+0/7fXw7/n88vheJxe38v//XNbP01PdX78Aw==);lineShape=1;strokeColor=#FF0000;" vertex="1" parent="1">
          <mxGeometry x="704.8407555840156" y="45.096499848384155" width="21.72479845575443" height="14.567881810047728" as="geometry" />
        </mxCell>
        <mxCell id="lsgI77zBe2tgthgqGCkg-185" value="" style="shape=stencil(rVbLbttADPwaXYkluQ/uOU3/I0Cc2mhqB47Tx9+XrrqqyUoMCvQmWxwtyRnOcuK71/3Dy26i9Ho5nz7vvh0eL/uJP0xEh+N+dz5c9Gni+4nvnk7n3afz6e34OP9+ebhGXp++nL5ev/B9xmUgvoIo/Zj/qAV6+vXPxzn++XC8iUd9XQ2gIFDZBlAfrweABahvAzJBsidQg5a3AYWBuwFgB+FtQO2AYgASliD6uWziE6SgR518jxK0FsQXELQtghJ0qAuk5vLH6PsdCtkGZUhBRzEtBS4cJCg1PCLblJS0FOXUoFsAE4iETaoO0IAjAPmu5gQY0KY0V/GAFhQtFarjrYfSFoZuhcQlVKogdMscv5OSvrY16IT/TnILUG1KqOqKAAjFFo0INUqJR08Wixmesx7/1zQQUKAkERCr1QREgS7Qk6DxkY4ydJ9PDoZHlZ2TqzdH31c3yr6hPQZ066hKGcfD2SxARdEDw1ODKW7WcJjyOqB6UXCNAexJ09HJEWsqbHtR5UXq/wfQsp/mXIaprd87As3WUEp4L2SlyV22GLqqNtEZd0PAwGCUV7GzJjSoXHd6HrMyAFf5BuOv2mRbtKorHDd/wM3lss4DIPkDWnBAAbS0qXo56JFuCy5epRroAkFcPjQMZDU+jWVloWAZ8I14V68shrMR765mtfAc1Jv8dtQqYOC/us7Z5aVReG3SkPAiaoEa8PWvG+f78frwZ719Ojw/z9vx7Xu/Dutf8yrN9z8B);lineShape=1;strokeColor=#FF0000;" vertex="1" parent="1">
          <mxGeometry x="706.2129977639245" y="31.208367939462732" width="20.478983464463454" height="9.746048710837652" as="geometry" />
        </mxCell>
        <mxCell id="lsgI77zBe2tgthgqGCkg-186" value="" style="shape=stencil(7ZxJkhzHEUVP09u0mIc1Rd2DZgSFNkEADQQl8fb0UCOqK79XvSJXIqXe9ZC/IsPDh+9D1FP+5qf33/347imFn758/vT3d/96/v7L+6f8l6eUnj++f/f5+Yv99JS/fcrf/PDp87u/ff7088fvX37/8bv15PrpH5/+uT7h3y+4GI+cFyqFX17+UvIR5n/+8tcXwIfnj1eAeeRyfr4cJd1/vh89nZ9vRx/3n29HHKfnazh6vv98dc/no8b7z5cjzfPz7WiVPv/rf68+v3V6/1H0/RPIsx8lnuVTj4nyrHJe6SgFnxf5hyOCPPvRwun5PI/U6Plx/vw8jgLyHEds5+c7nu9w79OPCPKfR5T3MX3D59vU5yvoZ7Tj7Ar4+or3AKIRBhiw42WSVbecQKQG6F0BA3QipiOKUAdvOqnVmFYU2nTSPZjaJV5hnPdQTI/AbmLeankxNDMcWiEf42xpLaOlxXLU88H1yFKqRzqLtY8thnuAed70yNtd3gY0tbYxjkCvZOZ83vSM20BuA6buYRZU7xS3uV8AFkAIcPn31R7IAy+XfT6HYcpCKxS16T4xppmTD2ex9nJ0MCADSBRsEw/OAPW86VbQLRlA4kKdjwBi07Vs7bonpeoiLam3Hdw4AyyUDzq4dFRxAvGYrEsiVnMzkQ7OlFlcpTky2nTc5nLtKh+sEBWQgF8YIMkrtS2GuwYkvrXywUV1ZAYgV2nnkBwg8sE1OQfTJQJkF1AMQFLK6lvtlQKvMJsCMkRRU+/sNt2ByCx7cEwg0x6Ker4VFNlrDOFuF7dwG2DU5SxWC4pEHRZ7E3Ybka0a/akuipI95LTZ2tUKmQBFCZntIYGUljI7KZETWIRQpGRWDps2QHN8iTjuoqjOHihkLaciypeRkZnbCg5Agd0AkrfZyRAjM4DuIW7KdRtgTCApgLTVAL0pgAzIKGEODgBR1ABiQOuVCBCdE4jolwzQoxMrSMmyL6EOdnDkWw0gBCszDV0AESuTE0vgo4txHQ7OMnh1M0awwB5KU+pQOnLv4rI+8xpUNTCA93yoGsPlD/nI/ErDJbqFVGM4sbKrNJk0Obi0Ff4eQOL0azZ7DyBitXQ5QXwoXXXJIkYmXerKWy0mVV5hyAp15yz3xJqTAsgZr4OTFcomprcBl6h8Behw0saDQ3YAqhEFLVKsjAJOujpWufg+rRC17GPnQPHBAKMqgCJQTW7Tpr+0QnZEN2HlzfIRZZWmv/RKrhZo7rmBatR+gzokOoepNNS8BqlGC8cUQDg6OIHmAwrXo1raMrkAAnJvAyR3cIP24Io5iYOiASSKxoZ1jeYSjhj32d+T0pTKCaai9nwTUomcskUNWBlzgfX5YtAsIVeBu1TY7gkonG3HiAorhaQa4ZESzSTPU/Rs+ShNng8kn6KsJ6C/a67WENDyW931mtfnC+lDVTuO/D6XyP36PDmW1nbN/PV8C0RBe15sMu+q8e3n+65aXN4noONqY9OnC6Cw0c/Nhi6AiYG8m8ZImOUUprtOkhnxpM6HcysWQChv69llJBXT4V5cWWIejQB196auc084h971oFd2S4C5s+WrqlsE1RtRTXkRIDiHkZXuGF2n9sEoW+rXYZZaMsW1QJi9GEDrehFTGANI9XPFNF7BczwqD/kV4sA0bPSdXl9ZHJHzMbVzaFGzUWfVG1DcJanbgKQ1sUXOQayzKIu0c2jgNWbVao+xlwSbns0BJlYZbAWh/0YKyXUbQEM5N0ztlYKrHIYHe3DFTCqtzK7Kl1k15nA1gIJewwDTAagANeeuWlybKL3S1HzBTpoAMQTt49jJUaHbltBNDDYIV5zM3GUxgOQwxs4pyJlcdZohYhnajlqKxAagdsB08wCFqYkBYtc9UFXZDELLDBPJ8zK5pueAUqqu+9uxtmIA1b6G/McAwxl1ItVoboWCjR87uDgVgHMEfWdd1wDWpTYUQKVD01Ytf1ZeYe4qxJVYiaYvi3OVQCIbC+BUg0q4vx8wHJ3JmBraOUiAKNznn64RavyHym7TtykTR8W46xy/1YCCple5oHobd5CYldjzGTsRLr3aWbCH4TIUywcopVlNekmxHhCmoaMHjyjZ2KzzmvSBAQ1vcRGLMQaQYbRc0VUugJz0RItbryTamvZf7h3c8IVuWqHdKKVTu3hkPbg1GEDkO2hQrA3dfW9b6hcAi7UXLZfUjM64u2GfMnGSYE3qCKDgOVi6qw2HiKSvecLE9VJL2TWgXHra94oC4ioTb7q1G7V3LHNVDShrGIHrPtVVAnGFrDlNfFgZk8LGQCr9Vtl7q+z9oSt7TVsSDdthzSWfMWJLrzUtWT0qzjtvvcr/dGRNQ9Qq7LFMZYUHfX2/aeNHD6SkGfdgM3OTlg9qXK1ogrGa3twkkcqHhSjadJ06y1kTNj5rd6PlrHvVVW9sBQoga7Q96B7Im9rnSe5pUsIVorIX40d0HWA1b/0wA/f1pZqZE/bP/ltdd36lt677W9f9DkC67muEj5xAcjlP5gsvjrKtogEPAmgT/SLoewDvWykzrG5kvPKll9eZxAugY2ZoBiRMeI1b06yOv3fUMFldgwWyh4wHt0bRXGuJVKMEHWu0l6SmyWqGyd2jhCaax42bKRQf/jSDk7zpt8HJ/4/ByeQ6RR0bFCU6i3t4cNITLAWpgymf2MO6FkUAdz+wRuSt2THjyoP1q3QpvHVgbXIpwlmsLSL9yZerYhdAQq6RuvZM1pwWX/gRA6p8qzAVTftqwbH3lPWiiZ0DdR2TKxyUhxdNpI1T+PLY/+7tGrrV8Xa75usr/dlu11S3wthc+TaguSunHNjNawh1KFy2vnGXfWKGsvJCqdUXrK+u284CmHx5zI29tweqMTRD6QGHrpLrmfSKN3kNIBn7CMjIkqNwo7BquGbX4CtFqSrnmwVHopY9yKXWzisEndq9mo+4iVjDQE2XILKxBvzOS6zGJShTLBoVB/v7mHVGcBQcQIrJ3ZCeR6CL51E33RPfkHY5vuk31e1cSmNpGU6auX7d5F6XzrAUHvV5+/qFt69fuGE2f8CvX5AVSkK9MID0cVbll1bwJZmEmjo17hhFp0GRrlSyBWykZ502sKyE6ILrKDfuXLnxOMuryFMEbVxZwoDfBbEznKvMkLoy2VXeeXioOE+XHshf++ETQ+Z0I18dibkZshJC7gQYQMelOtI1U1GdEeP0JUZHagd6xxj1+lAe7L18cjExfizLHwrATbsG9Jo3JDtwHfoS+TtIkqbz5YFmp00irlQv8TkoMU+PTvr3fevVbwDYD69fsvXD84cPL9/Rdf1//VIu+9PLF3rlb38F);lineShape=1;strokeColor=#FF0000;" vertex="1" parent="1">
          <mxGeometry x="732.7157344637355" y="20.90068984847187" width="100.1071001536955" height="66.45041158463613" as="geometry" />
        </mxCell>
        <mxCell id="lsgI77zBe2tgthgqGCkg-187" value="" style="shape=stencil(fVZLUiMxDD1Nb1/Zli3ZawbuQRVh0kUmoUJghtsjT1eHyCTaOY5kS++j9kR3b9vH182UwtvpeHjZ/J2fTtuJfk0pzfvt5jifdDXR/UR3z4fj5vfx8L5/Wn6/PvbIvvpz+Ogn/FvyYoKEnpXC57IjGaX833lYEnbz/iIhIycTz4TgxAckNvG5oSQvnrOJpwLi2/EFxcanhFBvx0dtgExCjAj5dkJiULMVrRBcBygg2o4DQnAayCDLQER0AGUB2Y4Z4sSLoA3nM5JTUM2o1UJaUchJEJSB47SCfD2hjCQXRnZIlgaypHHzQWpIljQ9InoyYhTbtBaZHVloi8UaQWEgp6QO4nBDBntKVZps00qlRKfpVQdnkARRnAtWCM8sZBejs47PNAfX+jQ6rVvJqb8bUaxS1RsOQmr1OOjInS06SvJoTfY4buAyxCcHIB2FKVqE3FGho1Zs/TqOPUn0BPqR4FCsEgu2olhRHQ5aHL2cxB1fjdGsD4jXrq4nNIi1ZhZkzwfhh/BKBXs1yfhR0HngmbmlMaFPHKcmHQ5kcVX3V2fkCY/fwabadrTBZcS1VWTHbWreanG9AO66vAk1jFdUR01EY9etIJomdPH91Hied7vlpXL5//g00a3lWUP3Xw==);lineShape=1;strokeColor=#FF0000;" vertex="1" parent="1">
          <mxGeometry x="825.99111118783" y="15.157723515074963" width="3.7186753028538533" height="3.727378241173464" as="geometry" />
        </mxCell>
        <mxCell id="lsgI77zBe2tgthgqGCkg-188" value="" style="shape=stencil(fZbdcgIhDIWfZm8zQAg/17Z9j85U606tdqz9e/tmZ0c0uJ47xP0I5JwEBl59bp8/1kNwn6fj4W39M76ctgM/DCGM++36OJ50NPDjwKvN4bh+PR6+9i/z74/n6ctp9H74nlb4nbmSKZeJCu5vngmZ6jzzNAO7cX8FVKEsBuBKrgKg9oAE8gkCbLeUhEoEQKSUDZDLeWYRKIl8MEDRmHwfyBrBG6Amyu4+kDxxMoB3jhwgYu7TVAsVkFcWCs4CTBEoF4RctKeOxHIf8IXYpikHikAIf+MNUW94AGSSaoAoFIE3AlOyeWU+p2E5S9yfQZcQILVuQOwZdJNoS9Ls3wA5u2XZTIHECqeJ9kDpSaauRiNVcAY1QhdBzeLBli5WazpkSsBLV25uRaqWRyFawTQzRRIQYirJzq5atkBqLfouwqUxLBepthWb10vrWZY6UOAeyKCCtDV625mm9gmUC4Wc3VLJMMIE1BsA2FW9JraVlQB7n3c9oMKhCLEvIM1zBPZ25/umNQ1tVEC2G+fFCC8g398O2hNQuQlVu752DBfA+q0ptnqO5JFmeuIuo9DY7KjY71UxdJV4EntifPWorW++R/dC4t7V3DlIB5cHx2bc7eb3yvX//QNFp+bHDT/+Aw==);lineShape=1;strokeColor=#FF0000;" vertex="1" parent="1">
          <mxGeometry x="778.2233312196413" y="20.729437221292073" width="3.8937831434295354" height="3.8876968469647486" as="geometry" />
        </mxCell>
        <mxCell id="lsgI77zBe2tgthgqGCkg-189" value="" style="shape=stencil(lVZJcttADHwNr6gBMOvZcf7hKssRK4rkkpXt9wHDIiMMzU5yo0bowdqNGfTh7fj0ehgkvN2ul8+H7+Pz7Tjoh0FkPB8P1/FmX4M+DvrwcrkePl0vX8/P8+/Xp8ly+vpy+Tbd8GPGJdI2gST8nA9KphB/n3yc7U/j+c6eCzV2gJyJASAyZe8h2UndByRd7lsAqtSAh8xUigMwL1m9D4gUq8+BCogoV6rZR0Qs+/bF7vcBBXh/tb9DZx8CsM/UpLOvZd++SR+PkoL7m5XD51soKLBvpLlvAGqxAZpvAJvLBACVkvcg1nQGgETSAWyukYdA0c+1WFbAQ42UfBOUiYGHUkk2AAVVKrLcdxdSA302JrYuaWscAtgce26KLJ3Zo5p4bnKF7DeA+tFmhfpiIamfVSsbmL1c+ogiCWibFTV1AUGtsK7lDTcRlyO13j4irhn31beAFHEt9fEnyoj7tdcWtgQyEPiwis+KSJg6bcO1QIxy/l+ANSF4JkyaDwA5LUOzKlhclsTeluokrxY4pzaWxeuFqSbSi2nT+sG21ggIyQYz+cm2uiWwdmw1R1+lu16+jzCybVxA4e49TMIMckjUWl+kAqpqeuT3QjM2A3byxh5L6jpma5dNvgAZNlQwelfATtvDPt/KsD7Sk98mPaG30aIl//ha+/vrzj7+PA1fxtNpflne/98/Je1ofobq4y8=);lineShape=1;strokeColor=#FF0000;" vertex="1" parent="1">
          <mxGeometry x="828.2096696937735" y="35.2924087384464" width="10.498006706288077" height="13.006006495400964" as="geometry" />
        </mxCell>
        <mxCell id="lsgI77zBe2tgthgqGCkg-190" value="" style="shape=stencil(7VrLchMxEPwaX1V6P84B/iNVBOIiJFQIr7+nhZEijXbb8Q0obo6j8WpGPT09oz24q8+3159uDlZ/fnp8+HDz7fj26fbgXh2sPd7f3jwen/Dp4F4f3NW7h8eb948PX+7fnv7+dF1X1k8fH77WX/h+snMq+2pk9Y/TF8arlH598+a0/u54P61P8/qsHF3u4rQ8qOjZ8qCn5V7ZzJYXMy13Suv95V6FNPuqMtl7UH52VasS95dH5ZNY7tz+8qSiFsvZ3rNK8YLlReVywWYMXLPSVxIaY1QqF4TSWOXDBSeF9Xl2lwPB9J8bcBa4v27ef1SaPUArO0OtngjzQCsjsBlUINCHgZ5D5BEEw7c0+xDOHrI4tJBo8uKUw/yE6JVhToNN5mNIyDmSM4i6n5+QjYpsS6XhrBsgkYjT1jY66wZaZQKNajBDL3Wv9gzi/IQYKJZgIMGaVCnEABw7YyngJxjr+ob+jqXQeH7boMgoeUSJhNUnSewuKUuiFKKKM8PgmYb4EE2D2pAPrDLFtOQDx1Iyckv1mczAKz1XhNSTds8giXxI1IfndOkG+dyWvDAoqhDwVR/mLSHjEqEZoN8KA3zDnLaS+bJvPLJtoCVr5NC82j7p0nhuMGAJBGjIJ0RKZDEqW+QTEtuSlwUXBpqENToViwxrZj7YRXlZHiWcwwzvynxsS6YR44AlbYnBcnA4GcMNRMYFwJs5vVQgEE8hRIZz0LMBaCaQfKjQmJnPWVUYvINUkc4oz5QbnF6UgCb5ACBIMjbKkSgBzE4UdqgPEqWcZdmNXd9sy0ktSSDmht9tg04qHUuRkgDKuF/qdCBYgg9OkLFpInbX6dkgdj7fMxDnUDOEZFwuKopupzSduRclgdbQT2bbYCEBSAcWpeJlm1E1HztpKDIrDRhrlNx4bvCB9Q6lSCldaYGEFQY5zwYIA3O6tEZtOGl6DmWBRqLQKL3rHfKBQQNhFTSDqscKewFHFGnAdGtBVbaLAQeflA6aFsXclcXgdOIJVOaCgrpa2BOyJIHIpxEwCHOUAI3ADIqU0gAf46WiZQUCvFmrixQ1s9NIoMQPToS1pijr7UM715EEGPg6Rww+BJ7Tov2OXOgigZKV58Dkj9Fa6tDaW5KKcrlFJRqRcwgs0QJIUhEnVKVMDCpe57NGUjGyRGkXZAmZyOQJxLlQG9BknsmT0vRRN7C8RwE6RVY72itCAMk+K1DxgLpsxTAnNK7aNoiSmbyjTX5appIQQJ43NXqpo0xXwkASPqDBfPjfyf2G9/9O7i/o5GybWL0QrXiCE5MNTcNaReE6SyRYCl6KOKQoay6R8mmZkjESAAtJbeypQZ2SCT3DJ661lRROJ2pge10emhrPRoN6UX2OT759+72B7i1hPruwd3BNdG07rZewOqqN3SJ1gS7WEMBAgs/QGgcDQWTIB8ue4FtVHlmD0Iwzsiii82LjftvR3w0KjZJBgzxvaVBEe+N7J9RJbHHYFhsyShC/nl6QCRcqj7FJ+TINNbQtM+2ucBisM7GkW3MxdtNk/7rdKQ2qgfUziwD1vA/VyywKwKXrRedg+XRMy661RoBdYskyAjJgY6Kty1uWZX/65S2rZ//a5S1jkr/h8pbdlLpFljag7v7+vP7MOw7VAUG1kd631QgJg8RdNjJE5owPy6TQFNpDrdfJ9eqUDWDlFMLyGfIyNz+zPkrhfmY/obVXL3TYt77hhRH1sqE7c2Su8ceICSYhLn6x5tx6fHh+i+fd8e7u9BLQ+H/51g++Or0x5F7/BA==);lineShape=1;strokeColor=#FF0000;" vertex="1" parent="1">
          <mxGeometry x="834.0609195950592" y="16.970691979162325" width="38.843546254556905" height="32.92120708753184" as="geometry" />
        </mxCell>
        <mxCell id="lsgI77zBe2tgthgqGCkg-191" value="" style="shape=stencil(fZbdcgIhDIWfZm8zQAg/17Z9j85U606tdqz9e/tmZ0c0uJ47xP0I5JwEBl59bp8/1kNwn6fj4W39M76ctgM/DCGM++36OJ50NPDjwKvN4bh+PR6+9i/z74/n6ctp9H74nlb4nbmSKZeJCu5vngmZ6jzzNAO7cX8FVKEsBuBKrgKg9oAE8gkCbLeUhEoEQKSUDZDLeWYRKIl8MEDRmHwfyBrBG6Amyu4+kDxxMoB3jhwgYu7TVAsVkFcWCs4CTBEoF4RctKeOxHIf8IXYpikHikAIf+MNUW94AGSSaoAoFIE3AlOyeWU+p2E5S9yfQZcQILVuQOwZdJNoS9Ls3wA5u2XZTIHECqeJ9kDpSaauRiNVcAY1QhdBzeLBli5WazpkSsBLV25uRaqWRyFawTQzRRIQYirJzq5atkBqLfouwqUxLBepthWb10vrWZY6UOAeyKCCtDV625mm9gmUC4Wc3VLJMMIE1BsA2FW9JraVlQB7n3c9oMKhCLEvIM1zBPZ25/umNQ1tVEC2G+fFCC8g398O2hNQuQlVu752DBfA+q0ptnqO5JFmeuIuo9DY7KjY71UxdJV4EntifPWorW++R/dC4t7V3DlIB5cHx2bc7eb3yvX//QNFp+bHDT/+Aw==);lineShape=1;strokeColor=#FF0000;" vertex="1" parent="1">
          <mxGeometry x="863.5566340353967" y="16.062765468362386" width="3.8937831434293457" height="3.887696846964843" as="geometry" />
        </mxCell>
        <mxCell id="lsgI77zBe2tgthgqGCkg-192" value="" style="shape=stencil(7VrLbtxGEPyavTbm/Tg7zn8YsBwtokiGLCfx37smazKcIrcEBUhy2dtql6WZ7q6uriF5iu++3H/4fHcK7svL89Ovd3+cP77cn+JPpxDOj/d3z+cXfDrF96f47tPT890vz09fHz9e/v78YVw5Pv329Pv4D39ecD5a6QMV3LfLN7lYrn998/MF8HB+3AKy9TQBSrWgAN1inAC1WErXAaEyoHQLUQCaxTrHUM2rFZrleYUULYkYAEgzIHrrGhDLBMA3vUhACTOg6KCR1jYDUEqxpeisuBngLXkBCBZmAEr5418cA5K5mUu+LaU8BhTzc5Z8tdIEoFnoO0C/DkiO6zC2lAUAQedd0IJLYE5Lu7SKSqdsbl4BhasiSwA0KlyxKOqQym6Fbi4IQF1+XvthTcMxoJunjovWRQw5cAwlWhRpzQi68QpRpBUtX+YtJW9NxAAArYCeLnqFvmugIOqQwVY/cwlpVStAZmZ6d1nojJ/nukG7RUcXSADpnjmxnxJYWMPS4cfXJ0vzfpxVtZ/CNXPmRLwFGtrecH31i4Ru9iP6oEYLpKnmxf4rWtlzPkV+MPj29RIUresY2/BBNA2up/yDcIpACJiHiBw6tTMhvLMkBLsVZjTGkBKKHqxSGzep8L0udmXNqbMmitZBolkdQVu5pb7I88bxZEEj71ZarpbHSY80lpj3hMo4vSdeIcsxhTTVuRAgi4was5kAffkXx4DEzdO8eUE+lJpWAKAKMnWkNTGgiRVaZa86tiQED3SlQYigm+I3FI/q0JbhewyIbHlQOBV0c1y4ki0qkWksGtlLNwwiNFKxKp1k3ZnblKRdqLsOSl7qzCDC3NRwfl3E0Hbki1V6VVS67wBRBN1gAz1vSQ3zDm6Skjnzit7R8lw4uDAVNDouEUCfGQZgDhpGTg1EbKkQl6KkN3razZUeRk51XGdjOHyZaqDKpxK4pqa4lHgEZT1RQL5eeEvqwDo0onLQQfmGxoWDPw6vtOisS5iKTQGgQlTpLO0zYiAxBvm86gfPlY5rh1xTvkQNpCfQEON9iwq2tma1MEBlCS1KxxjEoCqNfnCkfP61Fg2J66As4gDENwH+iZ0hE/pv2Bkacjc7c7MzPzaQia5ZnhHBnEpa6aTZKH13IwBzVwESu5NxJ01s6T85188L3M71t3M9EU6e6ysH4Mty5/RaBDRFwnpyvwYgAcasrWpLeWeSwqJ/14pMpACtlH+GkJDBQBqyarO9xGfL6tbtKuhbiReAmLmR63oqOAb4xS1v7maoSoM5fi4czmJZZOn2ZOICuD2ZOHrQQIbk/38ykVmXUHtlSAAg6znSILg0zkWkS205bF1La6R7dVk+C4QwUovCKiq5H9NjbqCNBT+26IldFfyuuptR+AHosIpKBHjAVf1wBRaNBqKXE3R3wsjrsebK9Z6eDhVpnR3fX4X2V/XQevdUPCzT6Ep+Ot328EuGj0nEPhumVo2qwoft1GV+1lm8vV6QevUfm/0oBfZuueeyCVjdlYRh8Y4zqirmcWKkvkxyOL/9TYbXAfjw94sTn84PD5f3Lra/84sW+OrykkZ8/x0=);lineShape=1;strokeColor=#FF0000;" vertex="1" parent="1">
          <mxGeometry x="872.1597912422005" y="21.08288491242672" width="26.449166774134483" height="20.53996252766202" as="geometry" />
        </mxCell>
        <mxCell id="lsgI77zBe2tgthgqGCkg-193" value="" style="shape=stencil(7VjLbttADPwaX4nd5T7Ic5r+R4A4jVHXDpz09felIKyipeIJcushN0fhaPkYDqnd8c3z493TfpfC88vl/H3/+3D/8rjjL7uUDqfH/eXwYr92fLvjm4fzZf/tcv55up//frqbLKdfP86/pjf8mXFKLU+gFP7ODziSzE++zvbHw2llHysFGQA5UAaAxP19C0AolesATlQcQClFABDKzqVCAQAyE6cxaKYIXLL3yXiCRRUCAFRqbQBEpoZcahRHgBI3aF/qYF9J0fulv27JEdUK7JUKjxFTAxkqgXTMUKQkwD5RLYN9IEbvz5STs0cFKJVScPYJxFuar3CkCPJZ1OfTWAv8qYGK4ygx8KfG3lSv9S2AD2avY7wK8zPZj/WNkUoCAQupugQV0Pa1+B4zh/S6fQsUnUNCDTjUrMc3yhWAR00pjhHkSA24JEb5sWbFTmAAEE9qy0IEJ2jqDnRAw8qltbOyAyRC3mkjHV2SRfzeBpjWjsQWEz/APAP4E6T30lWAo2qChTNAHE/Qd7LUqI3iaE8yqsMS4gLAI0dNzccYYsCCpNbQ1R/RQF7FFGbkhgrsOGl9wiyAShloqpikuBMYtpwBfCECVQxwKia4ENO/R9WQ3HvqWss5WbKuzagOYQOwJ4jfTCl5AFJKI5OPIULpM3LyJgaUViOC6yDLkoJpYlST4OsgIK0rNq9KrSgI9UuYZgrIJ+kLwoquDclA9XuhvQICsmfflAcQtemQWxomrUIxWJaKB8CgPwqYyLkpdUFztHXhWkZKxnM0Eo+D13YVNOVqozrSdRqLIK2VPb9t8KKgbddwWskBxmDboRMmW/cE7eef6/bnuv0/r9sWgIyEswwh/bWeCeMJjKd/YR+ykRaJnfXAVigiIB3b3uaapvZd8e2rAvXqaFqDaGo5qe4E++wAPLKvcPcNYHljtFRt7BMkavTf/ZmpAnsrs5NGez8gUvBDMwfo/2aMT5clgHeb+TSxCJAiUHasy7BxrM1HXeEEvy6Sv22yjzzEau6ys5ocaB3MXicS3spLb5GVPapv69VZ2aPBIX3xW/lf0Xb6weu79+3tx+td4cPheJyvGtf/93eL9mi+l+Tbfw==);lineShape=1;strokeColor=#FF0000;" vertex="1" parent="1">
          <mxGeometry x="890.8512435185576" y="13.375962760518291" width="31.54358918933402" height="22.416088145786926" as="geometry" />
        </mxCell>
        <mxCell id="lsgI77zBe2tgthgqGCkg-194" value="" style="shape=stencil(fVbLcsMgDPwaXzWAkBDnPv4jM00bT9Okk6avv69cD21EbN0I1gZptSsY8OZtt3ndDim8nU/H5+3n+HDeDXg7pDQedtvTeNbVgHcD3jweT9un0/H98DD/ft1MkdPq5fgx/cPXjIsVQphQKXzPOwkB6+/O/QzYj4cLQCJIZAARgco6ADPUYgAENa3H5wIx2wMg4Xo8B8jVxIdW0mJ8QeBoKwak9XihPh+BkNfjK4KwzZ8hswMQEEtQYihORrUC24ywgDiUVoZgKcoC5ABEP1sAFSjRIbW0njYAZ8hODawysl1gpdVJiSIUuQI4tKIqm/qUyElJ+4rYFy2OslVohXtaPZaiStuegFqDo+3419cLaVSnaNVy6dzJwE7RGCHbPghEp+acoHbzArJTAXE/X9SdDkVcmxn/3R/FUWoEsj0gEMf9NfZN1vGVPUABtgfogIzOgFR3dnbWCRg9d6q1rJ0zQXB6sAxwVBFD6LtA1EbCWhHJDoDJsF5O1GTWAIVcP8vVCYLNTsuAAGQHQA1QnRpKaN76A3A7c1mr0l9tSgM6KWXqp94F08t2w35k6PT31DTZy9JUsz8yUi8OKS6ver1ZaZTq3j5XUlKe7fWmi//nxuO438+vlcvv/fNEt+anDd79AA==);lineShape=1;strokeColor=#FF0000;" vertex="1" parent="1">
          <mxGeometry x="926.0283191566032" y="16.34463865626708" width="4.034541152285935" height="4.885593119482413" as="geometry" />
        </mxCell>
        <mxCell id="lsgI77zBe2tgthgqGCkg-195" value="" style="shape=stencil(7VnLbhsxDPwaXwlJ1IM6p+1/BIjTGE3jIElff1+qhuQV1ztGTr3k5mw4K1FDDkntjm9eH26f97vgXt9ejt/2vw53bw87/rQL4fD0sH85vOmvHX/e8c398WX/9eX44+nu9PfzbbNsv74ff7Y3/D7hHMXYQMH9OT2okXL49+TLyf7x8LSwZ4o82zuqwL5Qnu0lkbhte68LuAlQan9yERDG+gPgqVQAqCRlAmSm4IHLlersQ2JKeRuQHOU8ASKTAytkT2HeEgeqYAV1kesEUGI4bgNEefYTwCdygDdR4mQmjgS4UNXDeUeRPPCgZkqzvboEaK5COU32jhyyr/11Z3uP7ePq/SCK1D7b9wdAgNoXNvYJ20s09lWgvQlST4mx/cxvIJ9AXrpx3mcADIjVAprZ5T0OxGuESTL2GTjQCJgPNF17f/bGPoKEaQGUjX1ChBUq8/lUCmg/aZXBAUfQIHQAco/ZyykvPYIHw76veRnAXcoHIFMBHBfVkFmrVecYZFlhq0IskLUslOYVYiQHaFDtt7S5TvxlcVchmoUrFWKwQoq2xGbdEkjNtoGZuOJgCYzFrlBw7OmZVAOosKLFYJNZAmUQfFHVZ65oWvcRD63IzsRpOEaQzxoIyeRPgNHKSpNpXSJkmnOvkAOQiMEpcewKMQCaD4A4HhK3BIB8YO7/XgCQKikgrXyATmsfEewpReS0Nk8GwLBy8ui2BsDDWGpbMgCttXhLaQZIharRjtVEq2ohitYhKgNQSDDAqLcCKnI6UvF2S6h+KqBm6zRSDdb6F+yxQh5SL1CLjHMoRVNvARehkfCW3CpFBYV37D3IIryv8JDMCrkr1RbARmvGW9KiuErRhPPBdJLqAxqpWj7I6pSQ02wLe+MBOc0XmPagZDXAnEAaSwXLjJkjpV6TGTuPSM/yLYAtWQXOVO8HZMu0XGFa7ClJ7F5tFUU2OR1gr6Fl188raGFHoaGFPc8iULDT2jqYwl4iHEy0OXEG4OHkpu2POaWc+iy01WAZMU4VdgLawpljTQFGqzaJRsgilhltQ8PcwimVATe6pj60lEI3ABr98wpBu0CwggzpXXT3SMha9JuJMsP2p3rb3XuPR6ZkG6wCL2LqqoNTUcAj5ccdADr/jzuA/3wHILadj/0Ati7NjH3u4rp1KWcSQOD7z03sCCCGDoiz17u+wgFGtd/UG92Sx1ejRrZ0jiuoGjhblbUCoSCNzop7qw+ojLu+48GCQBo0Dc0KJcO674euLRoFdL27kmptv9Atu847c95oZKErCWfno5ap4P3rsHD4utZRlNUCwGHXj2NhX6ADIVh7BpS51WwkPaw27F2y9gyUwvXvAcO+wIhYCa/ao+t7txqkMmwcnb2919pcoL1f2Qd4nnaExyPLez9LXbfXH+dvYPeHx8fTJ7Tl/+03M310+t7Gn/8C);lineShape=1;strokeColor=#FF0000;" vertex="1" parent="1">
          <mxGeometry x="740.8251655685415" y="38.6591119782363" width="193.08402157600693" height="43.01944333909414" as="geometry" />
        </mxCell>
      </root>
    </mxGraphModel>
  </diagram>
</mxfile>
